<?xml version="1.0" encoding="UTF-8" standalone="no"?>
<svg
   width="396.85"
   height="264.567"
   viewBox="0 0 105 70"
   version="1.1"
   id="svg158"
   sodipodi:docname="aneurysm.svg"
   inkscape:version="1.1.2 (0a00cf5339, 2022-02-04)"
   xmlns:inkscape="http://www.inkscape.org/namespaces/inkscape"
   xmlns:sodipodi="http://sodipodi.sourceforge.net/DTD/sodipodi-0.dtd"
   xmlns="http://www.w3.org/2000/svg"
   xmlns:svg="http://www.w3.org/2000/svg">
  <sodipodi:namedview
     id="namedview160"
     pagecolor="#ffffff"
     bordercolor="#666666"
     borderopacity="1.0"
     inkscape:showpageshadow="2"
     inkscape:pageopacity="0.0"
     inkscape:pagecheckerboard="0"
     inkscape:deskcolor="#d1d1d1"
     showgrid="false"
     inkscape:zoom="1.1269876"
     inkscape:cx="77.196945"
     inkscape:cy="155.28121"
     inkscape:window-width="1920"
     inkscape:window-height="1008"
     inkscape:window-x="0"
     inkscape:window-y="0"
     inkscape:window-maximized="1"
     inkscape:current-layer="svg158"
     inkscape:pageshadow="2" />
  <style
     id="style2"><![CDATA[.B{fill:#c50119}.C{stroke-width:.9}.D{stroke-linecap:round}.E{stroke-miterlimit:10}.F{font-family:sans-serif}]]></style>
  <defs
     id="defs58">
    <clipPath
       id="A">
      <path
         d="M-26214.4-25674.4h52428.7v52428.7h-52428.7z"
         id="path4" />
    </clipPath>
    <clipPath
       id="B">
      <path
         d="M-26214.4-25674.4h52428.7v52428.7h-52428.7z"
         id="path7" />
    </clipPath>
    <clipPath
       id="C">
      <path
         d="M-26214.4-25674.4h52428.7v52428.7h-52428.7z"
         id="path10" />
    </clipPath>
    <clipPath
       id="D">
      <path
         d="M-26214.4-25674.4h52428.7v52428.7h-52428.7z"
         id="path13" />
    </clipPath>
    <clipPath
       id="E">
      <path
         d="M-26214.4-25674.4h52428.7v52428.7h-52428.7z"
         id="path16" />
    </clipPath>
    <clipPath
       id="F">
      <path
         d="M-26214.4-25674.4h52428.7v52428.7h-52428.7z"
         id="path19" />
    </clipPath>
    <clipPath
       id="G">
      <path
         d="M-26214.4-25674.4h52428.7v52428.7h-52428.7z"
         id="path22" />
    </clipPath>
    <clipPath
       id="H">
      <path
         d="M-26214.4-25674.4h52428.7v52428.7h-52428.7z"
         id="path25" />
    </clipPath>
    <clipPath
       id="I">
      <path
         d="M-26214.4-25674.4h52428.7v52428.7h-52428.7z"
         id="path28" />
    </clipPath>
    <clipPath
       id="J">
      <path
         d="M-26214.4-25674.4h52428.7v52428.7h-52428.7z"
         id="path31" />
    </clipPath>
    <clipPath
       id="K">
      <path
         d="M-26214.4-25674.4h52428.7v52428.7h-52428.7z"
         id="path34" />
    </clipPath>
    <clipPath
       id="L">
      <path
         d="M-26214.4-25674.4h52428.7v52428.7h-52428.7z"
         id="path37" />
    </clipPath>
    <clipPath
       id="M">
      <path
         d="M-26214.4-25674.4h52428.7v52428.7h-52428.7z"
         id="path40" />
    </clipPath>
    <clipPath
       id="N">
      <path
         d="M-26214.4-25674.4h52428.7v52428.7h-52428.7z"
         id="path43" />
    </clipPath>
    <clipPath
       id="O">
      <path
         d="M-26214.4-25674.4h52428.7v52428.7h-52428.7z"
         id="path46" />
    </clipPath>
    <clipPath
       id="P">
      <path
         d="M-26214.4-25674.4h52428.7v52428.7h-52428.7z"
         id="path49" />
    </clipPath>
    <clipPath
       id="Q">
      <path
         d="M-26214.4-25674.4h52428.7v52428.7h-52428.7z"
         id="path52" />
    </clipPath>
    <clipPath
       id="R">
      <path
         d="M-26214.4-25674.4h52428.7v52428.7h-52428.7z"
         id="path55" />
    </clipPath>
    <clipPath
       clipPathUnits="userSpaceOnUse"
       id="clipPath274">
      <rect
         style="fill:#0000ff;fill-rule:evenodd;stroke-width:0.617403"
         id="rect276"
         width="149.91035"
         height="157.15305"
         x="215.96451"
         y="-442.25314"
         transform="scale(1,-1)" />
    </clipPath>
  </defs>
  <g
     transform="matrix(0.42854306,0,0,-0.42854306,-72.360277,189.25298)"
     id="g144"
     clip-path="url(#clipPath274)">
    <g
       clip-path="url(#A)"
       id="g62">
      <path
         d="m 168.65,324.7 v 0.65 0.6 l 0.05,0.55 0.05,0.6 0.05,0.55 0.05,0.6 0.1,0.55 0.1,0.5 0.1,0.55 0.15,0.5 0.1,0.5 0.15,0.45 0.15,0.5 0.15,0.4 0.2,0.45 0.2,0.4 0.35,0.75 0.45,0.7 0.45,0.6 0.45,0.5 0.5,0.4 0.55,0.3 0.5,0.15 0.6,0.05 0.55,-0.05 0.5,-0.15 0.55,-0.3 0.5,-0.4 0.45,-0.5 0.45,-0.6 0.4,-0.7 0.4,-0.75 0.2,-0.4 0.15,-0.45 0.15,-0.4 0.15,-0.5 0.15,-0.45 0.15,-0.5 0.1,-0.5 0.1,-0.55 0.1,-0.5 0.1,-0.55 0.05,-0.6 0.05,-0.55 0.05,-0.6 0.05,-0.55 v -0.6 l 0.05,-0.65 -0.05,-0.6 v -0.6 l -0.05,-0.6 -0.05,-0.55 -0.05,-0.6 -0.05,-0.55 -0.1,-0.55 -0.1,-0.55 -0.1,-0.5 -0.1,-0.55 -0.15,-0.45 -0.15,-0.5 -0.15,-0.45 -0.15,-0.45 -0.15,-0.45 -0.2,-0.4 -0.4,-0.75 -0.4,-0.7 -0.45,-0.6 -0.45,-0.5 -0.5,-0.4 -0.55,-0.3 -0.5,-0.15 -0.55,-0.1 -0.6,0.1 -0.5,0.15 -0.55,0.3 -0.5,0.4 -0.45,0.5 -0.45,0.6 -0.45,0.7 -0.35,0.75 -0.2,0.4 -0.2,0.45 -0.15,0.45 -0.15,0.45 -0.15,0.5 -0.1,0.45 -0.15,0.55 -0.1,0.5 -0.1,0.55 -0.1,0.55 -0.05,0.55 -0.05,0.6 -0.05,0.55 -0.05,0.6 v 1.2"
         fill="#fcd8b2"
         id="path60" />
    </g>
    <g
       clip-path="url(#B)"
       id="g66">
      <path
         d="m 172,324.7 v 0.65 0.6 l 0.1,0.6 0.05,0.55 0.1,0.55 0.1,0.5 0.15,0.5 0.15,0.4 0.3,0.8 0.4,0.55 0.4,0.35 0.45,0.1 0.4,-0.1 0.45,-0.35 0.35,-0.55 0.35,-0.8 0.1,-0.4 0.15,-0.5 0.1,-0.5 0.1,-0.55 0.05,-0.55 0.1,-0.6 v -0.6 l 0.05,-0.65 -0.05,-0.6 v -0.65 l -0.1,-0.6 -0.05,-0.55 -0.1,-0.55 -0.1,-0.5 -0.15,-0.5 -0.1,-0.4 -0.35,-0.75 -0.35,-0.6 -0.45,-0.35 -0.4,-0.15 -0.45,0.15 -0.4,0.35 -0.4,0.6 -0.3,0.75 -0.15,0.4 -0.15,0.5 -0.1,0.5 -0.1,0.55 -0.05,0.55 -0.1,0.6 v 1.25"
         fill="#af0917"
         id="path64" />
    </g>
    <g
       clip-path="url(#C)"
       id="g70">
      <path
         d="m 421.75,285.7 v 0.65 l 0.05,0.6 0.05,0.6 0.1,0.55 0.15,0.55 0.1,0.5 0.2,0.5 0.2,0.4 0.4,0.8 0.5,0.55 0.55,0.35 0.65,0.1 0.55,-0.1 0.55,-0.35 0.5,-0.55 0.45,-0.8 0.2,-0.4 0.15,-0.5 0.15,-0.5 0.15,-0.55 0.1,-0.55 0.05,-0.6 0.05,-0.6 0.05,-0.65 -0.05,-0.6 -0.05,-0.65 -0.05,-0.6 -0.1,-0.55 -0.15,-0.55 -0.15,-0.5 -0.15,-0.5 -0.2,-0.4 -0.45,-0.75 -0.5,-0.6 -0.55,-0.35 -0.55,-0.15 -0.65,0.15 -0.55,0.35 -0.5,0.6 -0.4,0.75 -0.2,0.4 -0.2,0.5 -0.1,0.5 -0.15,0.55 -0.1,0.55 -0.05,0.6 -0.05,0.65 v 0.6"
         fill="#fcd8b2"
         id="path68" />
    </g>
    <g
       clip-path="url(#D)"
       id="g74">
      <path
         d="m 424.25,285.75 v 0.55 0.45 l 0.05,0.8 0.25,0.7 0.25,-0.7 0.05,-0.8 v -0.45 l 0.05,-0.55 -0.05,-0.5 v -0.45 l -0.05,-0.8 -0.25,-0.75 -0.25,0.75 -0.05,0.8 v 0.95"
         fill="#af0917"
         id="path72" />
    </g>
    <g
       clip-path="url(#E)"
       id="g78">
      <path
         d="m 440.2,380.9 0.15,-0.75 0.1,-0.8 0.05,-0.4 v -0.4 l -0.05,-0.45 -0.05,-0.4 -0.05,-0.45 -0.1,-0.45 -0.1,-0.4 -0.15,-0.45 -0.15,-0.5 -0.2,-0.45 -0.2,-0.45 -0.2,-0.45 -0.25,-0.5 -0.3,-0.45 -0.25,-0.5 -0.35,-0.5 -0.3,-0.45 -0.35,-0.5 -0.4,-0.5 -0.4,-0.5 -0.4,-0.5 -0.45,-0.45 -0.45,-0.5 -0.5,-0.5 -0.5,-0.5 -0.55,-0.5 -0.55,-0.5 -0.55,-0.55 -0.55,-0.35 -0.3,-0.2 -0.1,-0.1 -0.5,-0.4 -0.45,-0.4 -0.5,-0.4 -0.45,-0.4 -0.5,-0.4 -0.45,-0.35 -0.45,-0.4 -0.5,-0.35 -0.45,-0.35 -0.5,-0.35 -0.45,-0.4 -0.45,-0.35 -0.45,-0.35 -0.45,-0.4 -0.45,-0.35 -0.45,-0.4 -0.45,-0.4 -0.4,-0.4 -0.45,-0.45 -0.4,-0.4 -0.4,-0.45 -0.4,-0.5 -0.4,-0.45 -0.4,-0.55 -0.35,-0.5 -0.4,-0.6 -0.35,-0.55 -0.35,-0.6 -0.35,-0.65 -0.3,-0.7 -0.3,-0.7 -0.3,-0.75 -0.15,-0.4 -0.15,-0.4 -0.15,-0.5 -0.2,-0.5 -0.15,-0.4 -0.1,-0.45 -0.2,-0.5 -0.2,-0.5 -0.2,-0.5 -0.15,-0.5 -0.15,-0.45 -0.1,-0.45 -0.15,-0.45 -0.15,-0.45 -0.1,-0.4 -0.1,-0.45 -0.25,-0.75 -0.25,-0.75 -0.25,-0.7 -0.3,-0.65 -0.35,-0.6 -0.4,-0.6 -0.5,-0.5 -0.55,-0.5 -0.65,-0.45 -0.75,-0.45 -0.4,-0.2 -0.45,-0.2 -0.8,-0.35 -0.55,-0.15 -0.6,-0.15 -0.65,-0.15 -0.7,-0.15 -0.75,-0.15 -0.75,-0.1 -0.75,-0.15 -0.75,-0.1 -0.75,-0.1 -0.7,-0.1 -0.65,-0.1 -0.65,-0.1 -0.5,-0.05 -0.45,-0.1 -0.6,-0.15 -0.45,-0.1 -0.5,-0.1 -0.55,-0.15 -0.65,-0.15 -0.75,-0.15 -0.75,-0.15 -0.4,-0.1 -0.45,-0.1 -0.45,-0.1 -0.45,-0.05 -0.45,-0.1 -0.45,-0.1 -0.5,-0.1 -0.45,-0.1 -0.5,-0.15 -0.5,-0.1 -0.55,-0.1 -0.5,-0.1 -0.5,-0.1 -0.55,-0.1 -0.55,-0.15 -0.55,-0.1 -0.5,-0.1 -0.55,-0.15 -0.55,-0.1 -0.55,-0.1 -0.55,-0.15 -0.6,-0.1 -0.55,-0.1 -0.55,-0.1 -0.55,-0.15 -0.55,-0.1 -0.55,-0.1 -0.5,-0.15 -0.55,-0.1 -0.55,-0.1 -0.5,-0.1 -0.55,-0.15 -0.5,-0.1 -0.5,-0.1 -0.55,-0.1 -0.45,-0.1 -0.5,-0.1 -0.5,-0.1 -0.45,-0.1 -0.45,-0.1 -0.45,-0.1 -0.45,-0.1 -0.4,-0.1 -0.4,-0.1 -0.75,-0.15 -0.7,-0.2 -0.45,-0.05 -0.4,-0.1 -0.4,-0.1 -0.4,-0.1 -0.4,-0.1 -0.4,-0.1 -0.8,-0.15 -0.8,-0.2 -0.75,-0.2 -0.8,-0.15 -0.75,-0.2 -0.75,-0.15 -0.75,-0.15 -0.75,-0.15 -0.75,-0.2 -0.75,-0.1 -0.7,-0.15 -0.7,-0.15 -0.7,-0.15 -0.65,-0.1 -0.6,-0.1 -0.6,-0.1 -0.6,-0.1 -0.6,-0.05 -0.6,-0.1 -0.6,-0.05 -0.55,-0.1 -0.6,-0.05 -0.6,-0.1 -0.55,-0.05 -0.6,-0.05 -0.55,-0.05 -0.6,-0.05 h -0.55 l -0.55,-0.05 h -0.55 l -0.6,-0.05 h -0.55 -0.55 -0.55 -0.55 -0.5 -0.55 -0.55 l -0.55,0.05 h -0.5 l -0.55,0.05 -0.5,0.05 -0.55,0.05 -0.5,0.05 -0.55,0.05 -0.5,0.05 -0.5,0.05 -0.55,0.1 -0.5,0.05 -0.5,0.1 -0.5,0.1 -0.5,0.1 -0.5,0.1 -0.5,0.1 -0.5,0.1 -0.5,0.15 -0.5,0.1 -0.5,0.15 -0.5,0.1 -0.5,0.15 -0.5,0.15 -0.45,0.15 -0.5,0.2 -0.5,0.15 -0.45,0.15 -0.5,0.2 -0.5,0.2 -0.45,0.15 -0.5,0.2 -0.45,0.2 -0.5,0.25 -0.45,0.2 -0.5,0.2 -0.45,0.25 -0.5,0.25 -0.45,0.25 -0.45,0.2 -0.5,0.25 -0.4,0.2 -0.5,0.2 -0.55,0.3 -0.65,0.25 -0.65,0.3 -0.65,0.35 -0.7,0.3 -0.7,0.3 -0.65,0.3 -0.65,0.25 -0.6,0.25 -0.5,0.2 -0.75,0.2 -0.75,0.3 -0.45,0.15 -0.5,0.2 -0.5,0.2 -0.55,0.2 -0.6,0.2 -0.6,0.2 -0.65,0.2 -0.65,0.25 -0.65,0.25 -0.7,0.25 -0.7,0.2 -0.7,0.25 -0.7,0.25 -0.65,0.25 -0.7,0.25 -0.7,0.25 -0.7,0.25 -0.65,0.25 -0.6,0.25 -0.65,0.25 -0.6,0.2 -0.55,0.25 -0.55,0.2 -0.45,0.2 -0.45,0.2 -0.45,0.15 -0.65,0.35 -0.45,0.25 -0.55,0.4 -0.5,0.4 -0.45,0.4 -0.4,0.4 -0.35,0.4 -0.3,0.4 -0.25,0.4 -0.2,0.4 -0.15,0.45 -0.1,0.4 -0.05,0.45 v 0.4 l 0.05,0.4 0.1,0.45 0.15,0.4 0.2,0.4 0.25,0.45 0.3,0.4 0.35,0.4 0.45,0.4 0.45,0.4 0.5,0.4 0.6,0.35 0.6,0.4 0.7,0.35 0.75,0.35 0.8,0.35 0.4,0.2 0.45,0.15 0.45,0.15 0.45,0.15 0.5,0.2 0.45,0.15 0.5,0.15 0.55,0.15 0.55,0.15 0.55,0.1 0.5,0.15 0.5,0.15 0.5,0.15 0.5,0.2 0.5,0.15 0.5,0.15 0.5,0.2 0.5,0.15 0.5,0.2 0.5,0.2 0.5,0.2 0.5,0.2 0.45,0.2 0.5,0.2 0.5,0.25 0.45,0.2 0.5,0.25 0.45,0.25 0.5,0.2 0.45,0.25 0.45,0.25 0.45,0.25 0.5,0.25 0.45,0.3 0.45,0.25 0.45,0.3 0.4,0.25 0.45,0.3 0.45,0.3 0.45,0.3 0.4,0.3 0.45,0.3 0.4,0.3 0.45,0.35 0.4,0.3 0.4,0.35 0.4,0.3 0.4,0.35 0.8,0.7 0.8,0.7 0.75,0.75 0.75,0.75 0.75,0.75 0.7,0.8 0.35,0.4 0.3,0.4 0.35,0.4 0.35,0.45 0.3,0.4 0.35,0.45 0.3,0.4 0.3,0.45 0.3,0.45 0.3,0.45 0.3,0.45 0.3,0.45 0.3,0.45 0.3,0.45 0.25,0.55 0.25,0.5 0.25,0.5 0.25,0.55 0.2,0.55 0.25,0.55 0.2,0.55 0.15,0.55 0.2,0.6 0.15,0.55 0.15,0.6 0.15,0.6 0.15,0.6 0.1,0.6 0.1,0.6 0.1,0.65 0.1,0.6 0.05,0.65 0.05,0.65 0.05,0.6 0.05,0.65 v 0.65 0.65 0.7 0.65 l -0.05,0.65 v 0.7 l -0.05,0.65 -0.1,0.65 -0.05,0.7 -0.1,0.65 -0.1,0.7 -0.1,0.7 -0.15,0.65 -0.1,0.7 -0.15,0.7 -0.2,0.65 -0.15,0.7 -0.2,0.7 -0.2,0.65 -0.2,0.7 -0.2,0.7 -0.25,0.65 -0.25,0.7 -0.25,0.65 -0.25,0.7 -0.3,0.65 -0.3,0.7 -0.3,0.65 -0.3,0.65 -0.35,0.7 -0.35,0.65 -0.35,0.65 -0.35,0.65 -0.4,0.65 -0.4,0.65 -0.4,0.6 -0.4,0.65 -0.45,0.65 -0.45,0.6 -0.45,0.6 -0.45,0.65 -0.5,0.6 -0.45,0.55 -0.6,0.7 -0.65,0.7 -0.65,0.65 -0.65,0.65 -0.65,0.65 -0.7,0.65 -0.7,0.6 -0.75,0.55 -0.75,0.6 -0.75,0.55 -0.8,0.5 -0.75,0.55 -0.4,0.25 -0.45,0.25 -0.4,0.25 -0.4,0.2 -0.4,0.25 -0.45,0.25 -0.4,0.2 -0.45,0.2 -0.4,0.25 -0.45,0.2 -0.45,0.2 -0.4,0.2 -0.45,0.2 -0.45,0.2 -0.45,0.2 -0.45,0.15 -0.45,0.2 -0.45,0.15 -0.45,0.2 -0.45,0.15 -0.5,0.15 -0.45,0.15 -0.45,0.15 -0.45,0.15 -0.5,0.15 -0.45,0.1 -0.5,0.15 -0.45,0.1 -0.5,0.15 -0.45,0.1 -0.5,0.1 -0.5,0.1 -0.45,0.1 -0.5,0.1 -0.5,0.1 -0.45,0.05 -0.5,0.1 -0.5,0.05 -0.5,0.1 -0.5,0.05 -0.5,0.05 -0.45,0.05 -0.5,0.05 h -0.5 l -0.5,0.05 -0.5,0.05 h -0.5 -0.5 l -0.5,0.05 h -0.5 -0.5 l -0.5,-0.05 h -0.5 -0.5 l -0.5,-0.05 h -0.5 l -0.5,-0.05 -0.5,-0.05 -0.5,-0.05 -0.5,-0.05 -0.5,-0.05 -0.5,-0.05 -0.5,-0.1 -0.5,-0.05 -0.5,-0.1 -0.5,-0.1 -0.5,-0.1 -0.45,-0.1 -0.5,-0.1 -0.5,-0.1 -0.5,-0.15 -0.5,-0.1 -0.45,-0.15 -0.5,-0.15 -0.5,-0.15 -0.5,-0.15 -0.45,-0.15 -0.5,-0.15 -0.5,-0.2 -0.45,-0.15 -0.5,-0.2 -0.45,-0.2 -0.5,-0.2 -0.45,-0.2 -0.45,-0.2 -0.5,-0.2 -0.45,-0.25 -0.45,-0.2 -0.5,-0.25 -0.45,-0.25 -0.45,-0.25 -0.45,-0.25 -0.45,-0.25 -0.45,-0.3 -0.45,-0.25 -0.45,-0.3 -0.45,-0.3 -0.4,-0.3 -0.45,-0.3 -0.45,-0.3 -0.4,-0.35 -0.45,-0.3 -0.4,-0.35 -0.4,-0.35 -0.75,-0.6 -0.7,-0.6 -0.7,-0.65 -0.65,-0.65 -0.65,-0.65 -0.7,-0.7 -0.6,-0.65 -0.65,-0.75 -0.6,-0.7 -0.6,-0.75 -0.6,-0.75 -0.55,-0.75 -0.55,-0.75 -0.55,-0.8 -0.5,-0.8 -0.25,-0.4 -0.25,-0.4 -0.25,-0.45 -0.2,-0.4 -0.25,-0.4 -0.2,-0.45 -0.25,-0.4 -0.2,-0.4 -0.2,-0.45 -0.25,-0.45 -0.2,-0.4 -0.15,-0.45 -0.2,-0.45 -0.2,-0.4 -0.15,-0.45 -0.2,-0.45 -0.15,-0.45 -0.2,-0.45 -0.15,-0.45 -0.15,-0.45 -0.15,-0.45 -0.1,-0.45 -0.15,-0.5 -0.1,-0.45 -0.15,-0.45 -0.1,-0.45 -0.1,-0.5 -0.1,-0.45 -0.1,-0.5 -0.1,-0.45 -0.05,-0.5 -0.1,-0.45 -0.05,-0.5 -0.05,-0.5 -0.1,-0.45 v -0.5 l -0.05,-0.5 -0.05,-0.45 v -0.5 l -0.05,-0.5 v -0.5 -0.5 -0.5 -0.5 l 0.05,-0.5 v -0.5 l 0.05,-0.5 0.05,-0.5 0.05,-0.5 0.05,-0.5 0.05,-0.5 0.1,-0.5 0.05,-0.55 0.1,-0.5 0.1,-0.5 0.1,-0.5 0.15,-0.5 0.1,-0.55 0.15,-0.5 0.15,-0.5 0.15,-0.55 0.15,-0.5 0.15,-0.5 0.2,-0.55 0.2,-0.5 0.2,-0.55 0.2,-0.5 0.2,-0.5 0.2,-0.55 0.25,-0.5 0.25,-0.55 0.25,-0.5 0.25,-0.55 0.25,-0.5 0.3,-0.55 0.3,-0.5 0.3,-0.55 0.3,-0.5 0.3,-0.55 0.35,-0.5 0.35,-0.55 0.35,-0.5 0.35,-0.55 0.35,-0.5 0.4,-0.55 0.4,-0.55 0.4,-0.5 0.4,-0.55 0.45,-0.5 0.4,-0.55 0.45,-0.5 0.45,-0.55 0.5,-0.5 0.45,-0.55 0.5,-0.5 0.5,-0.55 0.5,-0.5 0.55,-0.55 0.5,-0.5 0.5,-0.55 0.45,-0.5 0.5,-0.5 0.4,-0.5 0.45,-0.5 0.4,-0.5 0.35,-0.5 0.4,-0.45 0.3,-0.5 0.35,-0.45 0.3,-0.45 0.3,-0.45 0.25,-0.45 0.25,-0.45 0.2,-0.45 0.25,-0.4 0.15,-0.45 0.2,-0.4 0.15,-0.4 0.1,-0.45 0.15,-0.4 0.15,-0.75 0.1,-0.75 0.05,-0.75 -0.05,-0.75 -0.15,-0.65 -0.2,-0.7 -0.25,-0.65 -0.35,-0.6 -0.45,-0.6 -0.45,-0.6 -0.6,-0.55 -0.6,-0.55 -0.7,-0.5 -0.8,-0.5 -0.4,-0.25 -0.4,-0.25 -0.45,-0.2 -0.5,-0.25 -0.45,-0.2 -0.5,-0.25 -0.55,-0.2 -0.5,-0.2 -0.55,-0.2 -0.6,-0.2 -0.55,-0.2 -0.6,-0.15 -0.65,-0.2 -0.6,-0.2 -0.55,-0.1 -0.55,-0.1 -0.5,-0.15 -0.55,-0.1 -0.55,-0.1 -0.55,-0.1 -0.6,-0.1 -0.55,-0.1 -0.55,-0.1 -0.6,-0.1 -0.6,-0.1 -0.6,-0.1 -0.65,-0.05 -0.6,-0.1 -0.65,-0.1 -0.65,-0.1 -0.65,-0.05 -0.7,-0.1 -0.7,-0.1 -0.7,-0.1 -0.7,-0.05 -0.75,-0.1 -0.75,-0.1 -0.8,-0.05 -0.75,-0.1 -0.4,-0.05 -0.45,-0.05 -0.4,-0.05 h -0.4 l -0.4,-0.05 -0.45,-0.05 -0.4,-0.05 -0.45,-0.05 -0.45,-0.05 -0.45,-0.05 -0.45,-0.05 -0.45,-0.05 -0.45,-0.05 -0.45,-0.05 h -0.35 -0.5 -0.7 -0.45 -0.45 l -0.45,-0.05 h -0.5 -0.55 -0.55 l -0.55,-0.05 h -0.6 -0.55 l -0.6,-0.05 h -0.55 -0.6 -0.55 l -0.55,-0.05 h -0.5 -0.5 -0.45 l -0.45,-0.05 h -0.8 -0.55 l -0.5,-0.05 h -0.7 l -0.7,-0.05 -0.75,-0.05 h -0.75 l -0.75,-0.05 -0.8,-0.05 h -0.75 l -0.45,-0.05 h -0.4 -0.4 l -0.4,-0.05 h -0.45 l -0.4,-0.05 h -0.45 -0.4 l -0.45,-0.05 H 221.4 221 l -0.45,-0.05 h -0.45 -0.45 l -0.45,-0.05 h -0.45 -0.45 L 217.85,334 h -0.5 -0.45 l -0.45,-0.05 h -0.5 -0.45 -0.45 l -0.5,-0.05 h -0.45 -0.5 -0.45 l -0.5,-0.05 h -0.5 -0.45 -0.5 l -0.5,-0.05 h -0.45 -0.5 -0.5 -0.5 l -0.45,-0.05 h -0.5 -0.5 -0.5 -0.45 -0.5 -0.5 -0.5 -0.5 -0.45 -0.5 -0.5 l -0.5,-0.05 -0.5,0.05 h -0.45 -0.5 -0.5 -0.5 -0.45 -0.5 -0.5 -0.45 -0.5 -0.45 l -0.5,0.05 h -0.45 -0.5 -0.45 l -0.5,0.05 h -0.45 -0.45 -0.5 l -0.45,0.05 h -0.45 l -0.45,0.05 h -0.45 -0.45 L 190.6,334 h -0.45 l -0.45,0.05 h -0.45 l -0.45,0.05 h -0.4 l -0.45,0.05 -0.45,0.05 h -0.4 l -0.45,0.05 -0.4,0.05 h -0.4 l -0.4,0.05 -0.4,0.05 -0.8,0.05 -0.8,0.1 -0.75,0.1 -0.75,0.1 -0.75,0.1 -0.7,0.1 -0.7,0.1 -0.65,0.15 -0.65,0.1 -0.65,0.15 -0.6,0.15 -0.55,0.1 -0.55,0.15 0.65,-0.7 0.35,-0.45 0.3,-0.55 0.3,-0.55 0.3,-0.6 0.25,-0.65 0.25,-0.7 0.2,-0.75 0.2,-0.8 0.1,-0.4 0.1,-0.4 0.1,-0.4 0.05,-0.45 0.05,-0.4 0.05,-0.45 0.05,-0.45 0.05,-0.45 0.05,-0.45 v -0.45 -0.45 l 0.05,-0.5 -0.05,-0.55 v -0.55 -0.55 l -0.05,-0.5 -0.05,-0.55 -0.05,-0.5 -0.1,-0.55 -0.05,-0.5 -0.1,-0.5 -0.1,-0.45 -0.1,-0.5 -0.1,-0.45 -0.15,-0.45 -0.15,-0.4 -0.1,-0.45 -0.15,-0.4 -0.35,-0.75 -0.35,-0.7 -0.4,-0.65 -0.4,-0.55 -0.45,-0.5 -0.45,-0.4 -0.5,-0.35 -0.5,-0.25 0.65,-0.1 0.65,-0.1 0.7,-0.15 0.7,-0.1 0.7,-0.1 0.7,-0.1 0.7,-0.1 0.7,-0.05 0.75,-0.1 0.75,-0.1 0.75,-0.05 0.75,-0.1 0.75,-0.05 0.75,-0.05 0.8,-0.1 0.8,-0.05 0.75,-0.05 h 0.4 l 0.4,-0.05 h 0.4 l 0.45,-0.05 h 0.4 l 0.4,-0.05 h 0.4 0.4 l 0.45,-0.05 h 0.4 0.4 l 0.45,-0.05 h 0.4 0.45 l 0.4,-0.05 h 0.45 0.4 0.45 l 0.4,-0.05 h 0.45 0.45 0.4 0.45 0.45 0.45 l 0.45,-0.05 h 0.45 0.4 0.45 0.45 0.45 0.45 0.5 0.45 0.45 0.45 0.45 0.45 0.5 0.45 0.45 l 0.5,0.05 h 0.45 0.5 0.45 0.45 0.5 0.45 l 0.5,0.05 h 0.5 0.45 0.5 0.5 l 0.45,0.05 h 0.5 0.5 0.5 l 0.45,0.05 h 0.5 0.5 0.5 l 0.5,0.05 h 0.5 0.5 l 0.5,0.05 h 0.5 0.5 l 0.5,0.05 h 0.5 0.5 l 0.5,0.05 h 0.55 0.5 l 0.5,0.05 h 0.5 l 0.55,0.05 h 0.5 0.5 l 0.55,0.05 h 0.5 l 0.5,0.05 h 0.55 l 0.5,0.05 h 0.55 0.5 l 0.55,0.05 h 0.5 l 0.55,0.05 h 0.5 l 0.55,0.05 h 0.55 l 0.5,0.05 h 0.55 0.55 l 0.55,0.05 0.6,0.05 h 0.55 L 234,312 h 0.5 l 0.5,0.05 h 0.5 l 0.45,0.05 h 0.45 l 0.45,0.05 h 0.45 l 0.4,0.05 h 0.75 l 0.7,0.05 0.65,0.05 h 0.6 l 0.55,0.05 h 0.5 l 0.45,0.05 h 0.4 l 0.65,0.05 h 0.55 l 0.4,0.05 h 0.45 0.25 0.6 l 0.45,0.05 0.5,0.05 0.5,0.05 h 0.5 l 0.45,0.05 0.5,0.05 0.5,0.05 0.45,0.05 h 0.45 l 0.5,0.05 0.45,0.05 0.45,0.05 0.45,0.05 0.45,0.05 0.45,0.05 0.45,0.05 0.45,0.05 0.4,0.05 0.45,0.05 0.45,0.05 0.4,0.1 0.45,0.05 0.4,0.05 0.4,0.05 0.45,0.05 0.4,0.05 0.4,0.05 0.4,0.1 0.8,0.1 0.8,0.15 0.75,0.1 0.75,0.15 0.75,0.1 0.75,0.15 0.7,0.15 0.7,0.1 0.7,0.15 0.7,0.15 0.65,0.1 0.65,0.15 0.65,0.1 0.65,0.15 0.6,0.15 0.65,0.1 0.6,0.15 0.6,0.1 0.55,0.15 0.55,0.1 0.5,0.1 0.55,0.1 0.55,0.1 0.5,0.1 0.55,0.1 0.5,0.1 0.5,0.1 0.55,0.1 0.5,0.1 0.5,0.05 0.5,0.1 0.5,0.1 0.45,0.05 0.5,0.1 0.5,0.05 0.5,0.1 0.45,0.05 0.5,0.1 0.5,0.05 0.45,0.05 0.5,0.05 0.5,0.05 0.45,0.05 0.5,0.05 0.5,0.05 h 0.45 l 0.5,0.05 h 0.5 l 0.45,0.05 h 0.5 0.5 0.5 0.5 0.5 0.5 l 0.5,-0.05 h 0.5 l 0.55,-0.05 h 0.5 l 0.55,-0.05 0.5,-0.05 0.55,-0.05 0.55,-0.1 0.55,-0.05 0.55,-0.1 0.55,-0.05 0.55,-0.1 0.6,-0.1 0.55,-0.1 0.6,-0.1 0.6,-0.15 0.6,-0.1 0.6,-0.15 0.65,-0.15 0.6,-0.15 0.65,-0.15 0.65,-0.2 0.65,-0.15 0.65,-0.2 0.7,-0.2 0.7,-0.2 0.7,-0.25 0.65,-0.2 0.4,-0.15 0.45,-0.2 0.5,-0.2 0.5,-0.2 0.6,-0.2 0.55,-0.25 0.6,-0.25 0.65,-0.25 0.65,-0.3 0.65,-0.25 0.65,-0.3 0.65,-0.3 0.7,-0.3 0.65,-0.3 0.7,-0.25 0.65,-0.3 0.65,-0.3 0.65,-0.3 0.6,-0.25 0.6,-0.3 0.6,-0.25 0.55,-0.25 0.5,-0.25 0.5,-0.2 0.45,-0.2 0.4,-0.2 0.65,-0.35 0.5,-0.25 0.75,-0.3 0.75,-0.3 0.75,-0.3 0.8,-0.25 0.75,-0.3 0.8,-0.25 0.75,-0.25 0.8,-0.25 0.8,-0.25 0.75,-0.25 0.8,-0.2 0.8,-0.25 0.8,-0.2 0.8,-0.2 0.8,-0.2 0.4,-0.05 0.4,-0.1 0.4,-0.1 0.4,-0.05 0.4,-0.1 0.4,-0.1 0.4,-0.05 0.4,-0.1 0.4,-0.05 0.45,-0.05 0.4,-0.1 0.4,-0.05 0.4,-0.05 0.45,-0.05 0.4,-0.05 0.4,-0.05 0.45,-0.05 0.4,-0.05 0.4,-0.05 0.45,-0.05 0.4,-0.05 h 0.45 l 0.4,-0.05 0.45,-0.05 h 0.4 l 0.45,-0.05 h 0.45 0.4 l 0.45,-0.05 h 0.4 0.45 0.45 0.45 l 0.45,-0.05 h 0.25 0.75 l 0.5,-0.05 h 0.55 l 0.65,-0.05 h 0.65 0.7 l 0.7,-0.05 h 0.7 l 0.7,0.05 h 0.65 0.6 l 0.55,0.05 0.45,0.05 0.4,0.15 0.4,0.1 0.8,0.2 0.75,0.1 0.8,0.05 h 0.4 l 0.4,-0.05 0.45,-0.05 0.4,-0.1 0.45,-0.15 0.4,-0.15 0.45,-0.2 0.5,-0.25 0.2,-0.15 0.65,-0.4 0.4,-0.25 0.5,-0.35 0.5,-0.3 0.55,-0.35 0.5,-0.35 0.5,-0.3 0.5,-0.35 0.4,-0.25 0.65,-0.4 0.25,-0.2 0.55,-0.35 0.6,-0.35 0.6,-0.4 0.55,-0.35 0.6,-0.4 0.6,-0.35 0.6,-0.35 0.6,-0.35 0.6,-0.35 0.6,-0.35 0.65,-0.35 0.6,-0.3 0.65,-0.3 0.65,-0.3 0.65,-0.3 0.7,-0.3 0.7,-0.25 0.7,-0.25 0.7,-0.25 0.75,-0.25 0.75,-0.2 0.75,-0.2 0.8,-0.15 0.4,-0.1 0.4,-0.05 0.45,-0.1 0.4,-0.05 0.45,-0.05 0.4,-0.05 0.45,-0.05 0.45,-0.05 0.45,-0.05 0.45,-0.05 h 0.45 l 0.45,-0.05 h 0.5 l 0.5,-0.05 h 0.45 0.5 0.5 0.55 l 0.2,0.05 0.65,0.1 0.4,0.05 0.5,0.05 0.5,0.05 0.55,0.05 0.5,0.1 0.5,0.05 0.5,0.05 0.4,0.05 0.65,0.1 h 0.25 l 0.45,0.05 0.45,0.05 h 0.4 l 0.45,0.05 0.75,0.05 h 0.8 l 0.7,0.05 0.7,-0.05 h 0.65 l 0.65,-0.05 0.65,-0.1 0.65,-0.15 0.65,-0.2 0.65,-0.2 0.65,-0.3 0.75,-0.3 0.75,-0.4 0.8,-0.5 0.45,-0.35 0.5,-0.4 0.55,-0.35 0.55,-0.4 0.5,-0.45 0.55,-0.4 0.5,-0.5 0.5,-0.5 0.5,-0.5 0.55,-0.5 0.55,-0.5 0.6,-0.5 0.6,-0.5 0.65,-0.5 0.65,-0.5 0.7,-0.45 0.7,-0.45 0.7,-0.45 0.75,-0.45 0.8,-0.4 0.4,-0.15 0.4,-0.2 0.45,-0.2 0.4,-0.15 0.45,-0.15 0.45,-0.15 0.45,-0.15 0.5,-0.15 h 0.3 l -0.5,0.35 -0.4,0.5 -0.35,0.65 -0.35,0.75 -0.15,0.45 -0.1,0.45 -0.1,0.45 -0.1,0.45 -0.1,0.5 -0.05,0.5 v 0.5 0.45 0.7 l 0.05,0.65 0.05,0.6 0.1,0.6 0.1,0.55 0.15,0.55 0.15,0.45 0.2,0.45 0.4,0.8 0.5,0.55 0.5,0.35 0.6,0.1 -0.6,0.4 -0.6,0.4 -0.55,0.4 -0.6,0.4 -0.6,0.45 -0.55,0.5 -0.6,0.55 -0.55,0.55 -0.75,0.65 -0.7,0.65 -0.7,0.6 -0.75,0.6 -0.75,0.6 -0.75,0.55 -0.75,0.55 -0.4,0.25 -0.4,0.25 -0.7,0.45 -0.7,0.4 -0.7,0.35 -0.65,0.35 -0.65,0.3 -0.65,0.25 -0.6,0.25 -0.6,0.25 -0.65,0.2 -0.6,0.2 -0.55,0.15 -0.6,0.15 -0.6,0.15 -0.55,0.1 -0.55,0.1 -0.55,0.05 -0.55,0.1 -0.55,0.05 h -0.55 l -0.5,0.05 h -0.55 -0.5 -0.5 -0.55 -0.5 l -0.5,-0.05 h -0.5 L 397.8,304 h -0.5 l -0.5,-0.05 -0.5,-0.05 -0.5,-0.05 -0.5,-0.05 -0.45,-0.05 -0.45,-0.05 -0.35,-0.05 -0.75,-0.1 -0.6,-0.05 -0.5,-0.05 -0.45,-0.05 -0.6,-0.1 -0.65,-0.1 h -0.65 -0.6 -0.6 -0.6 l -0.55,0.05 -0.55,0.05 -0.55,0.05 -0.5,0.1 -0.5,0.1 -0.5,0.1 -0.5,0.1 -0.45,0.15 -0.5,0.1 -0.45,0.15 -0.45,0.2 -0.45,0.15 -0.45,0.2 -0.45,0.2 -0.45,0.2 -0.4,0.2 -0.45,0.25 -0.45,0.2 -0.45,0.25 -0.4,0.25 -0.45,0.25 -0.45,0.3 -0.45,0.25 -0.45,0.3 -0.5,0.25 -0.45,0.3 -0.5,0.3 -0.45,0.3 -0.8,0.65 -0.25,0.5 0.15,0.5 0.45,0.4 0.7,0.35 0.75,0.25 0.8,0.25 0.7,0.1 0.4,0.1 0.4,0.1 0.4,0.1 0.4,0.1 0.4,0.1 0.4,0.1 0.4,0.1 0.45,0.1 0.4,0.1 0.4,0.15 0.45,0.1 0.4,0.1 0.4,0.1 0.45,0.1 0.4,0.1 0.45,0.1 0.4,0.15 0.4,0.1 0.45,0.1 0.4,0.1 0.45,0.15 0.45,0.1 0.4,0.1 0.45,0.1 0.4,0.15 0.45,0.1 0.45,0.1 0.4,0.1 0.45,0.15 0.45,0.1 0.4,0.1 0.45,0.1 0.45,0.15 0.4,0.1 0.45,0.1 0.45,0.1 0.45,0.1 0.4,0.15 0.45,0.1 0.45,0.1 0.45,0.1 0.4,0.1 0.45,0.1 0.45,0.1 0.45,0.1 0.4,0.15 0.45,0.1 0.45,0.1 0.45,0.05 0.45,0.1 0.4,0.1 0.45,0.1 0.45,0.1 0.45,0.1 0.45,0.1 0.4,0.1 0.45,0.05 0.45,0.1 0.45,0.1 0.45,0.05 0.4,0.1 0.45,0.05 0.45,0.1 0.45,0.05 0.4,0.1 0.45,0.05 0.45,0.1 0.45,0.05 0.4,0.05 0.45,0.05 0.45,0.05 0.4,0.05 0.45,0.1 0.45,0.05 h 0.4 l 0.45,0.05 0.4,0.05 0.45,0.05 0.45,0.05 h 0.4 l 0.45,0.05 h 0.4 l 0.45,0.05 h 0.4 l 0.45,0.05 h 0.4 0.45 0.4 0.4 0.45 0.4 0.4 0.45 0.4 l 0.4,-0.05 h 0.4 l 0.4,-0.05 h 0.45 l 0.4,-0.05 0.4,-0.05 0.4,-0.05 0.4,-0.05 0.8,-0.1 0.8,-0.1 0.8,-0.15 0.75,-0.15 0.8,-0.2 0.75,-0.2 0.75,-0.2 0.75,-0.25 0.75,-0.25 0.75,-0.3 0.7,-0.3 0.7,-0.35 0.75,-0.35 h 0.35 l 0.65,-0.3 0.7,-0.3 0.7,-0.3 0.7,-0.35 0.7,-0.3 0.65,-0.3 0.7,-0.3 0.7,-0.3 0.7,-0.3 0.65,-0.3 0.7,-0.3 0.7,-0.25 0.65,-0.3 0.7,-0.3 0.65,-0.25 0.7,-0.3 0.65,-0.25 0.7,-0.3 0.65,-0.25 0.7,-0.3 0.65,-0.25 0.7,-0.25 0.65,-0.25 0.7,-0.25 0.65,-0.25 0.65,-0.25 0.7,-0.25 0.65,-0.25 0.7,-0.25 0.65,-0.25 0.65,-0.2 0.65,-0.25 0.7,-0.25 0.65,-0.2 0.65,-0.25 0.65,-0.2 0.7,-0.2 0.65,-0.25 0.65,-0.2 0.65,-0.2 0.7,-0.2 0.65,-0.2 0.65,-0.2 0.65,-0.2 0.65,-0.2 0.65,-0.2 0.65,-0.2 0.7,-0.2 0.65,-0.15 0.65,-0.2 0.65,-0.15 0.65,-0.2 0.65,-0.15 0.65,-0.15 0.65,-0.2 0.65,-0.15 0.65,-0.15 0.65,-0.15 0.65,-0.15 0.65,-0.15 0.7,-0.15 0.65,-0.15 0.65,-0.15 0.65,-0.15 0.65,-0.1 0.65,-0.15 0.65,-0.1 0.65,-0.15 0.65,-0.1 0.65,-0.15 0.65,-0.1 0.65,-0.1 0.65,-0.1 0.65,-0.1 0.65,-0.1 0.65,-0.1 0.65,-0.1 0.65,-0.1 0.65,-0.1 0.65,-0.1 0.65,-0.05 0.65,-0.1 0.65,-0.05 0.65,-0.1 0.7,-0.05 0.65,-0.05 0.65,-0.1 0.65,-0.05 0.65,-0.05 0.65,-0.05 0.65,-0.05 0.65,-0.05 0.65,-0.05 0.65,-0.05 h 0.7 l 0.65,-0.05 0.65,-0.05 h 0.65 l 0.65,-0.05 h 0.65 0.7 l 0.65,-0.05 h 0.65 0.65 0.7 0.65 0.65 0.65 0.7 l 0.65,0.05 h 0.65 0.7 l 0.65,0.05 h 0.65 l 0.7,0.05 0.65,0.05 h 0.7 l 0.65,0.05 0.7,0.05 0.65,0.05 0.7,0.05 0.65,0.05 0.7,0.1 0.65,0.05 0.7,0.05 0.65,0.1 0.7,0.05 0.7,0.05 0.5,0.1 0.45,0.15 0.45,0.2 0.4,0.3 0.7,0.8 0.3,0.45 0.3,0.5 0.2,0.55 0.2,0.6 0.15,0.6 0.1,0.6 0.1,0.65 v 0.65 0.65 l -0.05,0.65 -0.05,0.65 -0.15,0.65 -0.15,0.6 -0.25,0.55 -0.25,0.55 -0.3,0.55 -0.35,0.45 -0.4,0.4 -0.4,0.35 -0.5,0.3 -0.5,0.25 -0.6,0.15 -0.6,0.1 -0.7,-0.05 -0.7,-0.1 -0.75,-0.2 -0.6,-0.05 -0.6,-0.05 -0.6,-0.05 -0.6,-0.1 -0.6,-0.05 -0.6,-0.05 h -0.6 l -0.6,-0.05 -0.6,-0.05 -0.6,-0.05 h -0.6 l -0.55,-0.05 h -0.6 l -0.6,-0.05 h -0.6 -0.6 -0.55 l -0.6,-0.05 H 502 l -0.6,0.05 h -0.55 -0.6 -0.6 -0.6 l -0.55,0.05 h -0.6 l -0.6,0.05 h -0.55 l -0.6,0.05 -0.6,0.05 -0.55,0.05 -0.6,0.05 -0.6,0.05 -0.55,0.05 -0.6,0.05 -0.6,0.05 -0.55,0.05 -0.6,0.05 -0.55,0.1 -0.6,0.05 -0.6,0.05 -0.55,0.1 -0.6,0.1 -0.6,0.05 -0.55,0.1 -0.6,0.1 -0.55,0.1 -0.6,0.1 -0.55,0.1 -0.6,0.1 -0.6,0.1 -0.55,0.1 -0.6,0.1 -0.55,0.1 -0.6,0.15 -0.6,0.1 -0.55,0.15 -0.6,0.1 -0.55,0.15 -0.6,0.1 -0.6,0.15 -0.55,0.15 -0.6,0.15 -0.55,0.1 -0.6,0.15 -0.6,0.15 -0.55,0.15 -0.6,0.15 -0.55,0.2 -0.6,0.15 -0.6,0.15 -0.55,0.15 -0.6,0.2 -0.6,0.15 -0.55,0.15 -0.6,0.2 -0.6,0.2 -0.55,0.15 -0.6,0.2 -0.6,0.2 -0.55,0.15 -0.6,0.2 -0.6,0.2 -0.6,0.2 -0.55,0.2 -0.6,0.2 -0.6,0.2 -0.6,0.2 -0.55,0.2 -0.6,0.2 -0.6,0.25 -0.6,0.2 -0.6,0.2 -0.6,0.25 -0.55,0.2 -0.6,0.25 -0.6,0.2 -0.6,0.25 -0.6,0.2 -0.6,0.25 -0.6,0.25 -0.6,0.25 -0.6,0.2 -0.6,0.25 -0.6,0.25 -0.6,0.25 -0.6,0.25 -0.6,0.25 -0.6,0.25 -0.6,0.25 -0.6,0.25 -0.6,0.3 -0.6,0.25 -0.6,0.25 -0.65,0.25 -0.6,0.3 -0.6,0.25 -0.6,0.25 -0.6,0.3 -0.65,0.25 -0.6,0.3 -0.6,0.25 -0.65,0.3 -0.6,0.3 -0.6,0.25 -0.65,0.3 -0.6,0.3 -0.6,0.25 -0.45,0.2 -0.4,0.2 -0.4,0.2 -0.4,0.15 -0.45,0.2 -0.4,0.15 -0.4,0.2 -0.4,0.15 -0.45,0.2 -0.4,0.15 -0.4,0.15 -0.4,0.2 -0.4,0.15 -0.45,0.15 -0.4,0.15 -0.4,0.15 -0.4,0.15 -0.4,0.15 -0.45,0.15 -0.4,0.15 -0.4,0.1 -0.4,0.15 -0.4,0.1 -0.45,0.15 -0.4,0.1 -0.4,0.15 -0.4,0.1 -0.45,0.1 -0.4,0.15 -0.4,0.1 -0.4,0.1 -0.4,0.05 -0.6,0.2 -0.5,0.25 -0.45,0.35 -0.3,0.5 -0.2,0.6 -0.05,0.7 0.05,0.35 0.1,0.45 0.15,0.45 0.25,0.45 0.15,0.45 0.2,0.45 0.15,0.4 0.2,0.45 0.15,0.4 0.2,0.4 0.15,0.45 0.2,0.4 0.15,0.45 0.2,0.4 0.15,0.45 0.2,0.45 0.15,0.45 0.2,0.45 0.15,0.5 0.2,0.45 0.3,0.8 0.2,0.6 0.3,0.7 0.15,0.25 0.2,0.55 0.15,0.55 0.2,0.5 0.2,0.45 0.2,0.45 0.15,0.45 0.2,0.4 0.15,0.4 0.35,0.75 0.4,0.7 0.35,0.65 0.4,0.6 0.45,0.6 0.45,0.55 0.5,0.6 0.55,0.55 0.6,0.6 0.7,0.65 0.75,0.65 0.4,0.35 0.45,0.35 0.55,0.6 0.1,0.05 0.75,0.7 0.4,0.4 0.45,0.4 0.45,0.4 0.45,0.45 0.45,0.5 0.5,0.5 0.45,0.55 0.5,0.55 0.5,0.55 0.45,0.65 0.45,0.6 0.45,0.65 0.4,0.7 0.45,0.7 0.35,0.75 0.35,0.8 0.35,0.75 0.15,0.45 0.15,0.4 0.1,0.4 0.15,0.45 0.1,0.4 0.1,0.45 0.1,0.45 0.05,0.45 0.1,0.45 0.05,0.5 0.05,0.45 v 0.5 l 0.05,0.5 v 0.45 l -0.05,0.5 v 0.55 l -0.05,0.5 -0.05,0.5 -0.1,0.55 -0.05,0.55 -0.15,0.5 -0.1,0.55 -0.15,0.55 -0.15,0.6 -0.2,0.55 -0.15,0.55 -0.55,0.75 -0.6,0.4 -0.65,0.1 -0.6,-0.2 -0.5,-0.35 -0.3,-0.6 -0.1,-0.8 0.05,-0.45 0.15,-0.5"
         fill="#e2001a"
         id="path76" />
    </g>
    <g
       clip-path="url(#F)"
       class="B"
       id="g82">
      <path
         d="m 324.25,374.9 -0.5,-0.75 -0.5,-0.7 -0.5,-0.7 -0.5,-0.7 -0.5,-0.65 -0.5,-0.65 -0.5,-0.6 -0.5,-0.55 -0.5,-0.6 -0.5,-0.55 -0.55,-0.5 -0.5,-0.5 -0.5,-0.5 -0.5,-0.45 -0.55,-0.45 -0.5,-0.45 -0.5,-0.4 -0.55,-0.4 -0.5,-0.35 -0.5,-0.35 -0.5,-0.35 -0.55,-0.35 -0.5,-0.3 -0.5,-0.3 -0.5,-0.3 -0.5,-0.3 -0.5,-0.25 -0.5,-0.25 -0.5,-0.25 -0.5,-0.2 -0.5,-0.25 -0.45,-0.2 -0.5,-0.2 -0.5,-0.2 -0.45,-0.2 -0.45,-0.15 -0.5,-0.2 -0.45,-0.15 -0.45,-0.15 -0.45,-0.15 -0.4,-0.15 -0.45,-0.15 -0.45,-0.15 -0.4,-0.15 -0.4,-0.1 -0.4,-0.15 -0.8,-0.25 -0.75,-0.3 -0.7,-0.25 -0.7,-0.25 -0.65,-0.3 -0.6,-0.25 -0.55,-0.35 -0.5,-0.3 -0.45,-0.4 -0.45,-0.4 -0.4,-0.4 -0.4,-0.4 -0.35,-0.4 -0.35,-0.4 -0.3,-0.45 -0.3,-0.4 -0.25,-0.4 -0.25,-0.4 -0.2,-0.45 -0.2,-0.4 -0.15,-0.4 -0.1,-0.4 -0.1,-0.45 -0.05,-0.4 -0.05,-0.4 v -0.4 -0.4 l 0.15,-0.8 0.25,-0.8 0.45,-0.75 0.5,-0.75 0.7,-0.75 0.4,-0.35 0.45,-0.4 0.45,-0.35 0.55,-0.35 -0.2,0.5 -0.15,0.5 -0.1,0.45 -0.1,0.45 -0.1,0.45 -0.05,0.4 -0.05,0.45 v 0.35 l 0.05,0.8 0.15,0.7 0.25,0.65 0.4,0.65 0.45,0.6 0.6,0.6 0.75,0.55 0.4,0.3 0.45,0.25 0.45,0.25 0.5,0.25 0.55,0.25 0.6,0.3 0.6,0.25 0.65,0.25 0.65,0.25 0.75,0.2 0.7,0.25 0.75,0.25 0.8,0.2 0.4,0.15 0.4,0.1 0.45,0.15 0.4,0.1 0.45,0.15 0.45,0.15 0.4,0.15 0.45,0.1 0.5,0.15 0.45,0.2 0.45,0.15 0.5,0.15 0.45,0.15 0.5,0.2 0.45,0.15 0.5,0.2 0.5,0.2 0.5,0.2 0.5,0.2 0.5,0.2 0.5,0.25 0.5,0.2 0.5,0.25 0.5,0.25 0.5,0.25 0.5,0.25 0.55,0.3 0.5,0.25 0.5,0.3 0.5,0.3 0.5,0.3 0.55,0.35 0.5,0.3 0.5,0.35 0.5,0.35 0.5,0.35 0.5,0.35 0.5,0.4 0.5,0.4 0.5,0.4 0.5,0.4 0.45,0.45 0.5,0.45 0.5,0.45 0.45,0.45 0.5,0.5 0.45,0.5 0.45,0.5 0.5,0.55 0.45,0.5 0.45,0.55 0.4,0.6 0.45,0.6 0.45,0.55 0.4,0.65 0.4,0.6 0.45,0.65 0.4,0.65 0.4,0.75 0.35,0.75 0.35,0.75 0.35,0.75 0.25,0.8 0.25,0.75 0.25,0.8 0.2,0.75 0.2,0.8 0.15,0.75 0.1,0.8 0.1,0.8 0.1,0.8 0.05,0.8 0.05,0.8 v 0.8 0.8 l -0.05,0.8 -0.05,0.8 -0.05,0.8 -0.1,0.8 -0.1,0.75 -0.15,0.8 -0.15,0.8 -0.15,0.8 -0.15,0.75 -0.2,0.8 -0.2,0.75 -0.25,0.75 -0.2,0.8 -0.25,0.75 -0.25,0.7 -0.3,0.75 -0.25,0.75 -0.3,0.7 -0.3,0.75 -0.3,0.7 -0.35,0.7 -0.3,0.65 -0.35,0.7 -0.35,0.65 -0.35,0.65 -0.35,0.65 -0.35,0.6 -0.35,0.65 -0.35,0.6 -0.35,0.55 -0.4,0.6 -0.35,0.55 -0.35,0.55 -0.4,0.5 -0.35,0.5 -0.35,0.5 -0.35,0.5 -0.4,0.45 -0.35,0.45 -0.35,0.4 -0.35,0.4 -0.7,0.75 -0.65,0.65 -0.6,0.55 0.25,-0.4 0.3,-0.4 0.25,-0.45 0.25,-0.45 0.3,-0.45 0.25,-0.45 0.25,-0.5 0.25,-0.45 0.25,-0.5 0.25,-0.5 0.25,-0.5 0.25,-0.55 0.25,-0.55 0.2,-0.5 0.25,-0.55 0.2,-0.55 0.2,-0.6 0.25,-0.55 0.15,-0.6 0.2,-0.6 0.2,-0.6 0.15,-0.6 0.2,-0.6 0.15,-0.6 0.15,-0.65 0.1,-0.6 0.15,-0.65 0.1,-0.65 0.15,-0.65 0.1,-0.65 0.05,-0.7 0.1,-0.65 0.05,-0.65 0.05,-0.7 0.05,-0.7 v -0.65 l 0.05,-0.7 v -0.7 l -0.05,-0.7 v -0.7 l -0.05,-0.75 -0.05,-0.7 -0.1,-0.7 -0.05,-0.75 -0.1,-0.7 -0.15,-0.75 -0.1,-0.7 -0.15,-0.75 -0.2,-0.75 -0.15,-0.7 -0.2,-0.75 -0.25,-0.75 -0.25,-0.75 -0.25,-0.75 -0.25,-0.75 -0.3,-0.75 -0.3,-0.7 -0.35,-0.75 -0.35,-0.75 -0.35,-0.75 -0.4,-0.75 -0.45,-0.75 -0.4,-0.75 -0.45,-0.8"
         id="path80" />
    </g>
    <g
       clip-path="url(#G)"
       id="g86">
      <path
         d="m 221.7,327.5 0.65,0.05 h 0.7 0.65 l 0.65,0.05 h 0.7 0.6 l 0.65,0.05 h 0.65 0.65 l 0.6,0.05 h 0.6 l 0.65,0.05 h 0.6 0.6 l 0.6,0.05 h 0.55 l 0.6,0.05 h 0.6 0.55 l 0.6,0.05 h 0.55 l 0.55,0.05 h 0.55 l 0.55,0.05 h 0.55 l 0.55,0.05 H 238 l 0.55,0.05 0.55,0.05 h 0.55 l 0.5,0.05 0.55,0.05 h 0.55 l 0.5,0.05 0.55,0.05 0.5,0.05 h 0.55 l 0.5,0.05 0.55,0.05 0.5,0.05 0.5,0.05 0.55,0.05 0.5,0.05 0.5,0.05 0.55,0.05 0.5,0.05 0.55,0.05 0.5,0.05 0.55,0.1 0.5,0.05 0.5,0.05 0.55,0.05 0.5,0.1 0.55,0.05 0.55,0.1 0.5,0.05 0.55,0.1 0.55,0.05 0.55,0.1 0.5,0.05 0.55,0.1 0.55,0.1 0.55,0.1 0.6,0.05 0.55,0.1 0.55,0.1 0.5,0.1 0.55,0.1 0.55,0.1 0.5,0.15 0.55,0.1 0.5,0.1 0.5,0.1 0.5,0.15 0.5,0.1 0.5,0.1 0.5,0.15 0.45,0.15 0.5,0.1 0.45,0.15 0.45,0.15 0.5,0.15 0.4,0.15 0.45,0.15 0.45,0.15 0.4,0.15 0.45,0.15 0.4,0.15 0.4,0.2 0.4,0.15 0.8,0.4 0.75,0.35 0.7,0.4 0.65,0.45 0.65,0.45 0.65,0.45 0.55,0.5 0.55,0.5 0.5,0.55 0.5,0.6 0.4,0.55 0.4,0.65 0.4,0.65 0.3,0.65 0.3,0.7 0.2,0.75 0.2,0.75 0.15,0.8 0.1,0.4 0.05,0.4 -0.25,-0.75 -0.4,-0.75 -0.45,-0.75 -0.65,-0.75 -0.75,-0.75 -0.4,-0.35 -0.5,-0.4 -0.45,-0.35 -0.55,-0.35 -0.55,-0.35 -0.6,-0.35 -0.6,-0.35 -0.7,-0.35 -0.65,-0.3 -0.75,-0.35 -0.75,-0.3 -0.8,-0.3 -0.4,-0.15 -0.45,-0.15 -0.4,-0.15 -0.45,-0.15 -0.45,-0.1 -0.45,-0.15 -0.45,-0.15 -0.5,-0.1 -0.5,-0.15 -0.45,-0.15 -0.5,-0.1 -0.55,-0.1 -0.5,-0.15 -0.5,-0.1 -0.55,-0.1 -0.55,-0.1 -0.55,-0.15 -0.55,-0.1 -0.6,-0.1 -0.55,-0.1 -0.6,-0.05 -0.6,-0.1 -0.55,-0.1 -0.6,-0.1 -0.55,-0.05 -0.55,-0.1 -0.55,-0.05 -0.6,-0.1 -0.55,-0.05 -0.55,-0.1 -0.55,-0.05 -0.55,-0.1 -0.5,-0.05 -0.55,-0.05 -0.55,-0.1 -0.55,-0.05 -0.5,-0.05 -0.55,-0.05 -0.55,-0.05 -0.5,-0.1 -0.55,-0.05 -0.55,-0.05 -0.5,-0.05 -0.55,-0.05 -0.5,-0.05 -0.55,-0.05 -0.55,-0.05 h -0.5 l -0.55,-0.05 -0.5,-0.05 -0.55,-0.05 -0.55,-0.05 -0.5,-0.05 -0.55,-0.05 h -0.55 l -0.55,-0.05 -0.55,-0.05 -0.55,-0.05 -0.5,-0.05 h -0.55 l -0.6,-0.05 -0.55,-0.05 -0.55,-0.05 h -0.55 l -0.55,-0.05 -0.6,-0.05 -0.55,-0.05 h -0.6 l -0.6,-0.05 -0.55,-0.05 -0.6,-0.05 h -0.6 l -0.6,-0.05 -0.6,-0.05 -0.65,-0.05 -0.6,-0.05 h -0.6 l -0.65,-0.05 -0.65,-0.05 -0.65,-0.05 -0.65,-0.05 -0.65,-0.05 -0.65,-0.05 -0.65,-0.05 h -0.7 l -0.65,-0.05 -0.7,-0.05 -0.65,-0.05 -0.65,-0.05 h -0.7 l -0.65,-0.05 h -0.65 l -0.65,-0.05 -0.7,-0.05 h -0.65 -0.65 l -0.65,-0.05 H 213.65 213 l -0.65,-0.05 h -0.65 -0.65 -0.65 -0.65 -0.65 -0.65 -0.6 -0.65 -0.65 l -0.6,0.05 h -0.65 -0.65 -0.6 l -0.65,0.05 h -0.6 l -0.65,0.05 h -0.6 l -0.65,0.05 h -0.6 l -0.6,0.05 h -0.65 l -0.6,0.05 -0.6,0.05 h -0.6 l -0.6,0.05 -0.65,0.05 -0.6,0.05 -0.6,0.05 -0.6,0.05 -0.6,0.05 -0.6,0.05 -0.55,0.05 -0.6,0.05 -0.6,0.05 -0.6,0.05 -0.55,0.05 -0.6,0.05 -0.6,0.1 -0.55,0.05 -0.6,0.05 -0.55,0.05 -0.6,0.1 -0.55,0.05 -0.6,0.1 -0.55,0.05 -0.55,0.05 -0.55,0.1 -0.55,0.05 0.4,-0.1 0.4,-0.15 0.45,-0.15 0.45,-0.1 0.5,-0.15 0.5,-0.1 0.5,-0.15 0.5,-0.1 0.55,-0.15 0.55,-0.1 0.55,-0.15 0.6,-0.1 0.6,-0.1 0.6,-0.1 0.6,-0.1 0.6,-0.1 0.65,-0.1 0.65,-0.1 0.65,-0.1 0.65,-0.1 0.65,-0.1 0.65,-0.1 0.7,-0.1 0.7,-0.05 0.65,-0.1 0.7,-0.1 0.7,-0.05 0.7,-0.1 0.7,-0.1 0.7,-0.05 0.7,-0.05 0.7,-0.1 0.7,-0.05 0.7,-0.1 0.7,-0.05 0.7,-0.05 0.7,-0.05 0.7,-0.1 0.7,-0.05 0.65,-0.05 0.7,-0.05 0.7,-0.05 0.65,-0.05 0.65,-0.05 0.65,-0.05 0.65,-0.05 0.65,-0.05 h 0.65 l 0.6,-0.05 0.6,-0.05 0.6,-0.05 h 0.6 l 0.6,-0.05 0.55,-0.05 h 0.55 l 0.55,-0.05 0.5,-0.05 h 0.5 l 0.5,-0.05 h 0.5 0.45 l 0.45,-0.05 h 0.4 l 0.45,-0.05"
         fill="#ffffff"
         id="path84" />
    </g>
    <g
       clip-path="url(#H)"
       id="g90">
      <path
         d="m 324.25,328.85 0.55,-0.15 0.55,-0.25 0.55,-0.2 0.55,-0.25 0.55,-0.25 0.5,-0.3 0.55,-0.25 0.5,-0.3 0.55,-0.3 0.55,-0.25 0.55,-0.3 0.55,-0.3 0.6,-0.3 0.6,-0.25 0.6,-0.3 0.65,-0.25 0.7,-0.25 0.7,-0.25 0.75,-0.25 0.75,-0.25 0.4,-0.1 0.4,-0.1 0.45,-0.05 0.4,-0.1 0.45,-0.1 0.45,-0.1 0.5,-0.05 0.45,-0.05 0.5,-0.1 0.5,-0.05 0.55,-0.05 0.5,-0.05 h 0.55 l 0.55,-0.05 h 0.6 0.6 l 0.6,-0.05 0.6,0.05 h 0.65 0.65 l 0.65,0.05 h 0.7 l 0.7,0.05 0.75,0.05 0.7,0.1 0.8,0.05 0.75,0.1 0.8,0.1 0.4,0.05 0.4,0.05 0.4,0.05 0.4,0.05 0.45,0.05 0.4,0.1 0.4,0.05 0.45,0.05 0.45,0.05 0.4,0.1 0.45,0.05 0.45,0.05 0.4,0.1 0.45,0.05 0.45,0.1 0.45,0.05 0.45,0.1 0.45,0.1 0.45,0.05 0.45,0.1 0.5,0.05 0.45,0.1 0.45,0.1 0.45,0.1 0.5,0.05 0.45,0.1 0.5,0.1 0.45,0.1 0.5,0.1 0.45,0.1 0.5,0.1 0.45,0.05 0.5,0.1 0.45,0.1 0.5,0.1 0.5,0.1 0.45,0.1 0.5,0.1 0.5,0.1 0.5,0.1 0.45,0.1 0.5,0.15 0.5,0.1 0.5,0.1 0.5,0.1 0.45,0.1 0.5,0.1 0.5,0.1 0.5,0.1 0.5,0.15 0.45,0.1 0.5,0.1 0.5,0.1 0.5,0.1 0.5,0.1 0.45,0.15 0.5,0.1 0.5,0.1 0.5,0.1 0.45,0.1 0.5,0.15 0.5,0.1 0.45,0.1 0.5,0.1 0.5,0.1 0.45,0.1 0.5,0.15 0.5,0.1 0.45,0.1 0.5,0.1 0.45,0.1 0.45,0.1 0.5,0.15 0.45,0.1 0.5,0.1 0.45,0.1 0.45,0.1 0.45,0.1 0.45,0.1 0.5,0.1 0.45,0.1 0.45,0.1 0.45,0.1 0.45,0.1 0.4,0.1 0.45,0.1 0.45,0.1 0.45,0.1 0.4,0.1 0.45,0.1 0.4,0.1 0.45,0.1 0.4,0.05 0.45,0.1 0.4,0.1 0.4,0.1 0.4,0.05 0.4,0.1 0.8,0.15 0.8,0.2 0.75,0.15 0.75,0.15 0.7,0.1 0.7,0.15 0.7,0.15 0.7,0.1 0.65,0.1 0.6,0.15 0.65,0.05 0.55,0.1 0.6,0.1 0.55,0.1 0.5,0.1 0.5,0.1 0.5,0.1 0.45,0.1 0.45,0.1 0.45,0.1 0.4,0.1 0.75,0.2 0.7,0.2 0.65,0.2 0.6,0.25 0.5,0.2 0.45,0.25 0.4,0.25 0.7,0.45 0.55,0.55 0.35,0.55 0.3,0.55 0.2,0.65 0.15,0.65 0.1,0.7 0.15,0.75 0.15,0.8 0.05,0.4 0.15,0.4 0.1,0.45 0.1,0.45 0.15,0.45 0.15,0.45 0.15,0.5 0.15,0.45 0.15,0.45 0.15,0.45 0.2,0.45 0.15,0.45 0.15,0.45 0.2,0.45 0.15,0.45 0.2,0.4 0.2,0.45 0.15,0.4 0.2,0.45 0.2,0.4 0.35,0.75 0.4,0.7 0.35,0.65 0.35,0.6 0.35,0.55 0.65,0.75 -0.2,-0.45 -0.15,-0.45 -0.2,-0.45 -0.15,-0.45 -0.1,-0.4 -0.15,-0.45 -0.15,-0.4 -0.1,-0.45 -0.15,-0.4 -0.1,-0.4 -0.1,-0.4 -0.1,-0.4 -0.1,-0.4 -0.1,-0.45 -0.1,-0.4 -0.1,-0.4 -0.05,-0.4 -0.1,-0.45 -0.05,-0.4 -0.05,-0.45 -0.1,-0.4 -0.05,-0.45 -0.05,-0.45 -0.05,-0.45 -0.05,-0.5 -0.05,-0.45 -0.05,-0.5 -0.05,-0.5 v -0.5 l -0.05,-0.55 -0.05,-0.5 v -0.6 l -0.05,-0.55 -0.05,-0.5 -0.1,-0.55 -0.1,-0.5 -0.1,-0.45 -0.15,-0.5 -0.15,-0.45 -0.25,-0.4 -0.2,-0.45 -0.3,-0.4 -0.7,-0.8 -0.4,-0.35 -0.45,-0.4 -0.5,-0.35 -0.55,-0.35 -0.6,-0.35 -0.65,-0.3 -0.7,-0.35 -0.8,-0.3 -0.4,-0.15 -0.45,-0.2 -0.45,-0.15 -0.45,-0.15 -0.5,-0.15 -0.5,-0.15 -0.5,-0.15 -0.55,-0.15 -0.55,-0.15 -0.55,-0.15 -0.6,-0.15 -0.6,-0.15 -0.65,-0.15 -0.65,-0.15 -0.65,-0.15 -0.7,-0.15 -0.75,-0.15 -0.7,-0.15 -0.75,-0.15 -0.8,-0.15 -0.8,-0.15 -0.4,-0.1 -0.4,-0.05 -0.45,-0.1 -0.4,-0.05 -0.45,-0.1 -0.4,-0.1 -0.45,-0.05 -0.45,-0.1 -0.45,-0.05 -0.45,-0.1 -0.4,-0.05 -0.45,-0.1 -0.45,-0.05 -0.45,-0.1 -0.45,-0.05 -0.4,-0.1 -0.45,-0.05 -0.45,-0.1 -0.45,-0.05 -0.4,-0.1 -0.45,-0.05 -0.45,-0.1 -0.4,-0.05 -0.45,-0.1 -0.45,-0.05 -0.45,-0.1 -0.4,-0.05 -0.45,-0.1 -0.4,-0.05 -0.45,-0.1 -0.45,-0.05 -0.4,-0.05 -0.45,-0.1 -0.4,-0.05 -0.45,-0.1 -0.45,-0.05 -0.4,-0.1 -0.45,-0.05 -0.4,-0.05 -0.45,-0.1 -0.4,-0.05 -0.4,-0.05 -0.45,-0.1 -0.4,-0.05 -0.45,-0.1 -0.4,-0.05 -0.4,-0.05 -0.45,-0.1 -0.4,-0.05 -0.4,-0.05 -0.4,-0.05 -0.45,-0.1 -0.4,-0.05 -0.4,-0.05 -0.4,-0.1 -0.4,-0.05 -0.4,-0.05 -0.4,-0.05 -0.8,-0.15 -0.8,-0.1 -0.8,-0.15 -0.75,-0.1 -0.8,-0.15 -0.75,-0.1 -0.75,-0.1 -0.75,-0.15 -0.75,-0.1 -0.75,-0.1 -0.7,-0.1 -0.75,-0.15 -0.7,-0.1 -0.7,-0.1 -0.7,-0.1 -0.65,-0.1 -0.7,-0.1 -0.65,-0.1 -0.65,-0.1 -0.65,-0.1 -0.6,-0.1 -0.65,-0.1 -0.6,-0.05 -0.6,-0.1 -0.6,-0.1 -0.55,-0.1 -0.6,-0.05 -0.55,-0.1 -0.5,-0.1 -0.55,-0.05 -0.5,-0.1 -0.5,-0.05 -0.5,-0.1 -0.45,-0.05 -0.5,-0.1 -0.45,-0.05 -0.4,-0.05 -0.4,-0.1 -0.45,-0.05 -0.4,-0.05 -0.4,-0.05 -0.45,-0.05 -0.4,-0.05 -0.4,-0.05 -0.45,-0.05 h -0.4 l -0.4,-0.05 h -0.45 l -0.4,-0.05 h -0.45 -0.4 -0.45 l -0.4,-0.05 -0.45,0.05 h -0.4 -0.45 -0.4 L 343,320.8 h -0.45 l -0.4,0.05 -0.45,0.05 -0.4,0.05 -0.45,0.05 -0.45,0.05 -0.4,0.05 -0.45,0.1 -0.45,0.05 -0.4,0.1 -0.45,0.1 -0.4,0.1 -0.45,0.1 -0.45,0.1 -0.4,0.15 -0.45,0.1 -0.45,0.15 -0.4,0.15 -0.45,0.15 -0.45,0.15 -0.4,0.15 -0.45,0.15 -0.4,0.2 -0.45,0.2 -0.45,0.2 -0.4,0.2 -0.45,0.2 -0.4,0.2 -0.45,0.25 -0.4,0.25 -0.45,0.25 -0.4,0.25 -0.45,0.25 -0.4,0.25 -0.45,0.3 -0.4,0.3 -0.4,0.3 -0.45,0.3 -0.4,0.35 -0.4,0.3 -0.45,0.35 -1.2,1.05"
         fill="#ffffff"
         id="path88" />
    </g>
    <g
       clip-path="url(#I)"
       id="g94">
      <path
         d="m 449.9,321.5 0.45,-0.15 0.45,-0.2 0.5,-0.25 0.5,-0.2 0.55,-0.25 0.6,-0.25 0.55,-0.25 0.65,-0.25 0.6,-0.25 0.65,-0.25 0.7,-0.3 0.7,-0.3 0.7,-0.25 0.7,-0.3 0.75,-0.3 0.8,-0.3 0.8,-0.3 0.4,-0.15 0.4,-0.15 0.4,-0.15 0.4,-0.15 0.45,-0.15 0.4,-0.15 0.4,-0.15 0.45,-0.15 0.45,-0.15 0.45,-0.15 0.4,-0.15 0.45,-0.15 0.45,-0.15 0.45,-0.15 0.5,-0.15 0.45,-0.2 0.45,-0.15 0.5,-0.15 0.45,-0.1 0.5,-0.15 0.45,-0.15 0.5,-0.15 0.5,-0.15 0.45,-0.15 0.5,-0.15 0.5,-0.15 0.5,-0.15 0.5,-0.1 0.5,-0.15 0.55,-0.15 0.5,-0.15 0.5,-0.1 0.5,-0.15 0.55,-0.15 0.5,-0.1 0.55,-0.15 0.5,-0.1 0.55,-0.15 0.55,-0.1 0.55,-0.15 0.5,-0.1 0.55,-0.1 0.55,-0.15 0.55,-0.1 0.55,-0.1 0.55,-0.1 0.55,-0.1 0.55,-0.1 0.6,-0.1 0.55,-0.1 0.55,-0.1 0.55,-0.1 0.6,-0.05 0.55,-0.1 0.55,-0.1 0.6,-0.05 0.55,-0.1 0.6,-0.05 0.6,-0.05 0.55,-0.1 0.6,-0.05 0.55,-0.05 0.6,-0.05 0.6,-0.05 0.6,-0.05 0.55,-0.05 0.6,-0.05 h 0.6 l 0.6,-0.05 0.6,-0.05 h 0.6 0.6 l 0.6,-0.05 h 0.55 0.6 0.6 0.6 0.65 l 0.6,0.05 h 0.6 0.6 l 0.6,0.05 0.6,0.05 h 0.6 l 0.6,0.05 0.6,0.05 0.6,0.05 0.65,0.05 0.6,0.1 0.6,0.05 0.6,0.05 0.6,0.1 0.6,0.1 0.65,0.05 -0.5,-0.2 -0.45,-0.25 -0.55,-0.2 -0.55,-0.25 -0.6,-0.15 -0.6,-0.2 -0.65,-0.15 -0.65,-0.15 -0.7,-0.15 -0.75,-0.15 -0.75,-0.1 -0.75,-0.1 -0.8,-0.1 -0.4,-0.05 H 502 l -0.4,-0.05 -0.4,-0.05 h -0.45 l -0.45,-0.05 h -0.45 -0.45 l -0.45,-0.05 h -0.45 -0.45 -0.45 -0.5 -0.45 -0.5 l -0.45,0.05 h -0.5 -0.5 l -0.5,0.05 h -0.5 l -0.5,0.05 h -0.5 l -0.5,0.05 -0.5,0.05 h -0.5 l -0.55,0.05 -0.5,0.05 -0.55,0.05 -0.5,0.05 -0.55,0.1 -0.5,0.05 -0.55,0.05 -0.55,0.1 -0.55,0.05 -0.55,0.1 -0.5,0.05 -0.55,0.1 -0.55,0.05 -0.55,0.1 -0.55,0.1 -0.55,0.1 -0.6,0.1 -0.55,0.1 -0.55,0.1 -0.55,0.15 -0.55,0.1 -0.55,0.1 -0.6,0.15 -0.55,0.1 -0.55,0.15 -0.6,0.1 -0.55,0.15 -0.55,0.15 -0.55,0.15 -0.6,0.15 -0.55,0.15 -0.55,0.15 -0.6,0.15 -0.55,0.15 -0.55,0.15 -0.55,0.2 -0.6,0.15 -0.55,0.15 -0.55,0.2 -0.55,0.2 -0.6,0.15 -0.55,0.2 -0.55,0.2 -0.55,0.2 -0.55,0.2 -0.55,0.2 -0.55,0.2 -0.55,0.2 -0.55,0.25 -0.55,0.2 -0.55,0.2 -0.55,0.25 -0.55,0.2 -0.55,0.25 -0.5,0.25 -0.55,0.25 -0.55,0.2 -0.5,0.25 -0.55,0.25 -0.5,0.3 -0.5,0.25 -0.55,0.25 -0.5,0.25 -0.5,0.3 -0.5,0.25 -0.5,0.3 -0.5,0.25 -0.5,0.3 -0.5,0.3 -0.5,0.3 -0.45,0.25 -0.5,0.3 -0.45,0.35 -0.5,0.3 -1.35,0.9"
         fill="#ffffff"
         id="path92" />
    </g>
    <g
       clip-path="url(#J)"
       id="g98">
      <path
         d="m 377.4,304.5 0.6,-0.3 0.55,-0.25 0.55,-0.3 0.55,-0.25 0.55,-0.25 0.5,-0.25 0.45,-0.2 0.5,-0.2 0.45,-0.2 0.45,-0.15 0.45,-0.15 0.45,-0.15 0.4,-0.15 0.45,-0.1 0.4,-0.1 0.45,-0.1 0.4,-0.1 0.4,-0.05 0.45,-0.05 0.4,-0.05 0.45,-0.05 h 0.4 0.45 0.45 0.45 l 0.5,0.05 0.45,0.05 0.5,0.05 0.5,0.05 0.55,0.05 0.55,0.1 0.6,0.05 0.55,0.1 0.6,0.1 0.55,0.1 0.55,0.1 0.55,0.1 0.5,0.1 0.55,0.1 0.5,0.1 0.5,0.05 0.5,0.1 0.5,0.05 0.5,0.1 0.5,0.05 0.45,0.05 0.5,0.05 0.45,0.05 h 0.5 0.45 l 0.45,0.05 0.45,-0.05 h 0.5 l 0.45,-0.05 0.45,-0.05 0.45,-0.05 0.45,-0.05 0.45,-0.1 0.45,-0.15 0.45,-0.1 0.5,-0.15 0.45,-0.2 0.45,-0.15 0.5,-0.25 0.45,-0.2 0.45,-0.25 0.4,-0.2 0.45,-0.25 0.4,-0.25 0.45,-0.25 0.4,-0.25 0.4,-0.25 0.75,-0.5 0.75,-0.5 0.75,-0.55 0.7,-0.55 0.7,-0.5 0.7,-0.55 0.65,-0.5 0.7,-0.5 0.65,-0.5 0.7,-0.5 0.7,-0.45 0.7,-0.5 -0.5,0.25 -0.45,0.25 -0.5,0.2 -0.45,0.25 -0.45,0.25 -0.5,0.25 -0.45,0.25 -0.45,0.25 -0.45,0.25 -0.45,0.3 -0.5,0.25 -0.45,0.25 -0.45,0.25 -0.45,0.25 -0.45,0.25 -0.4,0.25 -0.45,0.25 -0.45,0.2 -0.4,0.25 -0.45,0.2 -0.4,0.2 -0.45,0.2 -0.4,0.2 -0.4,0.2 -0.8,0.3 -0.75,0.3 -0.75,0.2 -0.7,0.15 -0.75,0.1 -0.75,0.05 h -0.75 l -0.45,-0.05 -0.4,-0.05 h -0.4 l -0.45,-0.1 -0.45,-0.05 -0.45,-0.05 -0.45,-0.1 -0.45,-0.05 -0.5,-0.1 -0.5,-0.05 -0.5,-0.1 -0.5,-0.05 -0.55,-0.1 -0.5,-0.05 -0.55,-0.1 -0.55,-0.05 -0.6,-0.05 -0.6,-0.05 -0.6,-0.05 h -0.6 l -0.6,-0.05 h -0.65 -0.65 l -0.65,0.05 h -0.7 l -0.65,0.05 -0.7,0.1 -0.7,0.1 -0.65,0.1 -0.7,0.15 -0.6,0.15 -0.65,0.2 -0.6,0.15 -0.6,0.2 -0.55,0.2 -0.55,0.25 -0.55,0.2 -0.5,0.25 -0.5,0.2 -0.5,0.25 -0.45,0.25 -0.45,0.2 -0.4,0.25 -0.4,0.25 -0.7,0.4 -0.6,0.45 -0.55,0.35 -0.7,0.5 -0.2,0.2"
         fill="#fde8de"
         id="path96" />
    </g>
    <g
       clip-path="url(#K)"
       class="B"
       id="g102">
      <path
         d="m 248.25,314.85 0.55,0.05 h 0.55 l 0.55,0.05 0.6,0.05 h 0.55 l 0.55,0.05 0.6,0.05 0.55,0.05 0.6,0.05 0.6,0.05 0.55,0.05 0.6,0.1 0.6,0.05 0.55,0.05 0.6,0.1 0.6,0.05 0.6,0.1 0.55,0.1 0.6,0.05 0.6,0.1 0.6,0.1 0.55,0.1 0.6,0.05 0.6,0.1 0.6,0.1 0.55,0.1 0.6,0.1 0.6,0.1 0.55,0.1 0.6,0.1 0.55,0.1 0.6,0.1 0.55,0.15 0.6,0.1 0.55,0.1 0.55,0.1 0.6,0.1 0.55,0.1 0.55,0.1 0.55,0.15 0.55,0.1 0.55,0.1 0.55,0.1 0.55,0.1 0.55,0.1 0.5,0.1 0.55,0.1 0.5,0.1 0.55,0.1 0.5,0.1 0.5,0.1 0.5,0.1 0.5,0.1 0.5,0.1 0.5,0.1 0.45,0.05 0.5,0.1 0.45,0.1 0.45,0.05 0.45,0.1 0.45,0.05 0.45,0.1 0.45,0.05 0.45,0.05 0.4,0.1 0.45,0.05 0.4,0.05 0.45,0.05 0.4,0.05 h 0.45 l 0.4,0.05 0.45,0.05 h 0.4 0.45 l 0.4,0.05 h 0.45 0.4 0.45 0.4 l 0.45,-0.05 h 0.45 0.4 l 0.45,-0.05 h 0.4 l 0.45,-0.05 0.4,-0.05 0.45,-0.05 0.45,-0.05 0.4,-0.05 0.45,-0.05 0.4,-0.05 0.45,-0.05 0.45,-0.1 0.4,-0.05 0.45,-0.1 0.45,-0.1 0.4,-0.05 0.45,-0.1 0.4,-0.1 0.45,-0.1 0.45,-0.1 0.45,-0.15 0.4,-0.1 0.45,-0.1 0.45,-0.15 0.4,-0.1 0.45,-0.15 0.45,-0.15 0.45,-0.1 0.45,-0.15 0.4,-0.15 0.45,-0.15 0.45,-0.15 0.45,-0.2 0.45,-0.15 0.45,-0.15 0.45,-0.2 0.4,-0.15 0.45,-0.2 0.45,-0.2 0.45,-0.2 0.45,-0.15 0.45,-0.2 0.45,-0.25 0.45,-0.2 0.45,-0.2 0.45,-0.2 0.5,-0.25 0.45,-0.2 0.45,-0.2 0.45,-0.25 0.5,-0.2 0.45,-0.25 0.5,-0.2 0.5,-0.25 0.5,-0.2 0.45,-0.25 0.55,-0.2 0.5,-0.25 0.5,-0.2 0.5,-0.25 0.55,-0.2 0.5,-0.25 0.55,-0.2 0.55,-0.2 0.5,-0.25 0.55,-0.2 0.55,-0.25 0.55,-0.2 0.55,-0.2 0.55,-0.2 0.6,-0.2 0.55,-0.25 0.55,-0.2 0.6,-0.2 0.55,-0.2 0.55,-0.2 0.6,-0.15 0.6,-0.2 0.55,-0.2 0.6,-0.2 0.55,-0.15 0.6,-0.2 0.6,-0.15 0.6,-0.15 0.6,-0.2 0.55,-0.15 0.6,-0.15 0.6,-0.15 0.6,-0.15 0.6,-0.1 0.6,-0.15 0.6,-0.1 0.6,-0.15 0.6,-0.1 0.6,-0.1 0.6,-0.1 0.6,-0.1 0.6,-0.1 0.6,-0.1 0.6,-0.05 0.6,-0.05 0.6,-0.1 0.6,-0.05 0.6,-0.05 h 0.6 L 344,304.9 h 0.6 l 0.6,-0.05 h 0.6 0.6 0.6 l -0.45,-0.05 h -0.4 l -0.45,-0.05 h -0.45 l -0.45,-0.05 -0.45,0.05 h -0.5 l -0.45,0.05 -0.5,0.05 -0.5,0.05 -0.5,0.05 -0.5,0.1 -0.55,0.05 -0.5,0.1 -0.55,0.1 -0.5,0.15 -0.55,0.1 -0.55,0.15 -0.55,0.15 -0.55,0.15 -0.6,0.15 -0.55,0.2 -0.55,0.15 -0.6,0.2 -0.55,0.2 -0.6,0.2 -0.55,0.2 -0.6,0.2 -0.6,0.25 -0.55,0.2 -0.6,0.25 -0.6,0.25 -0.6,0.25 -0.55,0.25 -0.6,0.25 -0.6,0.25 -0.6,0.25 -0.6,0.3 -0.55,0.25 -0.6,0.3 -0.6,0.25 -0.55,0.3 -0.6,0.25 -0.55,0.3 -0.6,0.3 -0.55,0.3 -0.6,0.3 -0.55,0.3 -0.55,0.25 -0.55,0.3 -0.55,0.3 -0.55,0.3 -0.55,0.3 -0.5,0.3 -0.55,0.3 -0.5,0.3 -0.55,0.3 -0.5,0.3 -0.5,0.3 -0.5,0.3 -0.45,0.25 -0.5,0.3 -0.45,0.3 -0.45,0.25 -0.5,0.3 -0.45,0.3 -0.45,0.25 -0.45,0.3 -0.5,0.25 -0.45,0.25 -0.45,0.25 -0.5,0.25 -0.45,0.25 -0.5,0.25 -0.45,0.25 -0.5,0.2 -0.5,0.25 -0.45,0.2 -0.5,0.25 -0.5,0.2 -0.45,0.2 -0.5,0.2 -0.5,0.2 -0.5,0.15 -0.5,0.2 -0.45,0.2 -0.5,0.15 -0.5,0.15 -0.5,0.2 -0.5,0.15 -0.5,0.1 -0.5,0.15 -0.5,0.15 -0.45,0.1 -0.5,0.15 -0.5,0.1 -0.5,0.1 -0.5,0.1 -0.5,0.1 -0.5,0.1 -0.5,0.05 -0.45,0.1 -0.5,0.05 -0.5,0.05 -0.5,0.05 -0.5,0.05 -0.45,0.05 h -0.5 -0.5 l -0.45,0.05 h -0.5 l -0.5,-0.05 h -0.45 -0.5 l -0.45,-0.05 -0.5,-0.05 -0.45,-0.05 -0.5,-0.05 -0.45,-0.05 -0.45,-0.1 -0.45,-0.05 -0.5,-0.1 -0.45,-0.1 -0.45,-0.15 -0.45,-0.1 -0.45,-0.15 -0.45,-0.15 -0.4,-0.15 -0.55,-0.2 -0.55,-0.2 -0.55,-0.15 -0.55,-0.2 -0.55,-0.2 -0.6,-0.2 -0.55,-0.15 -0.6,-0.2 -0.55,-0.2 -0.6,-0.15 -0.6,-0.15 -0.6,-0.2 -0.6,-0.15 -0.6,-0.15 -0.65,-0.2 -0.6,-0.15 -0.6,-0.15 -0.6,-0.15 -0.65,-0.15 -0.6,-0.15 -0.65,-0.15 -0.6,-0.15 -0.6,-0.15 -0.65,-0.1 -0.6,-0.15 -0.6,-0.15 -0.65,-0.15 -0.6,-0.1 -0.6,-0.15 -0.6,-0.1 -0.6,-0.15 -0.6,-0.15 -0.6,-0.1 -0.6,-0.1 -0.6,-0.15 -0.55,-0.1 -0.6,-0.15 -0.55,-0.1 -0.55,-0.1 -0.55,-0.15 -0.55,-0.1 -0.55,-0.1 -0.5,-0.15 -0.55,-0.1 -0.5,-0.1 -0.5,-0.1 -0.5,-0.15 -0.5,-0.1 -0.45,-0.1 -0.45,-0.1 -0.45,-0.1 -0.45,-0.1 -0.4,-0.15 -0.4,-0.1 -0.8,-0.2 -0.7,-0.2 -0.7,-0.25 -0.6,-0.2 -0.5,-0.25"
         id="path100" />
    </g>
    <g
       clip-path="url(#L)"
       class="B"
       id="g106">
      <path
         d="m 403.65,319.9 0.45,0.15 0.5,0.1 0.45,0.15 0.45,0.1 0.5,0.1 0.45,0.1 0.45,0.1 0.45,0.1 0.45,0.1 0.45,0.05 0.4,0.1 0.45,0.1 0.45,0.05 0.4,0.1 0.4,0.05 0.45,0.05 0.4,0.05 0.4,0.05 0.4,0.05 0.4,0.05 0.8,0.1 0.75,0.05 0.75,0.05 0.75,0.05 0.7,0.05 h 0.7 0.7 0.65 l 0.7,-0.05 h 0.6 l 0.65,-0.05 0.6,-0.05 0.6,-0.1 0.6,-0.05 0.55,-0.1 0.55,-0.1 0.55,-0.1 0.55,-0.1 0.5,-0.15 0.5,-0.15 0.5,-0.1 0.5,-0.2 0.5,-0.15 0.6,-0.25 0.75,-0.3 0.4,-0.2 0.4,-0.15 0.45,-0.2 0.45,-0.2 0.5,-0.2 0.5,-0.25 0.55,-0.25 0.55,-0.25 0.6,-0.25 0.6,-0.25 0.6,-0.3 0.6,-0.25 0.65,-0.3 0.7,-0.3 0.7,-0.3 0.7,-0.3 0.7,-0.35 0.75,-0.3 0.75,-0.35 0.8,-0.3 0.75,-0.35 0.4,-0.15 0.4,-0.2 0.4,-0.15 0.45,-0.2 0.4,-0.15 0.4,-0.2 0.45,-0.15 0.4,-0.2 0.45,-0.15 0.4,-0.2 0.45,-0.15 0.45,-0.2 0.4,-0.2 0.45,-0.15 0.45,-0.2 0.45,-0.15 0.45,-0.2 0.45,-0.2 0.45,-0.15 0.5,-0.2 0.45,-0.15 0.45,-0.2 0.5,-0.2 0.45,-0.15 0.45,-0.2 0.5,-0.15 0.45,-0.2 0.5,-0.2 0.5,-0.15 0.45,-0.2 0.5,-0.15 0.5,-0.2 0.5,-0.15 0.5,-0.2 0.45,-0.2 0.5,-0.15 0.5,-0.2 0.5,-0.15 0.5,-0.15 0.5,-0.2 0.5,-0.15 0.55,-0.2 0.5,-0.15 0.5,-0.15 0.5,-0.2 0.5,-0.15 0.55,-0.15 0.5,-0.2 0.5,-0.15 0.55,-0.15 0.5,-0.15 0.5,-0.15 0.55,-0.15 0.5,-0.15 0.55,-0.2 0.5,-0.15 0.5,-0.1 0.55,-0.15 0.5,-0.15 0.55,-0.15 0.5,-0.15 0.55,-0.15 0.5,-0.1 0.55,-0.15 0.55,-0.15 0.5,-0.1 0.55,-0.15 0.5,-0.1 0.55,-0.15 0.5,-0.1 0.55,-0.15 0.5,-0.1 0.55,-0.1 0.55,-0.15 -0.5,0.1 -0.45,0.05 -0.55,0.1 -0.5,0.1 -0.55,0.1 -0.55,0.15 -0.6,0.15 -0.55,0.15 -0.65,0.15 -0.6,0.2 -0.65,0.2 -0.65,0.2 -0.65,0.25 -0.7,0.2 -0.65,0.25 -0.7,0.25 -0.75,0.3 -0.7,0.25 -0.75,0.3 -0.7,0.3 -0.75,0.3 -0.8,0.3 -0.75,0.3 -0.75,0.3 -0.8,0.35 -0.75,0.35 -0.8,0.3 -0.8,0.35 -0.8,0.35 -0.8,0.35 -0.8,0.4 -0.4,0.15 -0.4,0.2 -0.4,0.15 -0.4,0.2 -0.4,0.2 -0.4,0.15 -0.4,0.2 -0.4,0.2 -0.4,0.2 -0.4,0.15 -0.4,0.2 -0.4,0.2 -0.8,0.35 -0.8,0.4 -0.8,0.35 -0.8,0.4 -0.75,0.35 -0.8,0.4 -0.8,0.35 -0.75,0.35 -0.75,0.4 -0.75,0.35 -0.75,0.35 -0.75,0.35 -0.75,0.4 -0.7,0.35 -0.7,0.3 -0.7,0.35 -0.7,0.35 -0.65,0.3 -0.65,0.35 -0.65,0.3 -0.65,0.3 -0.6,0.3 -0.65,0.3 -0.55,0.3 -0.6,0.25 -0.55,0.25 -0.5,0.25 -0.55,0.25 -0.5,0.25 -0.55,0.25 -0.5,0.2 -0.5,0.2 -0.5,0.15 -0.5,0.2 -0.5,0.15 -0.5,0.2 -0.45,0.1 -0.5,0.15 -0.45,0.15 -0.5,0.1 -0.45,0.1 -0.5,0.1 -0.45,0.1 -0.45,0.1 -0.45,0.05 -0.45,0.05 -0.45,0.05 -0.45,0.05 -0.45,0.05 H 421 l -0.45,0.05 h -0.45 -0.4 -0.45 -0.45 l -0.4,-0.05 h -0.45 l -0.4,-0.05 -0.45,-0.05 -0.4,-0.05 -0.45,-0.05 -0.4,-0.05 -0.4,-0.05 -0.45,-0.05 -0.4,-0.1 -0.45,-0.1 -0.4,-0.05 -0.4,-0.1 -0.45,-0.1 -0.4,-0.1 -0.4,-0.15 -0.45,-0.1 -0.4,-0.1 -0.4,-0.15 -0.4,-0.1 -0.45,-0.15 -0.4,-0.1 -0.45,-0.15 -0.4,-0.15 -0.4,-0.15 -0.45,-0.15 -0.4,-0.15 -0.45,-0.15 -0.4,-0.15 -0.45,-0.15 -0.4,-0.2 -0.45,-0.15 -0.4,-0.15 -0.45,-0.2 -0.45,-0.15 -0.4,-0.2"
         id="path104" />
    </g>
    <g
       clip-path="url(#M)"
       id="g110">
      <path
         d="m 296.75,424.15 -0.45,-0.05 -0.45,-0.05 -0.4,-0.05 -0.45,-0.05 -0.4,-0.05 -0.45,-0.05 -0.4,-0.1 -0.4,-0.05 -0.4,-0.05 -0.4,-0.05 -0.8,-0.15 -0.8,-0.1 -0.75,-0.15 -0.8,-0.2 -0.75,-0.15 -0.8,-0.2 -0.75,-0.25 -0.8,-0.25 -0.75,-0.3 -0.8,-0.3 -0.4,-0.2 -0.4,-0.2 -0.45,-0.2 -0.4,-0.2 -0.4,-0.25 -0.45,-0.2 -0.4,-0.25 -0.4,-0.25 -0.45,-0.25 -0.4,-0.25 -0.4,-0.25 -0.45,-0.25 -0.4,-0.25 -0.4,-0.25 -0.45,-0.25 -0.4,-0.3 -0.4,-0.25 -0.4,-0.3 -0.45,-0.3 -0.4,-0.25 -0.4,-0.3 -0.4,-0.3 -0.8,-0.6 -0.75,-0.65 -0.8,-0.6 -0.75,-0.65 -0.7,-0.7 -0.7,-0.7 -0.65,-0.6 -0.65,-0.7 -0.6,-0.75 -0.6,-0.75 -0.55,-0.8 -0.3,-0.4 -0.25,-0.4 -0.25,-0.45 -0.3,-0.4 -0.25,-0.45 -0.25,-0.4 -0.25,-0.45 -0.2,-0.45 -0.25,-0.45 -0.25,-0.45 -0.2,-0.45 -0.2,-0.45 -0.25,-0.45 -0.2,-0.45 -0.2,-0.45 -0.2,-0.45 -0.15,-0.45 -0.2,-0.45 -0.15,-0.45 -0.15,-0.45 -0.2,-0.45 -0.1,-0.45 -0.35,-0.7 -0.25,-0.75 -0.25,-0.75 -0.2,-0.75 -0.2,-0.75 -0.1,-0.7 -0.15,-0.75 -0.1,-0.7 -0.05,-0.75 -0.05,-0.7 v -0.75 -0.7 l 0.05,-0.7 0.05,-0.75 0.1,-0.7 0.1,-0.7 0.1,-0.7 0.15,-0.75 0.15,-0.7 0.15,-0.7 0.2,-0.7 0.2,-0.7 0.2,-0.7 0.25,-0.75 0.25,-0.7 0.25,-0.7 0.25,-0.7 0.25,-0.7 0.25,-0.75 0.3,-0.7 0.3,-0.7 0.3,-0.75 0.25,-0.6 0.3,-0.6 0.35,-0.6 0.3,-0.6 0.35,-0.6 0.3,-0.6 0.35,-0.55 0.35,-0.55 0.35,-0.55 0.4,-0.5 0.35,-0.55 0.4,-0.5 0.35,-0.5 0.4,-0.45 0.4,-0.5 0.45,-0.45 0.6,-0.65 0.65,-0.6 0.65,-0.55 0.65,-0.5 0.65,-0.45 0.7,-0.45 0.65,-0.35 0.7,-0.35 0.7,-0.25 0.75,-0.3 0.75,-0.2 0.75,-0.2 0.8,-0.15 0.4,-0.05 0.4,-0.05 0.45,-0.05 0.4,-0.05 0.45,-0.05 0.45,-0.05 h 0.45 0.45 l 0.45,-0.05 h 0.5 l 0.45,0.05 h 0.45 l 0.45,0.05 0.45,0.05 0.45,0.05 0.45,0.05 0.45,0.1 0.4,0.1 0.45,0.1 0.45,0.1 0.4,0.1 0.45,0.15 0.4,0.15 0.45,0.15 0.4,0.2 0.4,0.15 0.4,0.2 0.4,0.2 0.8,0.45 0.75,0.5 0.8,0.55 0.7,0.6 0.75,0.65 0.7,0.65 0.75,0.6 0.8,0.5 0.4,0.25 0.4,0.2 0.4,0.2 0.4,0.2 0.45,0.2 0.4,0.2 0.45,0.15 0.45,0.15 0.4,0.15 0.45,0.15 0.45,0.15 0.45,0.1 0.45,0.15 0.4,0.1 0.45,0.15 0.45,0.1 0.45,0.15 0.45,0.1 0.45,0.15 0.4,0.1 0.45,0.15 0.45,0.1 0.4,0.15 0.45,0.15 0.4,0.1 0.45,0.15 0.45,0.2 0.45,0.15 0.45,0.2 0.45,0.25 0.45,0.2 0.4,0.25 0.45,0.25 0.4,0.25 0.45,0.3 0.4,0.25 0.4,0.3 0.4,0.3 0.75,0.65 0.75,0.7 0.75,0.7 0.7,0.75 0.65,0.8 0.3,0.4 0.3,0.4 0.3,0.4 0.3,0.45 0.3,0.4 0.25,0.45 0.3,0.4 0.25,0.45 0.25,0.45 0.25,0.4 0.25,0.55 0.2,0.55 0.2,0.55 0.2,0.55 0.2,0.55 0.15,0.55 0.1,0.55 0.15,0.6 0.1,0.55 0.1,0.6 0.05,0.55 0.1,0.6 0.05,0.55 v 0.6 l 0.05,0.6 v 0.6 0.6 0.6 0.55 0.6 0.6 l -0.05,0.6 v 0.6 l -0.05,0.65 -0.05,0.6 v 0.6 l -0.05,0.6 -0.05,0.6 -0.05,0.6 v 0.6 l -0.05,0.6 v 0.55 l -0.05,0.45 -0.05,0.45 -0.05,0.45 v 0.45 l -0.05,0.45 -0.05,0.5 -0.1,0.45 -0.05,0.45 -0.05,0.5 -0.1,0.45 -0.1,0.45 -0.1,0.5 -0.1,0.45 -0.1,0.45 -0.1,0.5 -0.15,0.45 -0.15,0.45 -0.15,0.45 -0.15,0.45 -0.15,0.45 -0.2,0.45 -0.15,0.45 -0.2,0.45 -0.25,0.4 -0.2,0.4 -0.25,0.45 -0.5,0.75 -0.55,0.75 -0.6,0.7 -0.75,0.8 -0.7,0.75 -0.8,0.8 -0.75,0.75 -0.8,0.75 -0.4,0.35 -0.45,0.3 -0.4,0.35 -0.4,0.3 -0.4,0.25 -0.4,0.25 -0.6,0.35 -0.6,0.25 -0.55,0.3 -0.55,0.25 -0.6,0.2 -0.55,0.25 -0.5,0.15 -0.55,0.2 -0.5,0.15 -0.55,0.2 -0.5,0.1 -0.5,0.15 -0.45,0.1 -0.5,0.1 -0.45,0.1 -0.45,0.05 -0.45,0.1 -0.45,0.05 -0.4,0.05 h -0.4 l -0.75,0.05 h -0.7 -0.65 -0.6 l -0.5,-0.05 -0.4,-0.1"
         fill="#e94625"
         id="path108" />
    </g>
    <g
       clip-path="url(#N)"
       id="g114">
      <path
         d="m 265.45,403.55 -0.35,-0.65 -0.35,-0.7 -0.3,-0.7 -0.3,-0.7 -0.25,-0.7 -0.3,-0.7 -0.2,-0.75 -0.25,-0.7 -0.2,-0.7 -0.15,-0.7 -0.15,-0.75 -0.15,-0.7 -0.15,-0.75 -0.1,-0.7 -0.05,-0.75 -0.05,-0.75 -0.05,-0.7 v -0.75 -0.75 l 0.05,-0.75 0.05,-0.7 0.1,-0.75 0.1,-0.75 0.1,-0.75 0.15,-0.75 0.2,-0.75 0.2,-0.75 0.25,-0.75 0.25,-0.75 0.3,-0.75 0.3,-0.75 0.35,-0.75 0.15,-0.4 0.2,-0.4 0.45,-0.8 0.5,-0.75 0.6,-0.65 0.6,-0.6 0.65,-0.55 0.7,-0.45 0.75,-0.35 0.8,-0.3 0.4,-0.15 0.4,-0.1 0.45,-0.1 0.4,-0.05 0.45,-0.05 h 0.4 0.45 l 0.45,0.05 0.45,0.05 0.45,0.05 0.5,0.15 0.45,0.1 0.45,0.15 0.5,0.15 0.45,0.25 0.4,0.2 0.45,0.25 0.4,0.3 0.75,0.6 0.75,0.65 0.75,0.65 0.7,0.65 0.8,0.6 0.8,0.5 0.5,0.35 0.55,0.25 0.55,0.3 0.6,0.25 0.55,0.25 0.6,0.25 0.6,0.2 0.6,0.2 0.6,0.2 0.6,0.2 0.6,0.15 0.6,0.2 0.6,0.15 0.6,0.15 0.6,0.15 0.6,0.1 0.5,0.2 0.55,0.15 0.55,0.15 0.55,0.15 0.55,0.15 0.55,0.15 0.55,0.15 0.55,0.2 0.55,0.15 0.55,0.2 0.55,0.2 0.55,0.2 0.55,0.2 0.55,0.2 0.5,0.25 0.55,0.25 0.5,0.25 0.5,0.25 0.5,0.3 0.5,0.3 0.45,0.3 0.45,0.35 0.45,0.35 0.45,0.4 0.4,0.4 0.4,0.4 0.4,0.45 0.35,0.5 0.35,0.5 0.3,0.5 0.3,0.55 0.3,0.55 0.25,0.7 0.25,0.65 0.25,0.7 0.25,0.75 0.2,0.7 0.15,0.75 0.15,0.75 0.15,0.75 0.1,0.75 0.1,0.8 0.1,0.75 0.05,0.8 v 0.8 l 0.05,0.8 v 0.75 l -0.05,0.8 v 0.8 l -0.1,0.8 -0.05,0.8 -0.1,0.8 -0.1,0.75 -0.15,0.8 -0.1,0.75 -0.2,0.8 -0.15,0.75 -0.2,0.75 -0.2,0.7 -0.25,0.75 -0.2,0.7 -0.25,0.7 -0.3,0.65 -0.25,0.65 -0.3,0.55 -0.3,0.45 -0.3,0.45 -0.3,0.45 -0.35,0.4 -0.3,0.4 -0.75,0.75 -0.75,0.65 -0.4,0.3 -0.4,0.25 -0.45,0.25 -0.4,0.25 -0.45,0.2 -0.45,0.2 -0.45,0.2 -0.45,0.15 -0.5,0.15 -0.45,0.15 -0.5,0.1 -0.5,0.1 -0.45,0.05 -0.5,0.1 -0.55,0.05 h -0.5 l -0.5,0.05 h -0.5 -0.55 l -0.5,-0.05 h -0.55 l -0.5,-0.05 -0.55,-0.1 -0.5,-0.05 -0.55,-0.1 -0.5,-0.1 -0.55,-0.1 -0.55,-0.1 -0.5,-0.15 -0.55,-0.15 -0.5,-0.15 -0.5,-0.15 -0.55,-0.15 -0.5,-0.2 -0.5,-0.2 -0.5,-0.2 -0.5,-0.2 -0.5,-0.2 -0.5,-0.2 -0.5,-0.25 -0.45,-0.25 -0.5,-0.2 -0.45,-0.25 -0.45,-0.3 -0.45,-0.25 -0.45,-0.25 -0.45,-0.25 -0.4,-0.3 -0.4,-0.25 -0.4,-0.3 -0.8,-0.6 -0.7,-0.6"
         fill="#ec6044"
         id="path112" />
    </g>
    <g
       clip-path="url(#O)"
       id="g118">
      <path
         d="m 283,418.85 -0.65,-0.15 -0.6,-0.2 -0.6,-0.2 -0.65,-0.25 -0.6,-0.3 -0.6,-0.3 -0.65,-0.3 -0.6,-0.35 -0.6,-0.4 -0.6,-0.35 -0.6,-0.45 -0.6,-0.4 -0.55,-0.45 -0.6,-0.45 -0.55,-0.5 -0.55,-0.5 -0.55,-0.5 -0.55,-0.5 -0.55,-0.55 -0.5,-0.55 -0.5,-0.55 -0.5,-0.55 -0.5,-0.55 -0.45,-0.6 -0.45,-0.55 -0.45,-0.6 -0.4,-0.6 -0.45,-0.6 -0.35,-0.6 -0.4,-0.6 -0.35,-0.6 -0.3,-0.6 -0.35,-0.75 -0.2,-0.4 -0.15,-0.4 -0.15,-0.45 -0.15,-0.4 -0.15,-0.45 -0.15,-0.45 -0.15,-0.45 -0.15,-0.45 -0.1,-0.45 -0.15,-0.5 -0.1,-0.45 -0.1,-0.5 -0.1,-0.5 -0.1,-0.45 -0.1,-0.5 -0.1,-0.5 -0.05,-0.45 -0.1,-0.5 -0.05,-0.5 -0.05,-0.5 -0.05,-0.45 -0.05,-0.5 -0.05,-0.5 v -0.45 l -0.05,-0.5 v -0.45 -0.45 l 0.05,-0.5 v -0.45 l 0.05,-0.45 v -0.4 l 0.05,-0.4 0.1,-0.4 0.05,-0.45 0.1,-0.4 0.15,-0.45 0.1,-0.4 0.15,-0.45 0.2,-0.4 0.15,-0.4 0.4,-0.75 0.5,-0.75 0.5,-0.65 0.6,-0.55 0.65,-0.45 0.7,-0.35 0.75,-0.25 0.4,-0.05 0.4,-0.05 h 0.45 l 0.45,0.05 0.45,0.1 0.45,0.1 0.5,0.2 0.5,0.2 0.6,0.4 0.55,0.45 0.5,0.5 0.45,0.6 0.4,0.6 0.4,0.7 0.35,0.7 0.35,0.75 0.3,0.75 0.35,0.8 0.35,0.75 0.35,0.75 0.35,0.7 0.35,0.7 0.45,0.65 0.45,0.55 0.5,0.5 0.55,0.4 0.65,0.4 0.7,0.3 0.7,0.3 0.75,0.3 0.7,0.25 0.75,0.25 0.45,0.25 0.4,0.25 0.75,0.5 0.65,0.55 0.6,0.6 0.5,0.6 0.55,0.7 0.5,0.75 0.3,0.4 0.3,0.4 0.4,0.7 0.5,0.75 0.55,0.75 0.55,0.8 0.3,0.4 0.3,0.4 0.3,0.4 0.3,0.45 0.3,0.4 0.25,0.45 0.3,0.4 0.25,0.45 0.3,0.45 0.25,0.45 0.25,0.4 0.2,0.45 0.25,0.45 0.2,0.5 0.15,0.45 0.2,0.45 0.15,0.45 0.1,0.45 0.1,0.5 0.05,0.45 0.05,0.45 0.05,0.5 -0.05,0.45 v 0.45 l -0.1,0.5 -0.1,0.45 -0.15,0.4 -0.2,0.4 -0.4,0.75 -0.55,0.7 -0.65,0.6 -0.75,0.55 -0.8,0.45 -0.4,0.2 -0.45,0.2 -0.45,0.15 -0.45,0.15 -0.45,0.1 -0.45,0.15 -0.5,0.05 -0.45,0.05 -0.5,0.05 -0.45,0.05 h -0.5 l -0.45,-0.05 h -0.5 l -0.45,-0.1 -0.45,-0.05 -0.45,-0.1 -0.8,-0.3"
         fill="#ee6f56"
         id="path116" />
    </g>
    <g
       clip-path="url(#P)"
       fill="none"
       stroke="#000000"
       class="C D E"
       id="g124">
      <path
         d="m 168.65,324.7 v 0.65 m 0,0 v 0.6 m 0,0 0.05,0.55 m 0,0 0.05,0.6 m 0,0 0.05,0.55 m 0,0 0.05,0.6 m 0,0 0.1,0.55 m 0,0 0.1,0.5 m 0,0 0.1,0.55 m 0,0 0.15,0.5 m 0,0 0.1,0.5 m 0,0 0.15,0.45 m 0,0 0.15,0.5 m 0,0 0.15,0.4 m 0,0 0.2,0.45 m 0,0 0.2,0.4 m 0,0 0.35,0.75 m 0,0 0.45,0.7 m 0,0 0.45,0.6 m 0,0 0.45,0.5 m 0,0 0.5,0.4 m 0,0 0.55,0.3 m 0,0 0.5,0.15 m 0,0 0.6,0.05 m 0,0 0.55,-0.05 m 0,0 0.5,-0.15 m 0,0 0.55,-0.3 m 0,0 0.5,-0.4 m 0,0 0.45,-0.5 m 0,0 0.45,-0.6 m 0,0 0.4,-0.7 m 0,0 0.4,-0.75 m 0,0 0.2,-0.4 m 0,0 0.15,-0.45 m 0,0 0.15,-0.4 m 0,0 0.15,-0.5 m 0,0 0.15,-0.45 m 0,0 0.15,-0.5 m 0,0 0.1,-0.5 m 0,0 0.1,-0.55 m 0,0 0.1,-0.5 m 0,0 0.1,-0.55 m 0,0 0.05,-0.6 m 0,0 0.05,-0.55 m 0,0 0.05,-0.6 m 0,0 0.05,-0.55"
         id="path120" />
      <path
         d="m 179.45,325.95 v -0.6 m 0,0 0.05,-0.65 m 0,0 -0.05,-0.6 m 0,0 v -0.6 m 0,0 -0.05,-0.6 m 0,0 -0.05,-0.55 m 0,0 -0.05,-0.6 m 0,0 -0.05,-0.55 m 0,0 -0.1,-0.55 m 0,0 -0.1,-0.55 m 0,0 -0.1,-0.5 m 0,0 -0.1,-0.55 m 0,0 -0.15,-0.45 m 0,0 -0.15,-0.5 m 0,0 -0.15,-0.45 m 0,0 -0.15,-0.45 m 0,0 -0.15,-0.45 m 0,0 -0.2,-0.4 m 0,0 -0.4,-0.75 m 0,0 -0.4,-0.7 m 0,0 -0.45,-0.6 m 0,0 -0.45,-0.5 m 0,0 -0.5,-0.4 m 0,0 -0.55,-0.3 m 0,0 -0.5,-0.15 m 0,0 -0.55,-0.1 m 0,0 -0.6,0.1 m 0,0 -0.5,0.15 m 0,0 -0.55,0.3 m 0,0 -0.5,0.4 m 0,0 -0.45,0.5 m 0,0 -0.45,0.6 m 0,0 -0.45,0.7 m 0,0 -0.35,0.75 m 0,0 -0.2,0.4 m 0,0 -0.2,0.45 m 0,0 -0.15,0.45 m 0,0 -0.15,0.45 m 0,0 -0.15,0.5 m 0,0 -0.1,0.45 m 0,0 -0.15,0.55 m 0,0 -0.1,0.5 m 0,0 -0.1,0.55 m 0,0 -0.1,0.55 m 0,0 -0.05,0.55 m 0,0 -0.05,0.6 m 0,0 -0.05,0.55 m 0,0 -0.05,0.6 m 0,0 v 0.6 m 0,0 v 0.6"
         id="path122" />
    </g>
    <g
       clip-path="url(#Q)"
       fill="none"
       stroke="#000000"
       class="C D E"
       id="g130">
      <path
         d="m 421.75,285.7 v 0.65 m 0,0 0.05,0.6 m 0,0 0.05,0.6 m 0,0 0.1,0.55 m 0,0 0.15,0.55 m 0,0 0.1,0.5 m 0,0 0.2,0.5 m 0,0 0.2,0.4 m 0,0 0.4,0.8 m 0,0 0.5,0.55 m 0,0 0.55,0.35 m 0,0 0.65,0.1 m 0,0 0.55,-0.1 m 0,0 0.55,-0.35 m 0,0 0.5,-0.55 m 0,0 0.45,-0.8 m 0,0 0.2,-0.4 m 0,0 0.15,-0.5 m 0,0 0.15,-0.5 m 0,0 0.15,-0.55 m 0,0 0.1,-0.55 m 0,0 0.05,-0.6 m 0,0 0.05,-0.6 m 0,0 0.05,-0.65 m 0,0 -0.05,-0.6 m 0,0 -0.05,-0.65 m 0,0 -0.05,-0.6 m 0,0 -0.1,-0.55 m 0,0 -0.15,-0.55 m 0,0 -0.15,-0.5 m 0,0 -0.15,-0.5 m 0,0 -0.2,-0.4 m 0,0 -0.45,-0.75 m 0,0 -0.5,-0.6 m 0,0 -0.55,-0.35 m 0,0 -0.55,-0.15"
         id="path126" />
      <path
         d="m 424.7,279.5 -0.65,0.15 m 0,0 -0.55,0.35 m 0,0 -0.5,0.6 m 0,0 -0.4,0.75 m 0,0 -0.2,0.4 m 0,0 -0.2,0.5 m 0,0 -0.1,0.5 m 0,0 -0.15,0.55 m 0,0 -0.1,0.55 m 0,0 -0.05,0.6 m 0,0 -0.05,0.65 m 0,0 v 0.6"
         id="path128" />
    </g>
    <g
       clip-path="url(#R)"
       fill="none"
       stroke="#000000"
       class="C D E"
       id="g142">
      <path
         d="m 440.2,380.9 0.15,-0.75 m 0,0 0.1,-0.8 m 0,0 0.05,-0.4 m 0,0 v -0.4 m 0,0 -0.05,-0.45 m 0,0 -0.05,-0.4 m 0,0 -0.05,-0.45 m 0,0 -0.1,-0.45 m 0,0 -0.1,-0.4 m 0,0 -0.15,-0.45 m 0,0 -0.15,-0.5 m 0,0 -0.2,-0.45 m 0,0 -0.2,-0.45 m 0,0 -0.2,-0.45 m 0,0 -0.25,-0.5 m 0,0 -0.3,-0.45 m 0,0 -0.25,-0.5 m 0,0 -0.35,-0.5 m 0,0 -0.3,-0.45 m 0,0 -0.35,-0.5 m 0,0 -0.4,-0.5 m 0,0 -0.4,-0.5 m 0,0 -0.4,-0.5 m 0,0 -0.45,-0.45 m 0,0 -0.45,-0.5 m 0,0 -0.5,-0.5 m 0,0 -0.5,-0.5 m 0,0 -0.55,-0.5 m 0,0 -0.55,-0.5 m 0,0 -0.55,-0.55 m 0,0 -0.55,-0.35 m 0,0 -0.3,-0.2 m 0,0 -0.1,-0.1 m 0,0 -0.5,-0.4 m 0,0 -0.45,-0.4 m 0,0 -0.5,-0.4 m 0,0 -0.45,-0.4 m 0,0 -0.5,-0.4 m 0,0 -0.45,-0.35 m 0,0 -0.45,-0.4 m 0,0 -0.5,-0.35 m 0,0 -0.45,-0.35 m 0,0 -0.5,-0.35 m 0,0 -0.45,-0.4 m 0,0 -0.45,-0.35 m 0,0 -0.45,-0.35 m 0,0 -0.45,-0.4 m 0,0 -0.45,-0.35 m 0,0 -0.45,-0.4 m 0,0 -0.45,-0.4 m 0,0 -0.4,-0.4 m 0,0 -0.45,-0.45 m 0,0 -0.4,-0.4 m 0,0 -0.4,-0.45 m 0,0 -0.4,-0.5 m 0,0 -0.4,-0.45 m 0,0 -0.4,-0.55 m 0,0 -0.35,-0.5 m 0,0 -0.4,-0.6 m 0,0 -0.35,-0.55 m 0,0 -0.35,-0.6 m 0,0 -0.35,-0.65 m 0,0 -0.3,-0.7 m 0,0 -0.3,-0.7 m 0,0 -0.3,-0.75 m 0,0 -0.15,-0.4 m 0,0 -0.15,-0.4 m 0,0 -0.15,-0.5 m 0,0 -0.2,-0.5 m 0,0 -0.15,-0.4 m 0,0 -0.1,-0.45 m 0,0 -0.2,-0.5 m 0,0 -0.2,-0.5 m 0,0 -0.2,-0.5 m 0,0 -0.15,-0.5 m 0,0 -0.15,-0.45 m 0,0 -0.1,-0.45 m 0,0 -0.15,-0.45 m 0,0 -0.15,-0.45 m 0,0 -0.1,-0.4 m 0,0 -0.1,-0.45 m 0,0 -0.25,-0.75 m 0,0 -0.25,-0.75 m 0,0 -0.25,-0.7 m 0,0 -0.3,-0.65 m 0,0 -0.35,-0.6 m 0,0 -0.4,-0.6 m 0,0 -0.5,-0.5 m 0,0 -0.55,-0.5 m 0,0 -0.65,-0.45 m 0,0 -0.75,-0.45 m 0,0 -0.4,-0.2 m 0,0 -0.45,-0.2 m 0,0 -0.8,-0.35 m 0,0 -0.55,-0.15 m 0,0 -0.6,-0.15 m 0,0 -0.65,-0.15 m 0,0 -0.7,-0.15 m 0,0 -0.75,-0.15 m 0,0 L 406,336 m 0,0 -0.75,-0.15 m 0,0 -0.75,-0.1 m 0,0 -0.75,-0.1 m 0,0 -0.7,-0.1 m 0,0 -0.65,-0.1 m 0,0 -0.65,-0.1 m 0,0 -0.5,-0.05 m 0,0 -0.45,-0.1 m 0,0 -0.6,-0.15 m 0,0 -0.45,-0.1 m 0,0 -0.5,-0.1 m 0,0 -0.55,-0.15 m 0,0 -0.65,-0.15 m 0,0 -0.75,-0.15 m 0,0 -0.75,-0.15 m 0,0 -0.4,-0.1 m 0,0 -0.45,-0.1 m 0,0 -0.45,-0.1 m 0,0 -0.45,-0.05 m 0,0 -0.45,-0.1 m 0,0 -0.45,-0.1 m 0,0 -0.5,-0.1 m 0,0 -0.45,-0.1 m 0,0 -0.5,-0.15 m 0,0 -0.5,-0.1 m 0,0 -0.55,-0.1 m 0,0 -0.5,-0.1 m 0,0 -0.5,-0.1 m 0,0 -0.55,-0.1 m 0,0 -0.55,-0.15 m 0,0 -0.55,-0.1 m 0,0 -0.5,-0.1 m 0,0 -0.55,-0.15 m 0,0 -0.55,-0.1 m 0,0 -0.55,-0.1 m 0,0 -0.55,-0.15 m 0,0 -0.6,-0.1 m 0,0 -0.55,-0.1 m 0,0 -0.55,-0.1 m 0,0 -0.55,-0.15 m 0,0 -0.55,-0.1 m 0,0 -0.55,-0.1 m 0,0 -0.5,-0.15 m 0,0 -0.55,-0.1 m 0,0 -0.55,-0.1 m 0,0 -0.5,-0.1 m 0,0 -0.55,-0.15 m 0,0 -0.5,-0.1 m 0,0 -0.5,-0.1 m 0,0 -0.55,-0.1 m 0,0 -0.45,-0.1 m 0,0 -0.5,-0.1 m 0,0 -0.5,-0.1 m 0,0 -0.45,-0.1 m 0,0 -0.45,-0.1 m 0,0 -0.45,-0.1 m 0,0 -0.45,-0.1 m 0,0 -0.4,-0.1 m 0,0 -0.4,-0.1 m 0,0 -0.75,-0.15 m 0,0 -0.7,-0.2 m 0,0 -0.45,-0.05 m 0,0 -0.4,-0.1 m 0,0 -0.4,-0.1 m 0,0 -0.4,-0.1 m 0,0 -0.4,-0.1 m 0,0 -0.4,-0.1 m 0,0 -0.8,-0.15 m 0,0 -0.8,-0.2 m 0,0 -0.75,-0.2 m 0,0 -0.8,-0.15 m 0,0 -0.75,-0.2 m 0,0 -0.75,-0.15 m 0,0 -0.75,-0.15 m 0,0 -0.75,-0.15 m 0,0 -0.75,-0.2 m 0,0 -0.75,-0.1 m 0,0 -0.7,-0.15 m 0,0 -0.7,-0.15 m 0,0 -0.7,-0.15 m 0,0 -0.65,-0.1 m 0,0 -0.6,-0.1 m 0,0 -0.6,-0.1 m 0,0 -0.6,-0.1 m 0,0 -0.6,-0.05 m 0,0 -0.6,-0.1 m 0,0 -0.6,-0.05 m 0,0 -0.55,-0.1 m 0,0 -0.6,-0.05 m 0,0 -0.6,-0.1 m 0,0 -0.55,-0.05 m 0,0 -0.6,-0.05 m 0,0 -0.55,-0.05 m 0,0 -0.6,-0.05 m 0,0 h -0.55 m 0,0 -0.55,-0.05 m 0,0 h -0.55 m 0,0 -0.6,-0.05 m 0,0 h -0.55 m 0,0 h -0.55 m 0,0 h -0.55 m 0,0 h -0.55 m 0,0 h -0.5 m 0,0 H 347 m 0,0 h -0.55 m 0,0 -0.55,0.05 m 0,0 h -0.5 m 0,0 -0.55,0.05 m 0,0 -0.5,0.05 m 0,0 -0.55,0.05 m 0,0 -0.5,0.05 m 0,0 -0.55,0.05 m 0,0 -0.5,0.05 m 0,0 -0.5,0.05 m 0,0 -0.55,0.1 m 0,0 -0.5,0.05 m 0,0 -0.5,0.1 m 0,0 -0.5,0.1 m 0,0 -0.5,0.1 m 0,0 -0.5,0.1 m 0,0 -0.5,0.1 m 0,0 -0.5,0.1 m 0,0 -0.5,0.15 m 0,0 -0.5,0.1 m 0,0 -0.5,0.15 m 0,0 -0.5,0.1 m 0,0 -0.5,0.15 m 0,0 -0.5,0.15 m 0,0 -0.45,0.15 m 0,0 -0.5,0.2 m 0,0 -0.5,0.15 m 0,0 -0.45,0.15 m 0,0 -0.5,0.2 m 0,0 -0.5,0.2 m 0,0 -0.45,0.15 m 0,0 -0.5,0.2 m 0,0 -0.45,0.2 m 0,0 -0.5,0.25 m 0,0 -0.45,0.2 m 0,0 -0.5,0.2 m 0,0 -0.45,0.25 m 0,0 -0.5,0.25 m 0,0 -0.45,0.25 m 0,0 -0.45,0.2 m 0,0 -0.5,0.25 m 0,0 -0.4,0.2 m 0,0 -0.5,0.2 m 0,0 -0.55,0.3 m 0,0 -0.65,0.25 m 0,0 -0.65,0.3 m 0,0 -0.65,0.35 m 0,0 -0.7,0.3 m 0,0 -0.7,0.3 m 0,0 -0.65,0.3 m 0,0 -0.65,0.25 m 0,0 -0.6,0.25 m 0,0 -0.5,0.2 m 0,0 -0.75,0.2 m 0,0 -0.75,0.3 m 0,0 -0.45,0.15 m 0,0 -0.5,0.2 m 0,0 -0.5,0.2 m 0,0 -0.55,0.2 m 0,0 -0.6,0.2 m 0,0 -0.6,0.2 m 0,0 -0.65,0.2 m 0,0 -0.65,0.25 m 0,0 -0.65,0.25 m 0,0 -0.7,0.25 m 0,0 -0.7,0.2 m 0,0 -0.7,0.25 m 0,0 -0.7,0.25 m 0,0 -0.65,0.25 m 0,0 -0.7,0.25 m 0,0 -0.7,0.25 m 0,0 -0.7,0.25 m 0,0 -0.65,0.25 m 0,0 -0.6,0.25 m 0,0 -0.65,0.25 m 0,0 -0.6,0.2 m 0,0 -0.55,0.25 m 0,0 -0.55,0.2 m 0,0 -0.45,0.2 m 0,0 -0.45,0.2 m 0,0 -0.45,0.15 m 0,0 -0.65,0.35 m 0,0 -0.45,0.25 m 0,0 -0.55,0.4 m 0,0 -0.5,0.4 m 0,0 -0.45,0.4 m 0,0 -0.4,0.4 m 0,0 -0.35,0.4 m 0,0 -0.3,0.4 m 0,0 -0.25,0.4 m 0,0 -0.2,0.4 m 0,0 -0.15,0.45 m 0,0 -0.1,0.4 m 0,0 -0.05,0.45 m 0,0 v 0.4 m 0,0 0.05,0.4 m 0,0 0.1,0.45 m 0,0 0.15,0.4 m 0,0 0.2,0.4 m 0,0 0.25,0.45 m 0,0 0.3,0.4 m 0,0 0.35,0.4 m 0,0 0.45,0.4 m 0,0 0.45,0.4 m 0,0 0.5,0.4 m 0,0 0.6,0.35 m 0,0 0.6,0.4 m 0,0 0.7,0.35 m 0,0 0.75,0.35 m 0,0 0.8,0.35 m 0,0 0.4,0.2 m 0,0 0.45,0.15 m 0,0 0.45,0.15 m 0,0 0.45,0.15 m 0,0 0.5,0.2 m 0,0 0.45,0.15 m 0,0 0.5,0.15 m 0,0 0.55,0.15 m 0,0 0.55,0.15 m 0,0 0.55,0.1 m 0,0 0.5,0.15 m 0,0 0.5,0.15 m 0,0 0.5,0.15 m 0,0 0.5,0.2 m 0,0 0.5,0.15 m 0,0 0.5,0.15 m 0,0 0.5,0.2 m 0,0 0.5,0.15 m 0,0 0.5,0.2 m 0,0 0.5,0.2 m 0,0 0.5,0.2 m 0,0 0.5,0.2 m 0,0 0.45,0.2 m 0,0 0.5,0.2 m 0,0 0.5,0.25 m 0,0 0.45,0.2 m 0,0 0.5,0.25 m 0,0 0.45,0.25 m 0,0 0.5,0.2 m 0,0 0.45,0.25 m 0,0 0.45,0.25 m 0,0 0.45,0.25 m 0,0 0.5,0.25 m 0,0 0.45,0.3 m 0,0 0.45,0.25 m 0,0 0.45,0.3 m 0,0 0.4,0.25 m 0,0 0.45,0.3 m 0,0 0.45,0.3 m 0,0 0.45,0.3 m 0,0 0.4,0.3 m 0,0 0.45,0.3 m 0,0 0.4,0.3 m 0,0 0.45,0.35 m 0,0 0.4,0.3 m 0,0 0.4,0.35 m 0,0 0.4,0.3 m 0,0 0.4,0.35 m 0,0 0.8,0.7 m 0,0 0.8,0.7 m 0,0 0.75,0.75 m 0,0 0.75,0.75 m 0,0 0.75,0.75 m 0,0 0.7,0.8 m 0,0 0.35,0.4 m 0,0 0.3,0.4 m 0,0 0.35,0.4 m 0,0 0.35,0.45 m 0,0 0.3,0.4 m 0,0 0.35,0.45 m 0,0 0.3,0.4 m 0,0 0.3,0.45 m 0,0 0.3,0.45 m 0,0 0.3,0.45 m 0,0 0.3,0.45 m 0,0 0.3,0.45 m 0,0 0.3,0.45 m 0,0 0.3,0.45 m 0,0 0.25,0.55 m 0,0 0.25,0.5 m 0,0 0.25,0.5 m 0,0 0.25,0.55 m 0,0 0.2,0.55 m 0,0 0.25,0.55 m 0,0 0.2,0.55 m 0,0 0.15,0.55 m 0,0 0.2,0.6 m 0,0 0.15,0.55 m 0,0 0.15,0.6 m 0,0 0.15,0.6 m 0,0 0.15,0.6 m 0,0 0.1,0.6 m 0,0 0.1,0.6 m 0,0 0.1,0.65 m 0,0 0.1,0.6 m 0,0 0.05,0.65 m 0,0 0.05,0.65 m 0,0 0.05,0.6 m 0,0 0.05,0.65 m 0,0 v 0.65 m 0,0 v 0.65 m 0,0 v 0.7 m 0,0 v 0.65 m 0,0 -0.05,0.65 m 0,0 v 0.7 m 0,0 -0.05,0.65 m 0,0 -0.1,0.65 m 0,0 -0.05,0.7 m 0,0 -0.1,0.65 m 0,0 -0.1,0.7 m 0,0 -0.1,0.7 m 0,0 -0.15,0.65 m 0,0 -0.1,0.7 m 0,0 -0.15,0.7 m 0,0 -0.2,0.65 m 0,0 -0.15,0.7 m 0,0 -0.2,0.7 m 0,0 -0.2,0.65 m 0,0 -0.2,0.7 m 0,0 -0.2,0.7 m 0,0 -0.25,0.65 m 0,0 -0.25,0.7 m 0,0 -0.25,0.65 m 0,0 -0.25,0.7 m 0,0 -0.3,0.65 m 0,0 -0.3,0.7 m 0,0 -0.3,0.65 m 0,0 -0.3,0.65 m 0,0 -0.35,0.7 m 0,0 -0.35,0.65 m 0,0 -0.35,0.65 m 0,0 -0.35,0.65 m 0,0 -0.4,0.65 m 0,0 -0.4,0.65 m 0,0 -0.4,0.6 m 0,0 -0.4,0.65 m 0,0 -0.45,0.65 m 0,0 -0.45,0.6 m 0,0 -0.45,0.6 m 0,0 -0.45,0.65 m 0,0 -0.5,0.6 m 0,0 -0.45,0.55 m 0,0 -0.6,0.7 m 0,0 -0.65,0.7 m 0,0 -0.65,0.65 m 0,0 -0.65,0.65 m 0,0 -0.65,0.65 m 0,0 -0.7,0.65 m 0,0 -0.7,0.6 m 0,0 -0.75,0.55 m 0,0 -0.75,0.6 m 0,0 -0.75,0.55 m 0,0 -0.8,0.5 m 0,0 -0.75,0.55 m 0,0 -0.4,0.25 m 0,0 -0.45,0.25 m 0,0 -0.4,0.25 m 0,0 -0.4,0.2 m 0,0 -0.4,0.25 m 0,0 -0.45,0.25 m 0,0 -0.4,0.2 m 0,0 -0.45,0.2 m 0,0 -0.4,0.25 m 0,0 -0.45,0.2 m 0,0 -0.45,0.2 m 0,0 -0.4,0.2 m 0,0 -0.45,0.2 m 0,0 -0.45,0.2 m 0,0 -0.45,0.2 m 0,0 -0.45,0.15 m 0,0 -0.45,0.2 m 0,0 -0.45,0.15 m 0,0 -0.45,0.2 m 0,0 -0.45,0.15 m 0,0 -0.5,0.15 m 0,0 -0.45,0.15 m 0,0 -0.45,0.15 m 0,0 -0.45,0.15 m 0,0 -0.5,0.15 m 0,0 -0.45,0.1 m 0,0 -0.5,0.15 m 0,0 -0.45,0.1 m 0,0 -0.5,0.15 m 0,0 -0.45,0.1 m 0,0 -0.5,0.1 m 0,0 -0.5,0.1 m 0,0 -0.45,0.1 m 0,0 -0.5,0.1 m 0,0 -0.5,0.1 m 0,0 -0.45,0.05 m 0,0 -0.5,0.1 m 0,0 -0.5,0.05 m 0,0 -0.5,0.1 m 0,0 -0.5,0.05 m 0,0 -0.5,0.05 m 0,0 -0.45,0.05 m 0,0 -0.5,0.05 m 0,0 h -0.5 m 0,0 -0.5,0.05 m 0,0 -0.5,0.05 m 0,0 h -0.5 m 0,0 h -0.5 m 0,0 -0.5,0.05 m 0,0 h -0.5 m 0,0 h -0.5 m 0,0 -0.5,-0.05 m 0,0 h -0.5 m 0,0 h -0.5 m 0,0 -0.5,-0.05 m 0,0 h -0.5 m 0,0 -0.5,-0.05 m 0,0 -0.5,-0.05 m 0,0 -0.5,-0.05 m 0,0 -0.5,-0.05 m 0,0 -0.5,-0.05 m 0,0 -0.5,-0.05 m 0,0 -0.5,-0.1 m 0,0 -0.5,-0.05 m 0,0 -0.5,-0.1 m 0,0 -0.5,-0.1 m 0,0 -0.5,-0.1 m 0,0 -0.45,-0.1 m 0,0 -0.5,-0.1 m 0,0 -0.5,-0.1 m 0,0 -0.5,-0.15 m 0,0 -0.5,-0.1 m 0,0 -0.45,-0.15 m 0,0 -0.5,-0.15 m 0,0 -0.5,-0.15 m 0,0 -0.5,-0.15 m 0,0 -0.45,-0.15 m 0,0 -0.5,-0.15 m 0,0 -0.5,-0.2 m 0,0 -0.45,-0.15 m 0,0 -0.5,-0.2 m 0,0 -0.45,-0.2 m 0,0 -0.5,-0.2 m 0,0 -0.45,-0.2 m 0,0 -0.45,-0.2 m 0,0 -0.5,-0.2 m 0,0 -0.45,-0.25 m 0,0 -0.45,-0.2 m 0,0 L 278,423 m 0,0 -0.45,-0.25 m 0,0 -0.45,-0.25 m 0,0 -0.45,-0.25 m 0,0 -0.45,-0.25 m 0,0 -0.45,-0.3 m 0,0 -0.45,-0.25 m 0,0 -0.45,-0.3 m 0,0 -0.45,-0.3 m 0,0 -0.4,-0.3 m 0,0 -0.45,-0.3 m 0,0 -0.45,-0.3 m 0,0 -0.4,-0.35 m 0,0 -0.45,-0.3 m 0,0 -0.4,-0.35 m 0,0 -0.4,-0.35 m 0,0 -0.75,-0.6 m 0,0 -0.7,-0.6 m 0,0 -0.7,-0.65 m 0,0 -0.65,-0.65 m 0,0 -0.65,-0.65 m 0,0 -0.7,-0.7 m 0,0 -0.6,-0.65 m 0,0 -0.65,-0.75 m 0,0 -0.6,-0.7 m 0,0 -0.6,-0.75 m 0,0 -0.6,-0.75 m 0,0 -0.55,-0.75 m 0,0 -0.55,-0.75 m 0,0 -0.55,-0.8 m 0,0 -0.5,-0.8 m 0,0 -0.25,-0.4 m 0,0 -0.25,-0.4 m 0,0 -0.25,-0.45 m 0,0 -0.2,-0.4 m 0,0 -0.25,-0.4 m 0,0 -0.2,-0.45 m 0,0 -0.25,-0.4 m 0,0 -0.2,-0.4 m 0,0 -0.2,-0.45 m 0,0 -0.25,-0.45 m 0,0 -0.2,-0.4 m 0,0 -0.15,-0.45 m 0,0 -0.2,-0.45 m 0,0 -0.2,-0.4 m 0,0 -0.15,-0.45 m 0,0 -0.2,-0.45 m 0,0 -0.15,-0.45 m 0,0 -0.2,-0.45 m 0,0 -0.15,-0.45 m 0,0 -0.15,-0.45 m 0,0 -0.15,-0.45 m 0,0 -0.1,-0.45 m 0,0 -0.15,-0.5 m 0,0 -0.1,-0.45 m 0,0 -0.15,-0.45 m 0,0 -0.1,-0.45 m 0,0 -0.1,-0.5 m 0,0 -0.1,-0.45 m 0,0 -0.1,-0.5 m 0,0 -0.1,-0.45 m 0,0 -0.05,-0.5 m 0,0 -0.1,-0.45 m 0,0 -0.05,-0.5 m 0,0 -0.05,-0.5 m 0,0 -0.1,-0.45"
         id="path132" />
      <path
         d="m 256.55,392.4 v -0.5 m 0,0 -0.05,-0.5 m 0,0 -0.05,-0.45 m 0,0 v -0.5 m 0,0 -0.05,-0.5 m 0,0 v -0.5 m 0,0 v -0.5 m 0,0 v -0.5 m 0,0 v -0.5 m 0,0 0.05,-0.5 m 0,0 v -0.5 m 0,0 0.05,-0.5 m 0,0 0.05,-0.5 m 0,0 0.05,-0.5 m 0,0 0.05,-0.5 m 0,0 0.05,-0.5 m 0,0 0.1,-0.5 m 0,0 0.05,-0.55 m 0,0 0.1,-0.5 m 0,0 0.1,-0.5 m 0,0 0.1,-0.5 m 0,0 0.15,-0.5 m 0,0 0.1,-0.55 m 0,0 0.15,-0.5 m 0,0 0.15,-0.5 m 0,0 0.15,-0.55 m 0,0 0.15,-0.5 m 0,0 0.15,-0.5 m 0,0 0.2,-0.55 m 0,0 0.2,-0.5 m 0,0 0.2,-0.55 m 0,0 0.2,-0.5 m 0,0 0.2,-0.5 m 0,0 0.2,-0.55 m 0,0 0.25,-0.5 m 0,0 0.25,-0.55 m 0,0 0.25,-0.5 m 0,0 0.25,-0.55 m 0,0 0.25,-0.5 m 0,0 0.3,-0.55 m 0,0 0.3,-0.5 m 0,0 0.3,-0.55 m 0,0 0.3,-0.5 m 0,0 0.3,-0.55 m 0,0 0.35,-0.5 m 0,0 0.35,-0.55 m 0,0 0.35,-0.5 m 0,0 0.35,-0.55 m 0,0 0.35,-0.5 m 0,0 0.4,-0.55 m 0,0 0.4,-0.55 m 0,0 0.4,-0.5 m 0,0 0.4,-0.55 m 0,0 0.45,-0.5 m 0,0 0.4,-0.55 m 0,0 0.45,-0.5 m 0,0 0.45,-0.55 m 0,0 0.5,-0.5 m 0,0 0.45,-0.55 m 0,0 0.5,-0.5 m 0,0 0.5,-0.55 m 0,0 0.5,-0.5 m 0,0 0.55,-0.55 m 0,0 0.5,-0.5 m 0,0 0.5,-0.55 m 0,0 0.45,-0.5 m 0,0 0.5,-0.5 m 0,0 0.4,-0.5 m 0,0 0.45,-0.5 m 0,0 0.4,-0.5 m 0,0 0.35,-0.5 m 0,0 0.4,-0.45 m 0,0 0.3,-0.5 m 0,0 0.35,-0.45 m 0,0 0.3,-0.45 m 0,0 0.3,-0.45 m 0,0 0.25,-0.45 m 0,0 0.25,-0.45 m 0,0 0.2,-0.45 m 0,0 0.25,-0.4 m 0,0 0.15,-0.45 m 0,0 0.2,-0.4 m 0,0 0.15,-0.4 m 0,0 0.1,-0.45 m 0,0 0.15,-0.4 m 0,0 0.15,-0.75 m 0,0 0.1,-0.75 m 0,0 0.05,-0.75 m 0,0 -0.05,-0.75 m 0,0 -0.15,-0.65 m 0,0 -0.2,-0.7 m 0,0 -0.25,-0.65 m 0,0 -0.35,-0.6 m 0,0 -0.45,-0.6 m 0,0 -0.45,-0.6 m 0,0 -0.6,-0.55 m 0,0 -0.6,-0.55 m 0,0 -0.7,-0.5 m 0,0 -0.8,-0.5 m 0,0 -0.4,-0.25 m 0,0 -0.4,-0.25 m 0,0 -0.45,-0.2 m 0,0 -0.5,-0.25 m 0,0 -0.45,-0.2 m 0,0 -0.5,-0.25 m 0,0 -0.55,-0.2 m 0,0 -0.5,-0.2 m 0,0 -0.55,-0.2 m 0,0 -0.6,-0.2 m 0,0 -0.55,-0.2 m 0,0 -0.6,-0.15 m 0,0 -0.65,-0.2 m 0,0 -0.6,-0.2 m 0,0 -0.55,-0.1 m 0,0 -0.55,-0.1 m 0,0 -0.5,-0.15 m 0,0 -0.55,-0.1 m 0,0 -0.55,-0.1 m 0,0 -0.55,-0.1 m 0,0 -0.6,-0.1 m 0,0 -0.55,-0.1 m 0,0 -0.55,-0.1 m 0,0 -0.6,-0.1 m 0,0 -0.6,-0.1 m 0,0 -0.6,-0.1 m 0,0 -0.65,-0.05 m 0,0 -0.6,-0.1 m 0,0 -0.65,-0.1 m 0,0 -0.65,-0.1 m 0,0 -0.65,-0.05 m 0,0 -0.7,-0.1 m 0,0 -0.7,-0.1 m 0,0 -0.7,-0.1 m 0,0 -0.7,-0.05 m 0,0 -0.75,-0.1 m 0,0 -0.75,-0.1 m 0,0 -0.8,-0.05 m 0,0 -0.75,-0.1 m 0,0 -0.4,-0.05 m 0,0 -0.45,-0.05 m 0,0 -0.4,-0.05 m 0,0 h -0.4 m 0,0 -0.4,-0.05 m 0,0 -0.45,-0.05 m 0,0 -0.4,-0.05 m 0,0 -0.45,-0.05 m 0,0 -0.45,-0.05 m 0,0 -0.45,-0.05 m 0,0 L 245,335 m 0,0 -0.45,-0.05 m 0,0 -0.45,-0.05 m 0,0 -0.45,-0.05 m 0,0 h -0.35 m 0,0 h -0.5 m 0,0 h -0.7 m 0,0 h -0.45 m 0,0 h -0.45 m 0,0 -0.45,-0.05 m 0,0 h -0.5 m 0,0 h -0.55 m 0,0 h -0.55 m 0,0 -0.55,-0.05 m 0,0 H 238 m 0,0 h -0.55 m 0,0 -0.6,-0.05 m 0,0 h -0.55 m 0,0 h -0.6 m 0,0 h -0.55 m 0,0 -0.55,-0.05 m 0,0 h -0.5 m 0,0 h -0.5 m 0,0 h -0.45 m 0,0 -0.45,-0.05 m 0,0 h -0.8 m 0,0 h -0.55 m 0,0 -0.5,-0.05 m 0,0 h -0.7 m 0,0 -0.7,-0.05 m 0,0 -0.75,-0.05 m 0,0 h -0.75 m 0,0 -0.75,-0.05 m 0,0 -0.8,-0.05 m 0,0 h -0.75 m 0,0 -0.45,-0.05 m 0,0 h -0.4 m 0,0 h -0.4 m 0,0 -0.4,-0.05 m 0,0 h -0.45 m 0,0 -0.4,-0.05 m 0,0 h -0.45 m 0,0 h -0.4 m 0,0 -0.45,-0.05 m 0,0 h -0.45 m 0,0 H 221 m 0,0 -0.45,-0.05 m 0,0 h -0.45 m 0,0 h -0.45 m 0,0 -0.45,-0.05 m 0,0 h -0.45 m 0,0 h -0.45 m 0,0 -0.45,-0.05 m 0,0 h -0.5 m 0,0 h -0.45 m 0,0 -0.45,-0.05 m 0,0 h -0.5 m 0,0 h -0.45 m 0,0 h -0.45 m 0,0 -0.5,-0.05 m 0,0 h -0.45 m 0,0 h -0.5 m 0,0 h -0.45 m 0,0 -0.5,-0.05 m 0,0 h -0.5 m 0,0 h -0.45 m 0,0 h -0.5 m 0,0 -0.5,-0.05 m 0,0 h -0.45 m 0,0 h -0.5 m 0,0 h -0.5 m 0,0 h -0.5 m 0,0 -0.45,-0.05 m 0,0 h -0.5 m 0,0 h -0.5 m 0,0 h -0.5 m 0,0 h -0.45 m 0,0 h -0.5 m 0,0 h -0.5 m 0,0 h -0.5 m 0,0 h -0.5 m 0,0 h -0.45 m 0,0 h -0.5 m 0,0 h -0.5 m 0,0 -0.5,-0.05 m 0,0 -0.5,0.05 m 0,0 h -0.45 m 0,0 h -0.5 m 0,0 h -0.5 m 0,0 h -0.5 m 0,0 h -0.45 m 0,0 H 199 m 0,0 h -0.5 m 0,0 h -0.45 m 0,0 h -0.5 m 0,0 h -0.45 m 0,0 -0.5,0.05 m 0,0 h -0.45 m 0,0 h -0.5 m 0,0 h -0.45 m 0,0 -0.5,0.05 m 0,0 h -0.45 m 0,0 h -0.45 m 0,0 h -0.5 m 0,0 -0.45,0.05 m 0,0 h -0.45 m 0,0 -0.45,0.05 m 0,0 h -0.45 m 0,0 h -0.45 m 0,0 -0.45,0.05 m 0,0 h -0.45 m 0,0 -0.45,0.05 m 0,0 h -0.45 m 0,0 -0.45,0.05 m 0,0 h -0.4 m 0,0 -0.45,0.05 m 0,0 -0.45,0.05 m 0,0 h -0.4 m 0,0 -0.45,0.05 m 0,0 -0.4,0.05 m 0,0 h -0.4 m 0,0 -0.4,0.05 m 0,0 -0.4,0.05 m 0,0 -0.8,0.05 m 0,0 -0.8,0.1 m 0,0 -0.75,0.1 m 0,0 -0.75,0.1 m 0,0 -0.75,0.1 m 0,0 -0.7,0.1 m 0,0 -0.7,0.1 m 0,0 -0.65,0.15 m 0,0 -0.65,0.1 m 0,0 -0.65,0.15 m 0,0 -0.6,0.15 m 0,0 -0.55,0.1 m 0,0 -0.55,0.15"
         id="path134" />
      <path
         d="m 176.15,335.85 0.65,-0.7 m 0,0 0.35,-0.45 m 0,0 0.3,-0.55 m 0,0 0.3,-0.55 m 0,0 0.3,-0.6 m 0,0 0.25,-0.65 m 0,0 0.25,-0.7 m 0,0 0.2,-0.75 m 0,0 0.2,-0.8 m 0,0 0.1,-0.4 m 0,0 0.1,-0.4 m 0,0 0.1,-0.4 m 0,0 0.05,-0.45 m 0,0 0.05,-0.4 m 0,0 0.05,-0.45 m 0,0 0.05,-0.45 m 0,0 0.05,-0.45 m 0,0 0.05,-0.45 m 0,0 v -0.45 m 0,0 v -0.45 m 0,0 0.05,-0.5 m 0,0 -0.05,-0.55 m 0,0 v -0.55 m 0,0 v -0.55 m 0,0 -0.05,-0.5 m 0,0 -0.05,-0.55 m 0,0 -0.05,-0.5 m 0,0 -0.1,-0.55 m 0,0 -0.05,-0.5 m 0,0 -0.1,-0.5 m 0,0 -0.1,-0.45 m 0,0 -0.1,-0.5 m 0,0 -0.1,-0.45 m 0,0 -0.15,-0.45 m 0,0 -0.15,-0.4 m 0,0 -0.1,-0.45 m 0,0 -0.15,-0.4 m 0,0 -0.35,-0.75 m 0,0 -0.35,-0.7 m 0,0 -0.4,-0.65 m 0,0 -0.4,-0.55 m 0,0 -0.45,-0.5 m 0,0 -0.45,-0.4 m 0,0 -0.5,-0.35 m 0,0 -0.5,-0.25 m 0,0 0.65,-0.1 m 0,0 0.65,-0.1 m 0,0 0.7,-0.15 m 0,0 0.7,-0.1 m 0,0 0.7,-0.1 m 0,0 0.7,-0.1 m 0,0 0.7,-0.1 m 0,0 0.7,-0.05 m 0,0 0.75,-0.1 m 0,0 0.75,-0.1 m 0,0 0.75,-0.05 m 0,0 0.75,-0.1 m 0,0 0.75,-0.05 m 0,0 0.75,-0.05 m 0,0 0.8,-0.1 m 0,0 0.8,-0.05 m 0,0 0.75,-0.05 m 0,0 h 0.4 m 0,0 0.4,-0.05 m 0,0 h 0.4 m 0,0 0.45,-0.05 m 0,0 h 0.4 m 0,0 0.4,-0.05 m 0,0 h 0.4 m 0,0 h 0.4 m 0,0 0.45,-0.05 m 0,0 h 0.4 m 0,0 h 0.4 m 0,0 0.45,-0.05 m 0,0 h 0.4 m 0,0 h 0.45 m 0,0 0.4,-0.05 m 0,0 h 0.45 m 0,0 h 0.4 m 0,0 h 0.45 m 0,0 0.4,-0.05 m 0,0 h 0.45 m 0,0 h 0.45 m 0,0 h 0.4 m 0,0 h 0.45 m 0,0 h 0.45 m 0,0 h 0.45 m 0,0 0.45,-0.05 m 0,0 h 0.45 m 0,0 h 0.4 m 0,0 h 0.45 m 0,0 H 200 m 0,0 h 0.45 m 0,0 h 0.45 m 0,0 h 0.5 m 0,0 h 0.45 m 0,0 h 0.45 m 0,0 h 0.45 m 0,0 h 0.45 m 0,0 h 0.45 m 0,0 h 0.5 m 0,0 h 0.45 m 0,0 h 0.45 m 0,0 0.5,0.05 m 0,0 H 206 m 0,0 h 0.5 m 0,0 h 0.45 m 0,0 h 0.45 m 0,0 h 0.5 m 0,0 h 0.45 m 0,0 0.5,0.05 m 0,0 h 0.5 m 0,0 h 0.45 m 0,0 h 0.5 m 0,0 h 0.5 m 0,0 0.45,0.05 m 0,0 h 0.5 m 0,0 h 0.5 m 0,0 h 0.5 m 0,0 0.45,0.05 m 0,0 h 0.5 m 0,0 h 0.5 m 0,0 h 0.5 m 0,0 0.5,0.05 m 0,0 h 0.5 m 0,0 h 0.5 m 0,0 0.5,0.05 m 0,0 h 0.5 m 0,0 h 0.5 m 0,0 0.5,0.05 m 0,0 h 0.5 m 0,0 h 0.5 m 0,0 0.5,0.05 m 0,0 h 0.55 m 0,0 h 0.5 m 0,0 0.5,0.05 m 0,0 h 0.5 m 0,0 0.55,0.05 m 0,0 h 0.5 m 0,0 h 0.5 m 0,0 0.55,0.05 m 0,0 h 0.5 m 0,0 0.5,0.05 m 0,0 h 0.55 m 0,0 0.5,0.05 m 0,0 h 0.55 m 0,0 h 0.5 m 0,0 0.55,0.05 m 0,0 h 0.5 m 0,0 0.55,0.05 m 0,0 h 0.5 m 0,0 0.55,0.05 m 0,0 h 0.55 m 0,0 0.5,0.05 m 0,0 h 0.55 m 0,0 h 0.55 m 0,0 0.55,0.05 m 0,0 0.6,0.05 m 0,0 h 0.55 m 0,0 0.55,0.05 m 0,0 h 0.5 m 0,0 0.5,0.05 m 0,0 h 0.5 m 0,0 0.45,0.05 m 0,0 h 0.45 m 0,0 0.45,0.05 m 0,0 h 0.45 m 0,0 0.4,0.05 m 0,0 h 0.75 m 0,0 0.7,0.05 m 0,0 0.65,0.05 m 0,0 h 0.6 m 0,0 0.55,0.05 m 0,0 h 0.5 m 0,0 0.45,0.05 m 0,0 h 0.4 m 0,0 0.65,0.05 m 0,0 h 0.55 m 0,0 0.4,0.05 m 0,0 h 0.45 m 0,0 h 0.25 m 0,0 h 0.6 m 0,0 0.45,0.05 m 0,0 0.5,0.05 m 0,0 0.5,0.05 m 0,0 h 0.5 m 0,0 0.45,0.05 m 0,0 0.5,0.05 m 0,0 0.5,0.05 m 0,0 0.45,0.05 m 0,0 h 0.45 m 0,0 0.5,0.05 m 0,0 0.45,0.05 m 0,0 0.45,0.05 m 0,0 0.45,0.05 m 0,0 0.45,0.05 m 0,0 0.45,0.05 m 0,0 0.45,0.05 m 0,0 0.45,0.05 m 0,0 0.4,0.05 m 0,0 0.45,0.05 m 0,0 0.45,0.05 m 0,0 0.4,0.1 m 0,0 0.45,0.05 m 0,0 0.4,0.05 m 0,0 0.4,0.05 m 0,0 0.45,0.05 m 0,0 0.4,0.05 m 0,0 0.4,0.05 m 0,0 0.4,0.1 m 0,0 0.8,0.1 m 0,0 0.8,0.15 m 0,0 0.75,0.1 m 0,0 0.75,0.15 m 0,0 0.75,0.1 m 0,0 0.75,0.15 m 0,0 0.7,0.15 m 0,0 0.7,0.1 m 0,0 0.7,0.15 m 0,0 0.7,0.15 m 0,0 0.65,0.1 m 0,0 0.65,0.15 m 0,0 0.65,0.1 m 0,0 0.65,0.15 m 0,0 0.6,0.15 m 0,0 0.65,0.1 m 0,0 0.6,0.15 m 0,0 0.6,0.1 m 0,0 0.55,0.15 m 0,0 0.55,0.1 m 0,0 0.5,0.1 m 0,0 0.55,0.1 m 0,0 0.55,0.1 m 0,0 0.5,0.1 m 0,0 0.55,0.1 m 0,0 0.5,0.1 m 0,0 0.5,0.1 m 0,0 0.55,0.1 m 0,0 0.5,0.1 m 0,0 0.5,0.05 m 0,0 0.5,0.1 m 0,0 0.5,0.1 m 0,0 0.45,0.05 m 0,0 0.5,0.1 m 0,0 0.5,0.05 m 0,0 0.5,0.1 m 0,0 0.45,0.05 m 0,0 0.5,0.1 m 0,0 0.5,0.05 m 0,0 0.45,0.05 m 0,0 0.5,0.05 m 0,0 0.5,0.05 m 0,0 0.45,0.05 m 0,0 0.5,0.05 m 0,0 0.5,0.05 m 0,0 h 0.45 m 0,0 0.5,0.05 m 0,0 h 0.5 m 0,0 0.45,0.05 m 0,0 h 0.5 m 0,0 h 0.5 m 0,0 h 0.5 m 0,0 h 0.5 m 0,0 h 0.5 m 0,0 h 0.5 m 0,0 0.5,-0.05 m 0,0 h 0.5 m 0,0 0.55,-0.05 m 0,0 h 0.5 m 0,0 0.55,-0.05 m 0,0 0.5,-0.05 m 0,0 0.55,-0.05 m 0,0 0.55,-0.1 m 0,0 0.55,-0.05 m 0,0 0.55,-0.1 m 0,0 0.55,-0.05 m 0,0 0.55,-0.1 m 0,0 0.6,-0.1 m 0,0 0.55,-0.1 m 0,0 0.6,-0.1 m 0,0 0.6,-0.15 m 0,0 0.6,-0.1 m 0,0 0.6,-0.15 m 0,0 0.65,-0.15 m 0,0 0.6,-0.15 m 0,0 0.65,-0.15 m 0,0 0.65,-0.2 m 0,0 0.65,-0.15 m 0,0 0.65,-0.2 m 0,0 0.7,-0.2 m 0,0 0.7,-0.2 m 0,0 0.7,-0.25 m 0,0 0.65,-0.2 m 0,0 0.4,-0.15 m 0,0 0.45,-0.2 m 0,0 0.5,-0.2 m 0,0 0.5,-0.2 m 0,0 0.6,-0.2 m 0,0 0.55,-0.25 m 0,0 0.6,-0.25 m 0,0 0.65,-0.25 m 0,0 0.65,-0.3 m 0,0 0.65,-0.25 m 0,0 0.65,-0.3 m 0,0 0.65,-0.3 m 0,0 0.7,-0.3 m 0,0 0.65,-0.3 m 0,0 0.7,-0.25 m 0,0 0.65,-0.3 m 0,0 0.65,-0.3 m 0,0 0.65,-0.3 m 0,0 0.6,-0.25 m 0,0 0.6,-0.3 m 0,0 0.6,-0.25 m 0,0 0.55,-0.25 m 0,0 0.5,-0.25 m 0,0 0.5,-0.2 m 0,0 0.45,-0.2 m 0,0 0.4,-0.2 m 0,0 0.65,-0.35 m 0,0 0.5,-0.25 m 0,0 0.75,-0.3 m 0,0 0.75,-0.3 m 0,0 0.75,-0.3 m 0,0 0.8,-0.25 m 0,0 0.75,-0.3 m 0,0 0.8,-0.25 m 0,0 0.75,-0.25 m 0,0 0.8,-0.25 m 0,0 0.8,-0.25 m 0,0 0.75,-0.25 m 0,0 0.8,-0.2 m 0,0 0.8,-0.25 m 0,0 0.8,-0.2 m 0,0 0.8,-0.2 m 0,0 0.8,-0.2 m 0,0 0.4,-0.05 m 0,0 0.4,-0.1 m 0,0 0.4,-0.1 m 0,0 0.4,-0.05 m 0,0 0.4,-0.1 m 0,0 0.4,-0.1 m 0,0 0.4,-0.05 m 0,0 0.4,-0.1 m 0,0 0.4,-0.05 m 0,0 0.45,-0.05 m 0,0 0.4,-0.1 m 0,0 0.4,-0.05 m 0,0 0.4,-0.05 m 0,0 0.45,-0.05 m 0,0 0.4,-0.05 m 0,0 0.4,-0.05 m 0,0 0.45,-0.05 m 0,0 0.4,-0.05 m 0,0 0.4,-0.05 m 0,0 0.45,-0.05 m 0,0 0.4,-0.05 m 0,0 h 0.45 m 0,0 0.4,-0.05 m 0,0 0.45,-0.05 m 0,0 h 0.4 m 0,0 0.45,-0.05 m 0,0 h 0.45 m 0,0 h 0.4 m 0,0 0.45,-0.05 m 0,0 h 0.4 m 0,0 h 0.45 m 0,0 h 0.45 m 0,0 h 0.45 m 0,0 0.45,-0.05 m 0,0 h 0.25 m 0,0 h 0.75 m 0,0 0.5,-0.05 m 0,0 h 0.55 m 0,0 0.65,-0.05 m 0,0 h 0.65 m 0,0 h 0.7 m 0,0 0.7,-0.05 m 0,0 h 0.7 m 0,0 0.7,0.05 m 0,0 h 0.65 m 0,0 h 0.6 m 0,0 0.55,0.05 m 0,0 0.45,0.05 m 0,0 0.4,0.15 m 0,0 0.4,0.1 m 0,0 0.8,0.2 m 0,0 0.75,0.1 m 0,0 0.8,0.05 m 0,0 h 0.4 m 0,0 0.4,-0.05 m 0,0 0.45,-0.05 m 0,0 0.4,-0.1 m 0,0 0.45,-0.15 m 0,0 0.4,-0.15 m 0,0 0.45,-0.2 m 0,0 0.5,-0.25 m 0,0 0.2,-0.15 m 0,0 0.65,-0.4 m 0,0 0.4,-0.25 m 0,0 0.5,-0.35 m 0,0 0.5,-0.3 m 0,0 0.55,-0.35 m 0,0 0.5,-0.35 m 0,0 0.5,-0.3 m 0,0 0.5,-0.35 m 0,0 0.4,-0.25 m 0,0 0.65,-0.4 m 0,0 0.25,-0.2 m 0,0 0.55,-0.35 m 0,0 0.6,-0.35 m 0,0 0.6,-0.4 m 0,0 0.55,-0.35 m 0,0 0.6,-0.4 m 0,0 0.6,-0.35 m 0,0 0.6,-0.35 m 0,0 0.6,-0.35 m 0,0 0.6,-0.35 m 0,0 0.6,-0.35 m 0,0 0.65,-0.35 m 0,0 0.6,-0.3 m 0,0 0.65,-0.3 m 0,0 0.65,-0.3 m 0,0 0.65,-0.3 m 0,0 0.7,-0.3 m 0,0 0.7,-0.25 m 0,0 0.7,-0.25 m 0,0 0.7,-0.25 m 0,0 0.75,-0.25 m 0,0 0.75,-0.2 m 0,0 0.75,-0.2 m 0,0 0.8,-0.15 m 0,0 0.4,-0.1 m 0,0 0.4,-0.05 m 0,0 0.45,-0.1 m 0,0 0.4,-0.05 m 0,0 0.45,-0.05 m 0,0 0.4,-0.05 m 0,0 0.45,-0.05 m 0,0 0.45,-0.05 m 0,0 0.45,-0.05 m 0,0 0.45,-0.05 m 0,0 h 0.45 m 0,0 0.45,-0.05 m 0,0 h 0.5 m 0,0 0.5,-0.05 m 0,0 h 0.45 m 0,0 h 0.5 m 0,0 h 0.5 m 0,0 h 0.55 m 0,0 0.2,0.05 m 0,0 0.65,0.1 m 0,0 0.4,0.05 m 0,0 0.5,0.05 m 0,0 0.5,0.05 m 0,0 0.55,0.05 m 0,0 0.5,0.1 m 0,0 0.5,0.05 m 0,0 0.5,0.05 m 0,0 0.4,0.05 m 0,0 0.65,0.1 m 0,0 h 0.25 m 0,0 0.45,0.05 m 0,0 0.45,0.05 m 0,0 h 0.4 m 0,0 0.45,0.05 m 0,0 0.75,0.05 m 0,0 h 0.8 m 0,0 0.7,0.05 m 0,0 0.7,-0.05 m 0,0 h 0.65 m 0,0 0.65,-0.05 m 0,0 0.65,-0.1 m 0,0 0.65,-0.15 m 0,0 0.65,-0.2 m 0,0 0.65,-0.2 m 0,0 0.65,-0.3 m 0,0 0.75,-0.3 m 0,0 0.75,-0.4 m 0,0 0.8,-0.5 m 0,0 0.45,-0.35 m 0,0 0.5,-0.4 m 0,0 0.55,-0.35 m 0,0 0.55,-0.4 m 0,0 0.5,-0.45 m 0,0 0.55,-0.4 m 0,0 0.5,-0.5 m 0,0 0.5,-0.5 m 0,0 0.5,-0.5 m 0,0 0.55,-0.5 m 0,0 0.55,-0.5 m 0,0 0.6,-0.5 m 0,0 0.6,-0.5 m 0,0 0.65,-0.5 m 0,0 0.65,-0.5 m 0,0 0.7,-0.45 m 0,0 0.7,-0.45 m 0,0 0.7,-0.45 m 0,0 0.75,-0.45 m 0,0 0.8,-0.4 m 0,0 0.4,-0.15 m 0,0 0.4,-0.2 m 0,0 0.45,-0.2 m 0,0 0.4,-0.15 m 0,0 0.45,-0.15 m 0,0 0.45,-0.15 m 0,0 0.45,-0.15 m 0,0 0.5,-0.15 m 0,0 h 0.3"
         id="path136" />
      <path
         d="m 423.95,279.5 -0.5,0.35 m 0,0 -0.4,0.5 m 0,0 -0.35,0.65 m 0,0 -0.35,0.75 m 0,0 -0.15,0.45 m 0,0 -0.1,0.45 m 0,0 -0.1,0.45 m 0,0 -0.1,0.45 m 0,0 -0.1,0.5 m 0,0 -0.05,0.5 m 0,0 v 0.5 m 0,0 v 0.45 m 0,0 v 0.7 m 0,0 0.05,0.65 m 0,0 0.05,0.6 m 0,0 0.1,0.6 m 0,0 0.1,0.55 m 0,0 0.15,0.55 m 0,0 0.15,0.45 m 0,0 0.2,0.45 m 0,0 0.4,0.8 m 0,0 0.5,0.55 m 0,0 0.5,0.35 m 0,0 0.6,0.1 m 0,0 -0.6,0.4 m 0,0 -0.6,0.4 m 0,0 -0.55,0.4 m 0,0 -0.6,0.4 m 0,0 -0.6,0.45 m 0,0 -0.55,0.5 m 0,0 -0.6,0.55 m 0,0 -0.55,0.55 m 0,0 -0.75,0.65 m 0,0 -0.7,0.65 m 0,0 -0.7,0.6 m 0,0 -0.75,0.6 m 0,0 -0.75,0.6 m 0,0 -0.75,0.55 m 0,0 -0.75,0.55 m 0,0 -0.4,0.25 m 0,0 -0.4,0.25 m 0,0 -0.7,0.45 m 0,0 -0.7,0.4 m 0,0 -0.7,0.35 m 0,0 -0.65,0.35 m 0,0 -0.65,0.3 m 0,0 -0.65,0.25 m 0,0 -0.6,0.25 m 0,0 -0.6,0.25 m 0,0 -0.65,0.2 m 0,0 -0.6,0.2 m 0,0 -0.55,0.15 m 0,0 -0.6,0.15 m 0,0 -0.6,0.15 m 0,0 -0.55,0.1 m 0,0 -0.55,0.1 m 0,0 -0.55,0.05 m 0,0 -0.55,0.1 m 0,0 -0.55,0.05 m 0,0 h -0.55 m 0,0 -0.5,0.05 m 0,0 h -0.55 m 0,0 h -0.5 m 0,0 h -0.5 m 0,0 h -0.55 m 0,0 h -0.5 m 0,0 -0.5,-0.05 m 0,0 h -0.5 m 0,0 -0.5,-0.05 m 0,0 h -0.5 m 0,0 -0.5,-0.05 m 0,0 -0.5,-0.05 m 0,0 -0.5,-0.05 m 0,0 -0.5,-0.05 m 0,0 -0.45,-0.05 m 0,0 -0.45,-0.05 m 0,0 -0.35,-0.05 m 0,0 -0.75,-0.1 m 0,0 -0.6,-0.05 m 0,0 -0.5,-0.05 m 0,0 -0.45,-0.05 m 0,0 -0.6,-0.1 m 0,0 -0.65,-0.1 m 0,0 h -0.65 m 0,0 h -0.6 m 0,0 h -0.6 m 0,0 h -0.6 m 0,0 -0.55,0.05 m 0,0 -0.55,0.05 m 0,0 -0.55,0.05 m 0,0 -0.5,0.1 m 0,0 -0.5,0.1 m 0,0 -0.5,0.1 m 0,0 -0.5,0.1 m 0,0 -0.45,0.15 m 0,0 -0.5,0.1 m 0,0 -0.45,0.15 m 0,0 -0.45,0.2 m 0,0 -0.45,0.15 m 0,0 -0.45,0.2 m 0,0 -0.45,0.2 m 0,0 -0.45,0.2 m 0,0 -0.4,0.2 m 0,0 -0.45,0.25 m 0,0 -0.45,0.2 m 0,0 L 379,306 m 0,0 -0.4,0.25 m 0,0 -0.45,0.25 m 0,0 -0.45,0.3 m 0,0 -0.45,0.25 m 0,0 -0.45,0.3 m 0,0 -0.5,0.25 m 0,0 -0.45,0.3 m 0,0 -0.5,0.3 m 0,0 -0.45,0.3 m 0,0 -0.8,0.65 m 0,0 -0.25,0.5 m 0,0 0.15,0.5 m 0,0 0.45,0.4 m 0,0 0.7,0.35 m 0,0 0.75,0.25 m 0,0 0.8,0.25 m 0,0 0.7,0.1 m 0,0 0.4,0.1 m 0,0 0.4,0.1 m 0,0 0.4,0.1 m 0,0 0.4,0.1 m 0,0 0.4,0.1 m 0,0 0.4,0.1 m 0,0 0.4,0.1 m 0,0 0.45,0.1 m 0,0 0.4,0.1 m 0,0 0.4,0.15 m 0,0 0.45,0.1 m 0,0 0.4,0.1 m 0,0 0.4,0.1 m 0,0 0.45,0.1 m 0,0 0.4,0.1 m 0,0 0.45,0.1 m 0,0 0.4,0.15 m 0,0 0.4,0.1 m 0,0 0.45,0.1 m 0,0 0.4,0.1 m 0,0 0.45,0.15 m 0,0 0.45,0.1 m 0,0 0.4,0.1 m 0,0 0.45,0.1 m 0,0 0.4,0.15 m 0,0 0.45,0.1 m 0,0 0.45,0.1 m 0,0 0.4,0.1 m 0,0 0.45,0.15 m 0,0 0.45,0.1 m 0,0 0.4,0.1 m 0,0 0.45,0.1 m 0,0 0.45,0.15 m 0,0 0.4,0.1 m 0,0 0.45,0.1 m 0,0 0.45,0.1 m 0,0 0.45,0.1 m 0,0 0.4,0.15 m 0,0 0.45,0.1 m 0,0 0.45,0.1 m 0,0 0.45,0.1 m 0,0 0.4,0.1 m 0,0 0.45,0.1 m 0,0 0.45,0.1 m 0,0 0.45,0.1 m 0,0 0.4,0.15 m 0,0 0.45,0.1 m 0,0 0.45,0.1 m 0,0 0.45,0.05 m 0,0 0.45,0.1 m 0,0 0.4,0.1 m 0,0 0.45,0.1 m 0,0 0.45,0.1 m 0,0 0.45,0.1 m 0,0 0.45,0.1 m 0,0 0.4,0.1 m 0,0 0.45,0.05 m 0,0 0.45,0.1 m 0,0 0.45,0.1 m 0,0 0.45,0.05 m 0,0 0.4,0.1 m 0,0 0.45,0.05 m 0,0 0.45,0.1 m 0,0 0.45,0.05 m 0,0 0.4,0.1 m 0,0 0.45,0.05 m 0,0 0.45,0.1 m 0,0 0.45,0.05 m 0,0 0.4,0.05 m 0,0 0.45,0.05 m 0,0 0.45,0.05 m 0,0 0.4,0.05 m 0,0 0.45,0.1 m 0,0 0.45,0.05 m 0,0 h 0.4 m 0,0 0.45,0.05 m 0,0 0.4,0.05 m 0,0 0.45,0.05 m 0,0 0.45,0.05 m 0,0 h 0.4 m 0,0 0.45,0.05 m 0,0 h 0.4 m 0,0 0.45,0.05 m 0,0 h 0.4 m 0,0 0.45,0.05 m 0,0 h 0.4 m 0,0 h 0.45 m 0,0 h 0.4 m 0,0 h 0.4 m 0,0 h 0.45 m 0,0 h 0.4 m 0,0 h 0.4 m 0,0 h 0.45 m 0,0 h 0.4 m 0,0 0.4,-0.05 m 0,0 h 0.4 m 0,0 0.4,-0.05 m 0,0 h 0.45 m 0,0 0.4,-0.05 m 0,0 0.4,-0.05 m 0,0 0.4,-0.05 m 0,0 0.4,-0.05 m 0,0 0.8,-0.1 m 0,0 0.8,-0.1 m 0,0 0.8,-0.15 m 0,0 0.75,-0.15 m 0,0 0.8,-0.2 m 0,0 0.75,-0.2 m 0,0 0.75,-0.2 m 0,0 0.75,-0.25 m 0,0 0.75,-0.25 m 0,0 0.75,-0.3 m 0,0 0.7,-0.3 m 0,0 0.7,-0.35 m 0,0 0.75,-0.35 m 0,0 h 0.35 m 0,0 0.65,-0.3 m 0,0 0.7,-0.3 m 0,0 0.7,-0.3 m 0,0 0.7,-0.35 m 0,0 0.7,-0.3 m 0,0 0.65,-0.3 m 0,0 0.7,-0.3 m 0,0 0.7,-0.3 m 0,0 0.7,-0.3 m 0,0 0.65,-0.3 m 0,0 0.7,-0.3 m 0,0 0.7,-0.25 m 0,0 0.65,-0.3 m 0,0 0.7,-0.3 m 0,0 0.65,-0.25 m 0,0 0.7,-0.3 m 0,0 0.65,-0.25 m 0,0 0.7,-0.3 m 0,0 0.65,-0.25 m 0,0 0.7,-0.3 m 0,0 0.65,-0.25 m 0,0 0.7,-0.25 m 0,0 0.65,-0.25 m 0,0 0.7,-0.25 m 0,0 0.65,-0.25 m 0,0 0.65,-0.25 m 0,0 0.7,-0.25 m 0,0 0.65,-0.25 m 0,0 0.7,-0.25 m 0,0 0.65,-0.25 m 0,0 0.65,-0.2 m 0,0 0.65,-0.25 m 0,0 0.7,-0.25 m 0,0 0.65,-0.2 m 0,0 0.65,-0.25 m 0,0 0.65,-0.2 m 0,0 0.7,-0.2 m 0,0 0.65,-0.25 m 0,0 0.65,-0.2 m 0,0 0.65,-0.2 m 0,0 0.7,-0.2 m 0,0 0.65,-0.2 m 0,0 0.65,-0.2 m 0,0 0.65,-0.2 m 0,0 0.65,-0.2 m 0,0 0.65,-0.2 m 0,0 0.65,-0.2 m 0,0 0.7,-0.2 m 0,0 0.65,-0.15 m 0,0 0.65,-0.2 m 0,0 0.65,-0.15 m 0,0 0.65,-0.2 m 0,0 0.65,-0.15 m 0,0 0.65,-0.15 m 0,0 0.65,-0.2 m 0,0 0.65,-0.15 m 0,0 0.65,-0.15 m 0,0 0.65,-0.15 m 0,0 0.65,-0.15 m 0,0 0.65,-0.15 m 0,0 0.7,-0.15 m 0,0 0.65,-0.15 m 0,0 0.65,-0.15 m 0,0 0.65,-0.15 m 0,0 0.65,-0.1 m 0,0 0.65,-0.15 m 0,0 0.65,-0.1 m 0,0 0.65,-0.15 m 0,0 0.65,-0.1 m 0,0 0.65,-0.15 m 0,0 0.65,-0.1 m 0,0 0.65,-0.1 m 0,0 0.65,-0.1 m 0,0 0.65,-0.1 m 0,0 0.65,-0.1 m 0,0 0.65,-0.1 m 0,0 0.65,-0.1 m 0,0 0.65,-0.1 m 0,0 0.65,-0.1 m 0,0 0.65,-0.1 m 0,0 0.65,-0.05 m 0,0 0.65,-0.1 m 0,0 0.65,-0.05 m 0,0 0.65,-0.1 m 0,0 0.7,-0.05 m 0,0 0.65,-0.05 m 0,0 0.65,-0.1 m 0,0 0.65,-0.05 m 0,0 0.65,-0.05 m 0,0 0.65,-0.05 m 0,0 0.65,-0.05 m 0,0 0.65,-0.05 m 0,0 0.65,-0.05 m 0,0 0.65,-0.05 m 0,0 h 0.7 m 0,0 0.65,-0.05 m 0,0 0.65,-0.05 m 0,0 h 0.65 m 0,0 0.65,-0.05 m 0,0 h 0.65 m 0,0 h 0.7 m 0,0 0.65,-0.05 m 0,0 h 0.65 m 0,0 H 500 m 0,0 h 0.7 m 0,0 h 0.65 m 0,0 H 502 m 0,0 h 0.65 m 0,0 h 0.7 m 0,0 0.65,0.05 m 0,0 h 0.65 m 0,0 h 0.7 m 0,0 0.65,0.05 m 0,0 h 0.65 m 0,0 0.7,0.05 m 0,0 0.65,0.05 m 0,0 h 0.7 m 0,0 0.65,0.05 m 0,0 0.7,0.05 m 0,0 0.65,0.05 m 0,0 0.7,0.05 m 0,0 0.65,0.05 m 0,0 0.7,0.1 m 0,0 0.65,0.05 m 0,0 0.7,0.05 m 0,0 0.65,0.1 m 0,0 0.7,0.05 m 0,0 0.7,0.05 m 0,0 0.5,0.1 m 0,0 0.45,0.15 m 0,0 0.45,0.2 m 0,0 0.4,0.3 m 0,0 0.7,0.8 m 0,0 0.3,0.45 m 0,0 0.3,0.5 m 0,0 0.2,0.55 m 0,0 0.2,0.6 m 0,0 0.15,0.6 m 0,0 0.1,0.6 m 0,0 0.1,0.65 m 0,0 v 0.65 m 0,0 V 306 m 0,0 -0.05,0.65 m 0,0 -0.05,0.65 m 0,0 -0.15,0.65 m 0,0 -0.15,0.6 m 0,0 -0.25,0.55 m 0,0 -0.25,0.55 m 0,0 -0.3,0.55 m 0,0 -0.35,0.45 m 0,0 -0.4,0.4 m 0,0 -0.4,0.35 m 0,0 -0.5,0.3 m 0,0 -0.5,0.25 m 0,0 -0.6,0.15 m 0,0 -0.6,0.1 m 0,0 -0.7,-0.05 m 0,0 -0.7,-0.1 m 0,0 -0.75,-0.2 m 0,0 -0.6,-0.05 m 0,0 -0.6,-0.05 m 0,0 -0.6,-0.05 m 0,0 -0.6,-0.1 m 0,0 -0.6,-0.05 m 0,0 -0.6,-0.05 m 0,0 h -0.6 m 0,0 -0.6,-0.05 m 0,0 -0.6,-0.05 m 0,0 -0.6,-0.05 m 0,0 h -0.6 m 0,0 -0.55,-0.05 m 0,0 h -0.6 m 0,0 -0.6,-0.05 m 0,0 h -0.6 m 0,0 h -0.6 m 0,0 h -0.55 m 0,0 -0.6,-0.05 m 0,0 H 502 m 0,0 -0.6,0.05 m 0,0 h -0.55 m 0,0 h -0.6 m 0,0 h -0.6 m 0,0 h -0.6 m 0,0 -0.55,0.05 m 0,0 h -0.6 m 0,0 -0.6,0.05 m 0,0 h -0.55 m 0,0 -0.6,0.05 m 0,0 -0.6,0.05 m 0,0 -0.55,0.05 m 0,0 -0.6,0.05 m 0,0 -0.6,0.05 m 0,0 -0.55,0.05 m 0,0 -0.6,0.05 m 0,0 -0.6,0.05 m 0,0 -0.55,0.05 m 0,0 -0.6,0.05 m 0,0 -0.55,0.1 m 0,0 -0.6,0.05 m 0,0 -0.6,0.05 m 0,0 -0.55,0.1 m 0,0 -0.6,0.1 m 0,0 -0.6,0.05 m 0,0 -0.55,0.1 m 0,0 -0.6,0.1 m 0,0 -0.55,0.1 m 0,0 -0.6,0.1 m 0,0 -0.55,0.1 m 0,0 -0.6,0.1 m 0,0 -0.6,0.1 m 0,0 -0.55,0.1 m 0,0 -0.6,0.1 m 0,0 -0.55,0.1 m 0,0 -0.6,0.15 m 0,0 -0.6,0.1 m 0,0 -0.55,0.15 m 0,0 -0.6,0.1 m 0,0 -0.55,0.15 m 0,0 -0.6,0.1 m 0,0 -0.6,0.15 m 0,0 -0.55,0.15 m 0,0 -0.6,0.15 m 0,0 -0.55,0.1 m 0,0 -0.6,0.15 m 0,0 -0.6,0.15 m 0,0 -0.55,0.15 m 0,0 -0.6,0.15 m 0,0 -0.55,0.2 m 0,0 -0.6,0.15 m 0,0 -0.6,0.15 m 0,0 -0.55,0.15 m 0,0 -0.6,0.2 m 0,0 -0.6,0.15 m 0,0 -0.55,0.15 m 0,0 -0.6,0.2 m 0,0 -0.6,0.2 m 0,0 -0.55,0.15 m 0,0 -0.6,0.2 m 0,0 -0.6,0.2 m 0,0 -0.55,0.15 m 0,0 -0.6,0.2 m 0,0 -0.6,0.2 m 0,0 -0.6,0.2 m 0,0 -0.55,0.2 m 0,0 -0.6,0.2 m 0,0 -0.6,0.2 m 0,0 -0.6,0.2 m 0,0 -0.55,0.2 m 0,0 -0.6,0.2 m 0,0 -0.6,0.25 m 0,0 -0.6,0.2 m 0,0 -0.6,0.2 m 0,0 -0.6,0.25 m 0,0 -0.55,0.2 m 0,0 -0.6,0.25 m 0,0 -0.6,0.2 m 0,0 -0.6,0.25 m 0,0 -0.6,0.2 m 0,0 -0.6,0.25 m 0,0 -0.6,0.25 m 0,0 -0.6,0.25 m 0,0 -0.6,0.2 m 0,0 -0.6,0.25 m 0,0 -0.6,0.25 m 0,0 -0.6,0.25 m 0,0 -0.6,0.25 m 0,0 -0.6,0.25 m 0,0 -0.6,0.25 m 0,0 -0.6,0.25 m 0,0 -0.6,0.25 m 0,0 -0.6,0.3 m 0,0 -0.6,0.25 m 0,0 -0.6,0.25 m 0,0 -0.65,0.25 m 0,0 -0.6,0.3 m 0,0 -0.6,0.25 m 0,0 -0.6,0.25 m 0,0 -0.6,0.3 m 0,0 -0.65,0.25 m 0,0 -0.6,0.3 m 0,0 -0.6,0.25 m 0,0 -0.65,0.3 m 0,0 -0.6,0.3 m 0,0 -0.6,0.25 m 0,0 -0.65,0.3 m 0,0 -0.6,0.3 m 0,0 -0.6,0.25 m 0,0 -0.45,0.2 m 0,0 -0.4,0.2 m 0,0 -0.4,0.2 m 0,0 -0.4,0.15 m 0,0 -0.45,0.2 m 0,0 -0.4,0.15 m 0,0 -0.4,0.2 m 0,0 -0.4,0.15 m 0,0 -0.45,0.2 m 0,0 -0.4,0.15 m 0,0 -0.4,0.15 m 0,0 -0.4,0.2 m 0,0 -0.4,0.15 m 0,0 -0.45,0.15 m 0,0 -0.4,0.15 m 0,0 -0.4,0.15 m 0,0 -0.4,0.15 m 0,0 -0.4,0.15 m 0,0 -0.45,0.15 m 0,0 -0.4,0.15 m 0,0 -0.4,0.1 m 0,0 -0.4,0.15 m 0,0 -0.4,0.1 m 0,0 -0.45,0.15 m 0,0 -0.4,0.1 m 0,0 -0.4,0.15 m 0,0 -0.4,0.1 m 0,0 -0.45,0.1 m 0,0 -0.4,0.15 m 0,0 -0.4,0.1 m 0,0 -0.4,0.1 m 0,0 -0.4,0.05 m 0,0 -0.6,0.2 m 0,0 -0.5,0.25 m 0,0 -0.45,0.35 m 0,0 -0.3,0.5 m 0,0 -0.2,0.6 m 0,0 -0.05,0.7 m 0,0 0.05,0.35 m 0,0 0.1,0.45 m 0,0 0.15,0.45 m 0,0 0.25,0.45 m 0,0 0.15,0.45 m 0,0 0.2,0.45 m 0,0 0.15,0.4 m 0,0 0.2,0.45 m 0,0 0.15,0.4 m 0,0 0.2,0.4 m 0,0 0.15,0.45 m 0,0 0.2,0.4 m 0,0 0.15,0.45 m 0,0 0.2,0.4 m 0,0 0.15,0.45 m 0,0 0.2,0.45 m 0,0 0.15,0.45 m 0,0 0.2,0.45 m 0,0 0.15,0.5 m 0,0 0.2,0.45 m 0,0 0.3,0.8 m 0,0 0.2,0.6 m 0,0 0.3,0.7 m 0,0 0.15,0.25 m 0,0 0.2,0.55 m 0,0 0.15,0.55 m 0,0 0.2,0.5 m 0,0 0.2,0.45 m 0,0 0.2,0.45 m 0,0 0.15,0.45 m 0,0 0.2,0.4 m 0,0 0.15,0.4 m 0,0 0.35,0.75 m 0,0 0.4,0.7 m 0,0 0.35,0.65 m 0,0 0.4,0.6 m 0,0 0.45,0.6 m 0,0 0.45,0.55 m 0,0 0.5,0.6 m 0,0 0.55,0.55 m 0,0 0.6,0.6 m 0,0 0.7,0.65 m 0,0 0.75,0.65 m 0,0 0.4,0.35 m 0,0 0.45,0.35 m 0,0 0.55,0.6 m 0,0 0.1,0.05 m 0,0 0.75,0.7 m 0,0 0.4,0.4 m 0,0 0.45,0.4 m 0,0 0.45,0.4 m 0,0 0.45,0.45 m 0,0 0.45,0.5 m 0,0 0.5,0.5 m 0,0 0.45,0.55 m 0,0 0.5,0.55 m 0,0 0.5,0.55 m 0,0 0.45,0.65 m 0,0 0.45,0.6 m 0,0 0.45,0.65 m 0,0 0.4,0.7 m 0,0 0.45,0.7 m 0,0 0.35,0.75 m 0,0 0.35,0.8 m 0,0 0.35,0.75 m 0,0 0.15,0.45 m 0,0 0.15,0.4 m 0,0 0.1,0.4 m 0,0 0.15,0.45 m 0,0 0.1,0.4 m 0,0 0.1,0.45 m 0,0 0.1,0.45 m 0,0 0.05,0.45 m 0,0 0.1,0.45 m 0,0 0.05,0.5 m 0,0 0.05,0.45 m 0,0 v 0.5 m 0,0 0.05,0.5 m 0,0 v 0.45 m 0,0 -0.05,0.5 m 0,0 v 0.55 m 0,0 -0.05,0.5 m 0,0 -0.05,0.5 m 0,0 -0.1,0.55 m 0,0 -0.05,0.55 m 0,0 -0.15,0.5 m 0,0 -0.1,0.55 m 0,0 -0.15,0.55 m 0,0 -0.15,0.6 m 0,0 -0.2,0.55 m 0,0 -0.15,0.55 m 0,0 -0.55,0.75 m 0,0 -0.6,0.4 m 0,0 -0.65,0.1 m 0,0 -0.6,-0.2 m 0,0 -0.5,-0.35 m 0,0 -0.3,-0.6 m 0,0 -0.1,-0.8"
         id="path138" />
      <path
         d="m 440,381.85 0.05,-0.45 m 0,0 0.15,-0.5"
         id="path140" />
    </g>
  </g>
  <text
     xml:space="preserve"
     x="46.889355"
     y="24.624496"
     font-size="3.12628px"
     fill="#000000"
     class="F"
     id="text150"
     style="stroke-width:0.738549"><tspan
       x="46.889355"
       y="24.624496"
       id="tspan148"
       style="stroke-width:0.738549">Aneurysm</tspan></text>
  <text
     xml:space="preserve"
     x="41.832623"
     y="58.69416"
     font-size="3.12628px"
     fill="#000000"
     class="F"
     id="text154"
     style="stroke-width:0.738549"><tspan
       x="41.832623"
       y="58.69416"
       id="tspan152"
       style="stroke-width:0.738549">Blood vessel</tspan></text>
</svg>
