<svg xmlns="http://www.w3.org/2000/svg" width="396.85" height="264.567" viewBox="0 0 105 70" xmlns:v="https://vecta.io/nano"><style><![CDATA[.B{fill:#c50119}.C{stroke-width:.9}.D{stroke-linecap:round}.E{stroke-miterlimit:10}.F{font-family:sans-serif}]]></style><defs><clipPath id="A"><path d="M-26214.4-25674.4h52428.7v52428.7h-52428.7z"/></clipPath><clipPath id="B"><path d="M-26214.4-25674.4h52428.7v52428.7h-52428.7z"/></clipPath><clipPath id="C"><path d="M-26214.4-25674.4h52428.7v52428.7h-52428.7z"/></clipPath><clipPath id="D"><path d="M-26214.4-25674.4h52428.7v52428.7h-52428.7z"/></clipPath><clipPath id="E"><path d="M-26214.4-25674.4h52428.7v52428.7h-52428.7z"/></clipPath><clipPath id="F"><path d="M-26214.4-25674.4h52428.7v52428.7h-52428.7z"/></clipPath><clipPath id="G"><path d="M-26214.4-25674.4h52428.7v52428.7h-52428.7z"/></clipPath><clipPath id="H"><path d="M-26214.4-25674.4h52428.7v52428.7h-52428.7z"/></clipPath><clipPath id="I"><path d="M-26214.4-25674.4h52428.7v52428.7h-52428.7z"/></clipPath><clipPath id="J"><path d="M-26214.4-25674.4h52428.7v52428.7h-52428.7z"/></clipPath><clipPath id="K"><path d="M-26214.4-25674.4h52428.7v52428.7h-52428.7z"/></clipPath><clipPath id="L"><path d="M-26214.4-25674.4h52428.7v52428.7h-52428.7z"/></clipPath><clipPath id="M"><path d="M-26214.4-25674.4h52428.7v52428.7h-52428.7z"/></clipPath><clipPath id="N"><path d="M-26214.4-25674.4h52428.7v52428.7h-52428.7z"/></clipPath><clipPath id="O"><path d="M-26214.4-25674.4h52428.7v52428.7h-52428.7z"/></clipPath><clipPath id="P"><path d="M-26214.4-25674.4h52428.7v52428.7h-52428.7z"/></clipPath><clipPath id="Q"><path d="M-26214.4-25674.4h52428.7v52428.7h-52428.7z"/></clipPath><clipPath id="R"><path d="M-26214.4-25674.4h52428.7v52428.7h-52428.7z"/></clipPath></defs><g transform="matrix(.738549 0 0 .738549 -4.96709 .966592)"><g transform="matrix(.58025 0 0 -.58025 -85.074756 256.840002)"><g clip-path="url(#A)"><path d="M168.65 324.7v.65.6l.05.55.05.6.05.55.05.6.1.55.1.5.1.55.15.5.1.5.15.45.15.5.15.4.2.45.2.4.35.75.45.7.45.6.45.5.5.4.55.3.5.15.6.05.55-.05.5-.15.55-.3.5-.4.45-.5.45-.6.4-.7.4-.75.2-.4.15-.45.15-.4.15-.5.15-.45.15-.5.1-.5.1-.55.1-.5.1-.55.05-.6.05-.55.05-.6.05-.55v-.6l.05-.65-.05-.6v-.6l-.05-.6-.05-.55-.05-.6-.05-.55-.1-.55-.1-.55-.1-.5-.1-.55-.15-.45-.15-.5-.15-.45-.15-.45-.15-.45-.2-.4-.4-.75-.4-.7-.45-.6-.45-.5-.5-.4-.55-.3-.5-.15-.55-.1-.6.1-.5.15-.55.3-.5.4-.45.5-.45.6-.45.7-.35.75-.2.4-.2.45-.15.45-.15.45-.15.5-.1.45-.15.55-.1.5-.1.55-.1.55-.05.55-.05.6-.05.55-.05.6v1.2" fill="#fcd8b2"/></g><g clip-path="url(#B)"><path d="M172 324.7v.65.6l.1.6.05.55.1.55.1.5.15.5.15.4.3.8.4.55.4.35.45.1.4-.1.45-.35.35-.55.35-.8.1-.4.15-.5.1-.5.1-.55.05-.55.1-.6v-.6l.05-.65-.05-.6v-.65l-.1-.6-.05-.55-.1-.55-.1-.5-.15-.5-.1-.4-.35-.75-.35-.6-.45-.35-.4-.15-.45.15-.4.35-.4.6-.3.75-.15.4-.15.5-.1.5-.1.55-.05.55-.1.6v1.25" fill="#af0917"/></g><g clip-path="url(#C)"><path d="M421.75 285.7v.65l.05.6.05.6.1.55.15.55.1.5.2.5.2.4.4.8.5.55.55.35.65.1.55-.1.55-.35.5-.55.45-.8.2-.4.15-.5.15-.5.15-.55.1-.55.05-.6.05-.6.05-.65-.05-.6-.05-.65-.05-.6-.1-.55-.15-.55-.15-.5-.15-.5-.2-.4-.45-.75-.5-.6-.55-.35-.55-.15-.65.15-.55.35-.5.6-.4.75-.2.4-.2.5-.1.5-.15.55-.1.55-.05.6-.05.65v.6" fill="#fcd8b2"/></g><g clip-path="url(#D)"><path d="M424.25 285.75v.55.45l.05.8.25.7.25-.7.05-.8v-.45l.05-.55-.05-.5v-.45l-.05-.8-.25-.75-.25.75-.05.8v.95" fill="#af0917"/></g><g clip-path="url(#E)"><path d="M440.2 380.9l.15-.75.1-.8.05-.4v-.4l-.05-.45-.05-.4-.05-.45-.1-.45-.1-.4-.15-.45-.15-.5-.2-.45-.2-.45-.2-.45-.25-.5-.3-.45-.25-.5-.35-.5-.3-.45-.35-.5-.4-.5-.4-.5-.4-.5-.45-.45-.45-.5-.5-.5-.5-.5-.55-.5-.55-.5-.55-.55-.55-.35-.3-.2-.1-.1-.5-.4-.45-.4-.5-.4-.45-.4-.5-.4-.45-.35-.45-.4-.5-.35-.45-.35-.5-.35-.45-.4-.45-.35-.45-.35-.45-.4-.45-.35-.45-.4-.45-.4-.4-.4-.45-.45-.4-.4-.4-.45-.4-.5-.4-.45-.4-.55-.35-.5-.4-.6-.35-.55-.35-.6-.35-.65-.3-.7-.3-.7-.3-.75-.15-.4-.15-.4-.15-.5-.2-.5-.15-.4-.1-.45-.2-.5-.2-.5-.2-.5-.15-.5-.15-.45-.1-.45-.15-.45-.15-.45-.1-.4-.1-.45-.25-.75-.25-.75-.25-.7-.3-.65-.35-.6-.4-.6-.5-.5-.55-.5-.65-.45-.75-.45-.4-.2-.45-.2-.8-.35-.55-.15-.6-.15-.65-.15-.7-.15-.75-.15-.75-.1-.75-.15-.75-.1-.75-.1-.7-.1-.65-.1-.65-.1-.5-.05-.45-.1-.6-.15-.45-.1-.5-.1-.55-.15-.65-.15-.75-.15-.75-.15-.4-.1-.45-.1-.45-.1-.45-.05-.45-.1-.45-.1-.5-.1-.45-.1-.5-.15-.5-.1-.55-.1-.5-.1-.5-.1-.55-.1-.55-.15-.55-.1-.5-.1-.55-.15-.55-.1-.55-.1-.55-.15-.6-.1-.55-.1-.55-.1-.55-.15-.55-.1-.55-.1-.5-.15-.55-.1-.55-.1-.5-.1-.55-.15-.5-.1-.5-.1-.55-.1-.45-.1-.5-.1-.5-.1-.45-.1-.45-.1-.45-.1-.45-.1-.4-.1-.4-.1-.75-.15-.7-.2-.45-.05-.4-.1-.4-.1-.4-.1-.4-.1-.4-.1-.8-.15-.8-.2-.75-.2-.8-.15-.75-.2-.75-.15-.75-.15-.75-.15-.75-.2-.75-.1-.7-.15-.7-.15-.7-.15-.65-.1-.6-.1-.6-.1-.6-.1-.6-.05-.6-.1-.6-.05-.55-.1-.6-.05-.6-.1-.55-.05-.6-.05-.55-.05-.6-.05h-.55l-.55-.05h-.55l-.6-.05h-.55-.55-.55-.55-.5-.55-.55l-.55.05h-.5l-.55.05-.5.05-.55.05-.5.05-.55.05-.5.05-.5.05-.55.1-.5.05-.5.1-.5.1-.5.1-.5.1-.5.1-.5.1-.5.15-.5.1-.5.15-.5.1-.5.15-.5.15-.45.15-.5.2-.5.15-.45.15-.5.2-.5.2-.45.15-.5.2-.45.2-.5.25-.45.2-.5.2-.45.25-.5.25-.45.25-.45.2-.5.25-.4.2-.5.2-.55.3-.65.25-.65.3-.65.35-.7.3-.7.3-.65.3-.65.25-.6.25-.5.2-.75.2-.75.3-.45.15-.5.2-.5.2-.55.2-.6.2-.6.2-.65.2-.65.25-.65.25-.7.25-.7.2-.7.25-.7.25-.65.25-.7.25-.7.25-.7.25-.65.25-.6.25-.65.25-.6.2-.55.25-.55.2-.45.2-.45.2-.45.15-.65.35-.45.25-.55.4-.5.4-.45.4-.4.4-.35.4-.3.4-.25.4-.2.4-.15.45-.1.4-.05.45v.4l.05.4.1.45.15.4.2.4.25.45.3.4.35.4.45.4.45.4.5.4.6.35.6.4.7.35.75.35.8.35.4.2.45.15.45.15.45.15.5.2.45.15.5.15.55.15.55.15.55.1.5.15.5.15.5.15.5.2.5.15.5.15.5.2.5.15.5.2.5.2.5.2.5.2.45.2.5.2.5.25.45.2.5.25.45.25.5.2.45.25.45.25.45.25.5.25.45.3.45.25.45.3.4.25.45.3.45.3.45.3.4.3.45.3.4.3.45.35.4.3.4.35.4.3.4.35.8.7.8.7.75.75.75.75.75.75.7.8.35.4.3.4.35.4.35.45.3.4.35.45.3.4.3.45.3.45.3.45.3.45.3.45.3.45.3.45.25.55.25.5.25.5.25.55.2.55.25.55.2.55.15.55.2.6.15.55.15.6.15.6.15.6.1.6.1.6.1.65.1.6.05.65.05.65.05.6.05.65v.65.65.7.65l-.05.65v.7l-.05.65-.1.65-.05.7-.1.65-.1.7-.1.7-.15.65-.1.7-.15.7-.2.65-.15.7-.2.7-.2.65-.2.7-.2.7-.25.65-.25.7-.25.65-.25.7-.3.65-.3.7-.3.65-.3.65-.35.7-.35.65-.35.65-.35.65-.4.65-.4.65-.4.6-.4.65-.45.65-.45.6-.45.6-.45.65-.5.6-.45.55-.6.7-.65.7-.65.65-.65.65-.65.65-.7.65-.7.6-.75.55-.75.6-.75.55-.8.5-.75.55-.4.25-.45.25-.4.25-.4.2-.4.25-.45.25-.4.2-.45.2-.4.25-.45.2-.45.2-.4.2-.45.2-.45.2-.45.2-.45.15-.45.2-.45.15-.45.2-.45.15-.5.15-.45.15-.45.15-.45.15-.5.15-.45.1-.5.15-.45.1-.5.15-.45.1-.5.1-.5.1-.45.1-.5.1-.5.1-.45.05-.5.1-.5.05-.5.1-.5.05-.5.05-.45.05-.5.05h-.5l-.5.05-.5.05h-.5-.5l-.5.05h-.5-.5l-.5-.05h-.5-.5l-.5-.05h-.5l-.5-.05-.5-.05-.5-.05-.5-.05-.5-.05-.5-.05-.5-.1-.5-.05-.5-.1-.5-.1-.5-.1-.45-.1-.5-.1-.5-.1-.5-.15-.5-.1-.45-.15-.5-.15-.5-.15-.5-.15-.45-.15-.5-.15-.5-.2-.45-.15-.5-.2-.45-.2-.5-.2-.45-.2-.45-.2-.5-.2-.45-.25-.45-.2-.5-.25-.45-.25-.45-.25-.45-.25-.45-.25-.45-.3-.45-.25-.45-.3-.45-.3-.4-.3-.45-.3-.45-.3-.4-.35-.45-.3-.4-.35-.4-.35-.75-.6-.7-.6-.7-.65-.65-.65-.65-.65-.7-.7-.6-.65-.65-.75-.6-.7-.6-.75-.6-.75-.55-.75-.55-.75-.55-.8-.5-.8-.25-.4-.25-.4-.25-.45-.2-.4-.25-.4-.2-.45-.25-.4-.2-.4-.2-.45-.25-.45-.2-.4-.15-.45-.2-.45-.2-.4-.15-.45-.2-.45-.15-.45-.2-.45-.15-.45-.15-.45-.15-.45-.1-.45-.15-.5-.1-.45-.15-.45-.1-.45-.1-.5-.1-.45-.1-.5-.1-.45-.05-.5-.1-.45-.05-.5-.05-.5-.1-.45v-.5l-.05-.5-.05-.45v-.5l-.05-.5v-.5-.5-.5-.5l.05-.5v-.5l.05-.5.05-.5.05-.5.05-.5.05-.5.1-.5.05-.55.1-.5.1-.5.1-.5.15-.5.1-.55.15-.5.15-.5.15-.55.15-.5.15-.5.2-.55.2-.5.2-.55.2-.5.2-.5.2-.55.25-.5.25-.55.25-.5.25-.55.25-.5.3-.55.3-.5.3-.55.3-.5.3-.55.35-.5.35-.55.35-.5.35-.55.35-.5.4-.55.4-.55.4-.5.4-.55.45-.5.4-.55.45-.5.45-.55.5-.5.45-.55.5-.5.5-.55.5-.5.55-.55.5-.5.5-.55.45-.5.5-.5.4-.5.45-.5.4-.5.35-.5.4-.45.3-.5.35-.45.3-.45.3-.45.25-.45.25-.45.2-.45.25-.4.15-.45.2-.4.15-.4.1-.45.15-.4.15-.75.1-.75.05-.75-.05-.75-.15-.65-.2-.7-.25-.65-.35-.6-.45-.6-.45-.6-.6-.55-.6-.55-.7-.5-.8-.5-.4-.25-.4-.25-.45-.2-.5-.25-.45-.2-.5-.25-.55-.2-.5-.2-.55-.2-.6-.2-.55-.2-.6-.15-.65-.2-.6-.2-.55-.1-.55-.1-.5-.15-.55-.1-.55-.1-.55-.1-.6-.1-.55-.1-.55-.1-.6-.1-.6-.1-.6-.1-.65-.05-.6-.1-.65-.1-.65-.1-.65-.05-.7-.1-.7-.1-.7-.1-.7-.05-.75-.1-.75-.1-.8-.05-.75-.1-.4-.05-.45-.05-.4-.05h-.4l-.4-.05-.45-.05-.4-.05-.45-.05-.45-.05-.45-.05-.45-.05-.45-.05-.45-.05-.45-.05h-.35-.5-.7-.45-.45l-.45-.05h-.5-.55-.55l-.55-.05h-.6-.55l-.6-.05h-.55-.6-.55l-.55-.05h-.5-.5-.45l-.45-.05h-.8-.55l-.5-.05h-.7l-.7-.05-.75-.05h-.75l-.75-.05-.8-.05h-.75l-.45-.05h-.4-.4l-.4-.05h-.45l-.4-.05h-.45-.4l-.45-.05h-.45-.4l-.45-.05h-.45-.45l-.45-.05h-.45-.45l-.45-.05h-.5-.45l-.45-.05h-.5-.45-.45l-.5-.05h-.45-.5-.45l-.5-.05h-.5-.45-.5l-.5-.05h-.45-.5-.5-.5l-.45-.05h-.5-.5-.5-.45-.5-.5-.5-.5-.45-.5-.5l-.5-.05-.5.05h-.45-.5-.5-.5-.45-.5-.5-.45-.5-.45l-.5.05h-.45-.5-.45l-.5.05h-.45-.45-.5l-.45.05h-.45l-.45.05h-.45-.45l-.45.05h-.45l-.45.05h-.45l-.45.05h-.4l-.45.05-.45.05h-.4l-.45.05-.4.05h-.4l-.4.05-.4.05-.8.05-.8.1-.75.1-.75.1-.75.1-.7.1-.7.1-.65.15-.65.1-.65.15-.6.15-.55.1-.55.15.65-.7.35-.45.3-.55.3-.55.3-.6.25-.65.25-.7.2-.75.2-.8.1-.4.1-.4.1-.4.05-.45.05-.4.05-.45.05-.45.05-.45.05-.45v-.45-.45l.05-.5-.05-.55v-.55-.55l-.05-.5-.05-.55-.05-.5-.1-.55-.05-.5-.1-.5-.1-.45-.1-.5-.1-.45-.15-.45-.15-.4-.1-.45-.15-.4-.35-.75-.35-.7-.4-.65-.4-.55-.45-.5-.45-.4-.5-.35-.5-.25.65-.1.65-.1.7-.15.7-.1.7-.1.7-.1.7-.1.7-.05.75-.1.75-.1.75-.05.75-.1.75-.05.75-.05.8-.1.8-.05.75-.05h.4l.4-.05h.4l.45-.05h.4l.4-.05h.4.4l.45-.05h.4.4l.45-.05h.4.45l.4-.05h.45.4.45l.4-.05h.45.45.4.45.45.45l.45-.05h.45.4.45.45.45.45.5.45.45.45.45.45.5.45.45l.5.05h.45.5.45.45.5.45l.5.05h.5.45.5.5l.45.05h.5.5.5l.45.05h.5.5.5l.5.05h.5.5l.5.05h.5.5l.5.05h.5.5l.5.05h.55.5l.5.05h.5l.55.05h.5.5l.55.05h.5l.5.05h.55l.5.05h.55.5l.55.05h.5l.55.05h.5l.55.05h.55l.5.05h.55.55l.55.05.6.05h.55l.55.05h.5l.5.05h.5l.45.05h.45l.45.05h.45l.4.05h.75l.7.05.65.05h.6l.55.05h.5l.45.05h.4l.65.05h.55l.4.05h.45.25.6l.45.05.5.05.5.05h.5l.45.05.5.05.5.05.45.05h.45l.5.05.45.05.45.05.45.05.45.05.45.05.45.05.45.05.4.05.45.05.45.05.4.1.45.05.4.05.4.05.45.05.4.05.4.05.4.1.8.1.8.15.75.1.75.15.75.1.75.15.7.15.7.1.7.15.7.15.65.1.65.15.65.1.65.15.6.15.65.1.6.15.6.1.55.15.55.1.5.1.55.1.55.1.5.1.55.1.5.1.5.1.55.1.5.1.5.05.5.1.5.1.45.05.5.1.5.05.5.1.45.05.5.1.5.05.45.05.5.05.5.05.45.05.5.05.5.05h.45l.5.05h.5l.45.05h.5.5.5.5.5.5l.5-.05h.5l.55-.05h.5l.55-.05.5-.05.55-.05.55-.1.55-.05.55-.1.55-.05.55-.1.6-.1.55-.1.6-.1.6-.15.6-.1.6-.15.65-.15.6-.15.65-.15.65-.2.65-.15.65-.2.7-.2.7-.2.7-.25.65-.2.4-.15.45-.2.5-.2.5-.2.6-.2.55-.25.6-.25.65-.25.65-.3.65-.25.65-.3.65-.3.7-.3.65-.3.7-.25.65-.3.65-.3.65-.3.6-.25.6-.3.6-.25.55-.25.5-.25.5-.2.45-.2.4-.2.65-.35.5-.25.75-.3.75-.3.75-.3.8-.25.75-.3.8-.25.75-.25.8-.25.8-.25.75-.25.8-.2.8-.25.8-.2.8-.2.8-.2.4-.05.4-.1.4-.1.4-.05.4-.1.4-.1.4-.05.4-.1.4-.05.45-.05.4-.1.4-.05.4-.05.45-.05.4-.05.4-.05.45-.05.4-.05.4-.05.45-.05.4-.05h.45l.4-.05.45-.05h.4l.45-.05h.45.4l.45-.05h.4.45.45.45l.45-.05h.25.75l.5-.05h.55l.65-.05h.65.7l.7-.05h.7l.7.05h.65.6l.55.05.45.05.4.15.4.1.8.2.75.1.8.05h.4l.4-.05.45-.05.4-.1.45-.15.4-.15.45-.2.5-.25.2-.15.65-.4.4-.25.5-.35.5-.3.55-.35.5-.35.5-.3.5-.35.4-.25.65-.4.25-.2.55-.35.6-.35.6-.4.55-.35.6-.4.6-.35.6-.35.6-.35.6-.35.6-.35.65-.35.6-.3.65-.3.65-.3.65-.3.7-.3.7-.25.7-.25.7-.25.75-.25.75-.2.75-.2.8-.15.4-.1.4-.05.45-.1.4-.05.45-.05.4-.05.45-.05.45-.05.45-.05.45-.05h.45l.45-.05h.5l.5-.05h.45.5.5.55l.2.05.65.1.4.05.5.05.5.05.55.05.5.1.5.05.5.05.4.05.65.1h.25l.45.05.45.05h.4l.45.05.75.05h.8l.7.05.7-.05h.65l.65-.05.65-.1.65-.15.65-.2.65-.2.65-.3.75-.3.75-.4.8-.5.45-.35.5-.4.55-.35.55-.4.5-.45.55-.4.5-.5.5-.5.5-.5.55-.5.55-.5.6-.5.6-.5.65-.5.65-.5.7-.45.7-.45.7-.45.75-.45.8-.4.4-.15.4-.2.45-.2.4-.15.45-.15.45-.15.45-.15.5-.15h.3l-.5.35-.4.5-.35.65-.35.75-.15.45-.1.45-.1.45-.1.45-.1.5-.05.5v.5.45.7l.05.65.05.6.1.6.1.55.15.55.15.45.2.45.4.8.5.55.5.35.6.1-.6.4-.6.4-.55.4-.6.4-.6.45-.55.5-.6.55-.55.55-.75.65-.7.65-.7.6-.75.6-.75.6-.75.55-.75.55-.4.25-.4.25-.7.45-.7.4-.7.35-.65.35-.65.3-.65.25-.6.25-.6.25-.65.2-.6.2-.55.15-.6.15-.6.15-.55.1-.55.1-.55.05-.55.1-.55.05h-.55l-.5.05h-.55-.5-.5-.55-.5l-.5-.05h-.5l-.5-.05h-.5l-.5-.05-.5-.05-.5-.05-.5-.05-.45-.05-.45-.05-.35-.05-.75-.1-.6-.05-.5-.05-.45-.05-.6-.1-.65-.1h-.65-.6-.6-.6l-.55.05-.55.05-.55.05-.5.1-.5.1-.5.1-.5.1-.45.15-.5.1-.45.15-.45.2-.45.15-.45.2-.45.2-.45.2-.4.2-.45.25-.45.2-.45.25-.4.25-.45.25-.45.3-.45.25-.45.3-.5.25-.45.3-.5.3-.45.3-.8.65-.25.5.15.5.45.4.7.35.75.25.8.25.7.1.4.1.4.1.4.1.4.1.4.1.4.1.4.1.45.1.4.1.4.15.45.1.4.1.4.1.45.1.4.1.45.1.4.15.4.1.45.1.4.1.45.15.45.1.4.1.45.1.4.15.45.1.45.1.4.1.45.15.45.1.4.1.45.1.45.15.4.1.45.1.45.1.45.1.4.15.45.1.45.1.45.1.4.1.45.1.45.1.45.1.4.15.45.1.45.1.45.05.45.1.4.1.45.1.45.1.45.1.45.1.4.1.45.05.45.1.45.1.45.05.4.1.45.05.45.1.45.05.4.1.45.05.45.1.45.05.4.05.45.05.45.05.4.05.45.1.45.05h.4l.45.05.4.05.45.05.45.05h.4l.45.05h.4l.45.05h.4l.45.05h.4.45.4.4.45.4.4.45.4l.4-.05h.4l.4-.05h.45l.4-.05.4-.05.4-.05.4-.05.8-.1.8-.1.8-.15.75-.15.8-.2.75-.2.75-.2.75-.25.75-.25.75-.3.7-.3.7-.35.75-.35h.35l.65-.3.7-.3.7-.3.7-.35.7-.3.65-.3.7-.3.7-.3.7-.3.65-.3.7-.3.7-.25.65-.3.7-.3.65-.25.7-.3.65-.25.7-.3.65-.25.7-.3.65-.25.7-.25.65-.25.7-.25.65-.25.65-.25.7-.25.65-.25.7-.25.65-.25.65-.2.65-.25.7-.25.65-.2.65-.25.65-.2.7-.2.65-.25.65-.2.65-.2.7-.2.65-.2.65-.2.65-.2.65-.2.65-.2.65-.2.7-.2.65-.15.65-.2.65-.15.65-.2.65-.15.65-.15.65-.2.65-.15.65-.15.65-.15.65-.15.65-.15.7-.15.65-.15.65-.15.65-.15.65-.1.65-.15.65-.1.65-.15.65-.1.65-.15.65-.1.65-.1.65-.1.65-.1.65-.1.65-.1.65-.1.65-.1.65-.1.65-.1.65-.05.65-.1.65-.05.65-.1.7-.05.65-.05.65-.1.65-.05.65-.05.65-.05.65-.05.65-.05.65-.05.65-.05h.7l.65-.05.65-.05h.65l.65-.05h.65.7l.65-.05h.65.65.7.65.65.65.7l.65.05h.65.7l.65.05h.65l.7.05.65.05h.7l.65.05.7.05.65.05.7.05.65.05.7.1.65.05.7.05.65.1.7.05.7.05.5.1.45.15.45.2.4.3.7.8.3.45.3.5.2.55.2.6.15.6.1.6.1.65v.65.65l-.05.65-.05.65-.15.65-.15.6-.25.55-.25.55-.3.55-.35.45-.4.4-.4.35-.5.3-.5.25-.6.15-.6.1-.7-.05-.7-.1-.75-.2-.6-.05-.6-.05-.6-.05-.6-.1-.6-.05-.6-.05h-.6l-.6-.05-.6-.05-.6-.05h-.6l-.55-.05h-.6l-.6-.05h-.6-.6-.55l-.6-.05h-.6l-.6.05h-.55-.6-.6-.6l-.55.05h-.6l-.6.05h-.55l-.6.05-.6.05-.55.05-.6.05-.6.05-.55.05-.6.05-.6.05-.55.05-.6.05-.55.1-.6.05-.6.05-.55.1-.6.1-.6.05-.55.1-.6.1-.55.1-.6.1-.55.1-.6.1-.6.1-.55.1-.6.1-.55.1-.6.15-.6.1-.55.15-.6.1-.55.15-.6.1-.6.15-.55.15-.6.15-.55.1-.6.15-.6.15-.55.15-.6.15-.55.2-.6.15-.6.15-.55.15-.6.2-.6.15-.55.15-.6.2-.6.2-.55.15-.6.2-.6.2-.55.15-.6.2-.6.2-.6.2-.55.2-.6.2-.6.2-.6.2-.55.2-.6.2-.6.25-.6.2-.6.2-.6.25-.55.2-.6.25-.6.2-.6.25-.6.2-.6.25-.6.25-.6.25-.6.2-.6.25-.6.25-.6.25-.6.25-.6.25-.6.25-.6.25-.6.25-.6.3-.6.25-.6.25-.65.25-.6.3-.6.25-.6.25-.6.3-.65.25-.6.3-.6.25-.65.3-.6.3-.6.25-.65.3-.6.3-.6.25-.45.2-.4.2-.4.2-.4.15-.45.2-.4.15-.4.2-.4.15-.45.2-.4.15-.4.15-.4.2-.4.15-.45.15-.4.15-.4.15-.4.15-.4.15-.45.15-.4.15-.4.1-.4.15-.4.1-.45.15-.4.1-.4.15-.4.1-.45.1-.4.15-.4.1-.4.1-.4.05-.6.2-.5.25-.45.35-.3.5-.2.6-.05.7.05.35.1.45.15.45.25.45.15.45.2.45.15.4.2.45.15.4.2.4.15.45.2.4.15.45.2.4.15.45.2.45.15.45.2.45.15.5.2.45.3.8.2.6.3.7.15.25.2.55.15.55.2.5.2.45.2.45.15.45.2.4.15.4.35.75.4.7.35.65.4.6.45.6.45.55.5.6.55.55.6.6.7.65.75.65.4.35.45.35.55.6.1.05.75.7.4.4.45.4.45.4.45.45.45.5.5.5.45.55.5.55.5.55.45.65.45.6.45.65.4.7.45.7.35.75.35.8.35.75.15.45.15.4.1.4.15.45.1.4.1.45.1.45.05.45.1.45.05.5.05.45v.5l.05.5v.45l-.05.5v.55l-.05.5-.05.5-.1.55-.05.55-.15.5-.1.55-.15.55-.15.6-.2.55-.15.55-.55.75-.6.4-.65.1-.6-.2-.5-.35-.3-.6-.1-.8.05-.45.15-.5" fill="#e2001a"/></g><g clip-path="url(#F)" class="B"><path d="M324.25 374.9l-.5-.75-.5-.7-.5-.7-.5-.7-.5-.65-.5-.65-.5-.6-.5-.55-.5-.6-.5-.55-.55-.5-.5-.5-.5-.5-.5-.45-.55-.45-.5-.45-.5-.4-.55-.4-.5-.35-.5-.35-.5-.35-.55-.35-.5-.3-.5-.3-.5-.3-.5-.3-.5-.25-.5-.25-.5-.25-.5-.2-.5-.25-.45-.2-.5-.2-.5-.2-.45-.2-.45-.15-.5-.2-.45-.15-.45-.15-.45-.15-.4-.15-.45-.15-.45-.15-.4-.15-.4-.1-.4-.15-.8-.25-.75-.3-.7-.25-.7-.25-.65-.3-.6-.25-.55-.35-.5-.3-.45-.4-.45-.4-.4-.4-.4-.4-.35-.4-.35-.4-.3-.45-.3-.4-.25-.4-.25-.4-.2-.45-.2-.4-.15-.4-.1-.4-.1-.45-.05-.4-.05-.4v-.4-.4l.15-.8.25-.8.45-.75.5-.75.7-.75.4-.35.45-.4.45-.35.55-.35-.2.5-.15.5-.1.45-.1.45-.1.45-.05.4-.05.45v.35l.05.8.15.7.25.65.4.65.45.6.6.6.75.55.4.3.45.25.45.25.5.25.55.25.6.3.6.25.65.25.65.25.75.2.7.25.75.25.8.2.4.15.4.1.45.15.4.1.45.15.45.15.4.15.45.1.5.15.45.2.45.15.5.15.45.15.5.2.45.15.5.2.5.2.5.2.5.2.5.2.5.25.5.2.5.25.5.25.5.25.5.25.55.3.5.25.5.3.5.3.5.3.55.35.5.3.5.35.5.35.5.35.5.35.5.4.5.4.5.4.5.4.45.45.5.45.5.45.45.45.5.5.45.5.45.5.5.55.45.5.45.55.4.6.45.6.45.55.4.65.4.6.45.65.4.65.4.75.35.75.35.75.35.75.25.8.25.75.25.8.2.75.2.8.15.75.1.8.1.8.1.8.05.8.05.8v.8.8l-.05.8-.05.8-.05.8-.1.8-.1.75-.15.8-.15.8-.15.8-.15.75-.2.8-.2.75-.25.75-.2.8-.25.75-.25.7-.3.75-.25.75-.3.7-.3.75-.3.7-.35.7-.3.65-.35.7-.35.65-.35.65-.35.65-.35.6-.35.65-.35.6-.35.55-.4.6-.35.55-.35.55-.4.5-.35.5-.35.5-.35.5-.4.45-.35.45-.35.4-.35.4-.7.75-.65.65-.6.55.25-.4.3-.4.25-.45.25-.45.3-.45.25-.45.25-.5.25-.45.25-.5.25-.5.25-.5.25-.55.25-.55.2-.5.25-.55.2-.55.2-.6.25-.55.15-.6.2-.6.2-.6.15-.6.2-.6.15-.6.15-.65.1-.6.15-.65.1-.65.15-.65.1-.65.05-.7.1-.65.05-.65.05-.7.05-.7v-.65l.05-.7v-.7l-.05-.7v-.7l-.05-.75-.05-.7-.1-.7-.05-.75-.1-.7-.15-.75-.1-.7-.15-.75-.2-.75-.15-.7-.2-.75-.25-.75-.25-.75-.25-.75-.25-.75-.3-.75-.3-.7-.35-.75-.35-.75-.35-.75-.4-.75-.45-.75-.4-.75-.45-.8"/></g><g clip-path="url(#G)"><path d="M221.7 327.5l.65.05h.7.65l.65.05h.7.6l.65.05h.65.65l.6.05h.6l.65.05h.6.6l.6.05h.55l.6.05h.6.55l.6.05h.55l.55.05h.55l.55.05h.55l.55.05h.55l.55.05.55.05h.55l.5.05.55.05h.55l.5.05.55.05.5.05h.55l.5.05.55.05.5.05.5.05.55.05.5.05.5.05.55.05.5.05.55.05.5.05.55.1.5.05.5.05.55.05.5.1.55.05.55.1.5.05.55.1.55.05.55.1.5.05.55.1.55.1.55.1.6.05.55.1.55.1.5.1.55.1.55.1.5.15.55.1.5.1.5.1.5.15.5.1.5.1.5.15.45.15.5.1.45.15.45.15.5.15.4.15.45.15.45.15.4.15.45.15.4.15.4.2.4.15.8.4.75.35.7.4.65.45.65.45.65.45.55.5.55.5.5.55.5.6.4.55.4.65.4.65.3.65.3.7.2.75.2.75.15.8.1.4.05.4-.25-.75-.4-.75-.45-.75-.65-.75-.75-.75-.4-.35-.5-.4-.45-.35-.55-.35-.55-.35-.6-.35-.6-.35-.7-.35-.65-.3-.75-.35-.75-.3-.8-.3-.4-.15-.45-.15-.4-.15-.45-.15-.45-.1-.45-.15-.45-.15-.5-.1-.5-.15-.45-.15-.5-.1-.55-.1-.5-.15-.5-.1-.55-.1-.55-.1-.55-.15-.55-.1-.6-.1-.55-.1-.6-.05-.6-.1-.55-.1-.6-.1-.55-.05-.55-.1-.55-.05-.6-.1-.55-.05-.55-.1-.55-.05-.55-.1-.5-.05-.55-.05-.55-.1-.55-.05-.5-.05-.55-.05-.55-.05-.5-.1-.55-.05-.55-.05-.5-.05-.55-.05-.5-.05-.55-.05-.55-.05h-.5l-.55-.05-.5-.05-.55-.05-.55-.05-.5-.05-.55-.05h-.55l-.55-.05-.55-.05-.55-.05-.5-.05h-.55l-.6-.05-.55-.05-.55-.05h-.55l-.55-.05-.6-.05-.55-.05h-.6l-.6-.05-.55-.05-.6-.05h-.6l-.6-.05-.6-.05-.65-.05-.6-.05h-.6l-.65-.05-.65-.05-.65-.05-.65-.05-.65-.05-.65-.05-.65-.05h-.7l-.65-.05-.7-.05-.65-.05-.65-.05h-.7l-.65-.05h-.65l-.65-.05-.7-.05h-.65-.65l-.65-.05h-.65-.65l-.65-.05h-.65-.65-.65-.65-.65-.65-.6-.65-.65l-.6.05h-.65-.65-.6l-.65.05h-.6l-.65.05h-.6l-.65.05h-.6l-.6.05h-.65l-.6.05-.6.05h-.6l-.6.05-.65.05-.6.05-.6.05-.6.05-.6.05-.6.05-.55.05-.6.05-.6.05-.6.05-.55.05-.6.05-.6.1-.55.05-.6.05-.55.05-.6.1-.55.05-.6.1-.55.05-.55.05-.55.1-.55.05.4-.1.4-.15.45-.15.45-.1.5-.15.5-.1.5-.15.5-.1.55-.15.55-.1.55-.15.6-.1.6-.1.6-.1.6-.1.6-.1.65-.1.65-.1.65-.1.65-.1.65-.1.65-.1.7-.1.7-.05.65-.1.7-.1.7-.05.7-.1.7-.1.7-.05.7-.05.7-.1.7-.05.7-.1.7-.05.7-.05.7-.05.7-.1.7-.05.65-.05.7-.05.7-.05.65-.05.65-.05.65-.05.65-.05.65-.05h.65l.6-.05.6-.05.6-.05h.6l.6-.05.55-.05h.55l.55-.05.5-.05h.5l.5-.05h.5.45l.45-.05h.4l.45-.05" fill="#fff"/></g><g clip-path="url(#H)"><path d="M324.25 328.85l.55-.15.55-.25.55-.2.55-.25.55-.25.5-.3.55-.25.5-.3.55-.3.55-.25.55-.3.55-.3.6-.3.6-.25.6-.3.65-.25.7-.25.7-.25.75-.25.75-.25.4-.1.4-.1.45-.05.4-.1.45-.1.45-.1.5-.05.45-.05.5-.1.5-.05.55-.05.5-.05h.55l.55-.05h.6.6l.6-.05.6.05h.65.65l.65.05h.7l.7.05.75.05.7.1.8.05.75.1.8.1.4.05.4.05.4.05.4.05.45.05.4.1.4.05.45.05.45.05.4.1.45.05.45.05.4.1.45.05.45.1.45.05.45.1.45.1.45.05.45.1.5.05.45.1.45.1.45.1.5.05.45.1.5.1.45.1.5.1.45.1.5.1.45.05.5.1.45.1.5.1.5.1.45.1.5.1.5.1.5.1.45.1.5.15.5.1.5.1.5.1.45.1.5.1.5.1.5.1.5.15.45.1.5.1.5.1.5.1.5.1.45.15.5.1.5.1.5.1.45.1.5.15.5.1.45.1.5.1.5.1.45.1.5.15.5.1.45.1.5.1.45.1.45.1.5.15.45.1.5.1.45.1.45.1.45.1.45.1.5.1.45.1.45.1.45.1.45.1.4.1.45.1.45.1.45.1.4.1.45.1.4.1.45.1.4.05.45.1.4.1.4.1.4.05.4.1.8.15.8.2.75.15.75.15.7.1.7.15.7.15.7.1.65.1.6.15.65.05.55.1.6.1.55.1.5.1.5.1.5.1.45.1.45.1.45.1.4.1.75.2.7.2.65.2.6.25.5.2.45.25.4.25.7.45.55.55.35.55.3.55.2.65.15.65.1.7.15.75.15.8.05.4.15.4.1.45.1.45.15.45.15.45.15.5.15.45.15.45.15.45.2.45.15.45.15.45.2.45.15.45.2.4.2.45.15.4.2.45.2.4.35.75.4.7.35.65.35.6.35.55.65.75-.2-.45-.15-.45-.2-.45-.15-.45-.1-.4-.15-.45-.15-.4-.1-.45-.15-.4-.1-.4-.1-.4-.1-.4-.1-.4-.1-.45-.1-.4-.1-.4-.05-.4-.1-.45-.05-.4-.05-.45-.1-.4-.05-.45-.05-.45-.05-.45-.05-.5-.05-.45-.05-.5-.05-.5v-.5l-.05-.55-.05-.5v-.6l-.05-.55-.05-.5-.1-.55-.1-.5-.1-.45-.15-.5-.15-.45-.25-.4-.2-.45-.3-.4-.7-.8-.4-.35-.45-.4-.5-.35-.55-.35-.6-.35-.65-.3-.7-.35-.8-.3-.4-.15-.45-.2-.45-.15-.45-.15-.5-.15-.5-.15-.5-.15-.55-.15-.55-.15-.55-.15-.6-.15-.6-.15-.65-.15-.65-.15-.65-.15-.7-.15-.75-.15-.7-.15-.75-.15-.8-.15-.8-.15-.4-.1-.4-.05-.45-.1-.4-.05-.45-.1-.4-.1-.45-.05-.45-.1-.45-.05-.45-.1-.4-.05-.45-.1-.45-.05-.45-.1-.45-.05-.4-.1-.45-.05-.45-.1-.45-.05-.4-.1-.45-.05-.45-.1-.4-.05-.45-.1-.45-.05-.45-.1-.4-.05-.45-.1-.4-.05-.45-.1-.45-.05-.4-.05-.45-.1-.4-.05-.45-.1-.45-.05-.4-.1-.45-.05-.4-.05-.45-.1-.4-.05-.4-.05-.45-.1-.4-.05-.45-.1-.4-.05-.4-.05-.45-.1-.4-.05-.4-.05-.4-.05-.45-.1-.4-.05-.4-.05-.4-.1-.4-.05-.4-.05-.4-.05-.8-.15-.8-.1-.8-.15-.75-.1-.8-.15-.75-.1-.75-.1-.75-.15-.75-.1-.75-.1-.7-.1-.75-.15-.7-.1-.7-.1-.7-.1-.65-.1-.7-.1-.65-.1-.65-.1-.65-.1-.6-.1-.65-.1-.6-.05-.6-.1-.6-.1-.55-.1-.6-.05-.55-.1-.5-.1-.55-.05-.5-.1-.5-.05-.5-.1-.45-.05-.5-.1-.45-.05-.4-.05-.4-.1-.45-.05-.4-.05-.4-.05-.45-.05-.4-.05-.4-.05-.45-.05h-.4l-.4-.05h-.45l-.4-.05h-.45-.4-.45l-.4-.05-.45.05h-.4-.45-.4l-.45.05h-.45l-.4.05-.45.05-.4.05-.45.05-.45.05-.4.05-.45.1-.45.05-.4.1-.45.1-.4.1-.45.1-.45.1-.4.15-.45.1-.45.15-.4.15-.45.15-.45.15-.4.15-.45.15-.4.2-.45.2-.45.2-.4.2-.45.2-.4.2-.45.25-.4.25-.45.25-.4.25-.45.25-.4.25-.45.3-.4.3-.4.3-.45.3-.4.35-.4.3-.45.35-1.2 1.05" fill="#fff"/></g><g clip-path="url(#I)"><path d="M449.9 321.5l.45-.15.45-.2.5-.25.5-.2.55-.25.6-.25.55-.25.65-.25.6-.25.65-.25.7-.3.7-.3.7-.25.7-.3.75-.3.8-.3.8-.3.4-.15.4-.15.4-.15.4-.15.45-.15.4-.15.4-.15.45-.15.45-.15.45-.15.4-.15.45-.15.45-.15.45-.15.5-.15.45-.2.45-.15.5-.15.45-.1.5-.15.45-.15.5-.15.5-.15.45-.15.5-.15.5-.15.5-.15.5-.1.5-.15.55-.15.5-.15.5-.1.5-.15.55-.15.5-.1.55-.15.5-.1.55-.15.55-.1.55-.15.5-.1.55-.1.55-.15.55-.1.55-.1.55-.1.55-.1.55-.1.6-.1.55-.1.55-.1.55-.1.6-.05.55-.1.55-.1.6-.05.55-.1.6-.05.6-.05.55-.1.6-.05.55-.05.6-.05.6-.05.6-.05.55-.05.6-.05h.6l.6-.05.6-.05h.6.6l.6-.05h.55.6.6.6.65l.6.05h.6.6l.6.05.6.05h.6l.6.05.6.05.6.05.65.05.6.1.6.05.6.05.6.1.6.1.65.05-.5-.2-.45-.25-.55-.2-.55-.25-.6-.15-.6-.2-.65-.15-.65-.15-.7-.15-.75-.15-.75-.1-.75-.1-.8-.1-.4-.05H502l-.4-.05-.4-.05h-.45l-.45-.05h-.45-.45l-.45-.05h-.45-.45-.45-.5-.45-.5l-.45.05h-.5-.5l-.5.05h-.5l-.5.05h-.5l-.5.05-.5.05h-.5l-.55.05-.5.05-.55.05-.5.05-.55.1-.5.05-.55.05-.55.1-.55.05-.55.1-.5.05-.55.1-.55.05-.55.1-.55.1-.55.1-.6.1-.55.1-.55.1-.55.15-.55.1-.55.1-.6.15-.55.1-.55.15-.6.1-.55.15-.55.15-.55.15-.6.15-.55.15-.55.15-.6.15-.55.15-.55.15-.55.2-.6.15-.55.15-.55.2-.55.2-.6.15-.55.2-.55.2-.55.2-.55.2-.55.2-.55.2-.55.2-.55.25-.55.2-.55.2-.55.25-.55.2-.55.25-.5.25-.55.25-.55.2-.5.25-.55.25-.5.3-.5.25-.55.25-.5.25-.5.3-.5.25-.5.3-.5.25-.5.3-.5.3-.5.3-.45.25-.5.3-.45.35-.5.3-1.35.9" fill="#fff"/></g><g clip-path="url(#J)"><path d="M377.4 304.5l.6-.3.55-.25.55-.3.55-.25.55-.25.5-.25.45-.2.5-.2.45-.2.45-.15.45-.15.45-.15.4-.15.45-.1.4-.1.45-.1.4-.1.4-.05.45-.05.4-.05.45-.05h.4.45.45.45l.5.05.45.05.5.05.5.05.55.05.55.1.6.05.55.1.6.1.55.1.55.1.55.1.5.1.55.1.5.1.5.05.5.1.5.05.5.1.5.05.45.05.5.05.45.05h.5.45l.45.05.45-.05h.5l.45-.05.45-.05.45-.05.45-.05.45-.1.45-.15.45-.1.5-.15.45-.2.45-.15.5-.25.45-.2.45-.25.4-.2.45-.25.4-.25.45-.25.4-.25.4-.25.75-.5.75-.5.75-.55.7-.55.7-.5.7-.55.65-.5.7-.5.65-.5.7-.5.7-.45.7-.5-.5.25-.45.25-.5.2-.45.25-.45.25-.5.25-.45.25-.45.25-.45.25-.45.3-.5.25-.45.25-.45.25-.45.25-.45.25-.4.25-.45.25-.45.2-.4.25-.45.2-.4.2-.45.2-.4.2-.4.2-.8.3-.75.3-.75.2-.7.15-.75.1-.75.05h-.75l-.45-.05-.4-.05h-.4l-.45-.1-.45-.05-.45-.05-.45-.1-.45-.05-.5-.1-.5-.05-.5-.1-.5-.05-.55-.1-.5-.05-.55-.1-.55-.05-.6-.05-.6-.05-.6-.05h-.6l-.6-.05h-.65-.65l-.65.05h-.7l-.65.05-.7.1-.7.1-.65.1-.7.15-.6.15-.65.2-.6.15-.6.2-.55.2-.55.25-.55.2-.5.25-.5.2-.5.25-.45.25-.45.2-.4.25-.4.25-.7.4-.6.45-.55.35-.7.5-.2.2" fill="#fde8de"/></g><g clip-path="url(#K)" class="B"><path d="M248.25 314.85l.55.05h.55l.55.05.6.05h.55l.55.05.6.05.55.05.6.05.6.05.55.05.6.1.6.05.55.05.6.1.6.05.6.1.55.1.6.05.6.1.6.1.55.1.6.05.6.1.6.1.55.1.6.1.6.1.55.1.6.1.55.1.6.1.55.15.6.1.55.1.55.1.6.1.55.1.55.1.55.15.55.1.55.1.55.1.55.1.55.1.5.1.55.1.5.1.55.1.5.1.5.1.5.1.5.1.5.1.5.1.45.05.5.1.45.1.45.05.45.1.45.05.45.1.45.05.45.05.4.1.45.05.4.05.45.05.4.05h.45l.4.05.45.05h.4.45l.4.05h.45.4.45.4l.45-.05h.45.4l.45-.05h.4l.45-.05.4-.05.45-.05.45-.05.4-.05.45-.05.4-.05.45-.05.45-.1.4-.05.45-.1.45-.1.4-.05.45-.1.4-.1.45-.1.45-.1.45-.15.4-.1.45-.1.45-.15.4-.1.45-.15.45-.15.45-.1.45-.15.4-.15.45-.15.45-.15.45-.2.45-.15.45-.15.45-.2.4-.15.45-.2.45-.2.45-.2.45-.15.45-.2.45-.25.45-.2.45-.2.45-.2.5-.25.45-.2.45-.2.45-.25.5-.2.45-.25.5-.2.5-.25.5-.2.45-.25.55-.2.5-.25.5-.2.5-.25.55-.2.5-.25.55-.2.55-.2.5-.25.55-.2.55-.25.55-.2.55-.2.55-.2.6-.2.55-.25.55-.2.6-.2.55-.2.55-.2.6-.15.6-.2.55-.2.6-.2.55-.15.6-.2.6-.15.6-.15.6-.2.55-.15.6-.15.6-.15.6-.15.6-.1.6-.15.6-.1.6-.15.6-.1.6-.1.6-.1.6-.1.6-.1.6-.1.6-.05.6-.05.6-.1.6-.05.6-.05h.6l.55-.05h.6l.6-.05h.6.6.6l-.45-.05h-.4l-.45-.05h-.45l-.45-.05-.45.05h-.5l-.45.05-.5.05-.5.05-.5.05-.5.1-.55.05-.5.1-.55.1-.5.15-.55.1-.55.15-.55.15-.55.15-.6.15-.55.2-.55.15-.6.2-.55.2-.6.2-.55.2-.6.2-.6.25-.55.2-.6.25-.6.25-.6.25-.55.25-.6.25-.6.25-.6.25-.6.3-.55.25-.6.3-.6.25-.55.3-.6.25-.55.3-.6.3-.55.3-.6.3-.55.3-.55.25-.55.3-.55.3-.55.3-.55.3-.5.3-.55.3-.5.3-.55.3-.5.3-.5.3-.5.3-.45.25-.5.3-.45.3-.45.25-.5.3-.45.3-.45.25-.45.3-.5.25-.45.25-.45.25-.5.25-.45.25-.5.25-.45.25-.5.2-.5.25-.45.2-.5.25-.5.2-.45.2-.5.2-.5.2-.5.15-.5.2-.45.2-.5.15-.5.15-.5.2-.5.15-.5.1-.5.15-.5.15-.45.1-.5.15-.5.1-.5.1-.5.1-.5.1-.5.1-.5.05-.45.1-.5.05-.5.05-.5.05-.5.05-.45.05h-.5-.5l-.45.05h-.5l-.5-.05h-.45-.5l-.45-.05-.5-.05-.45-.05-.5-.05-.45-.05-.45-.1-.45-.05-.5-.1-.45-.1-.45-.15-.45-.1-.45-.15-.45-.15-.4-.15-.55-.2-.55-.2-.55-.15-.55-.2-.55-.2-.6-.2-.55-.15-.6-.2-.55-.2-.6-.15-.6-.15-.6-.2-.6-.15-.6-.15-.65-.2-.6-.15-.6-.15-.6-.15-.65-.15-.6-.15-.65-.15-.6-.15-.6-.15-.65-.1-.6-.15-.6-.15-.65-.15-.6-.1-.6-.15-.6-.1-.6-.15-.6-.15-.6-.1-.6-.1-.6-.15-.55-.1-.6-.15-.55-.1-.55-.1-.55-.15-.55-.1-.55-.1-.5-.15-.55-.1-.5-.1-.5-.1-.5-.15-.5-.1-.45-.1-.45-.1-.45-.1-.45-.1-.4-.15-.4-.1-.8-.2-.7-.2-.7-.25-.6-.2-.5-.25"/></g><g clip-path="url(#L)" class="B"><path d="M403.65 319.9l.45.15.5.1.45.15.45.1.5.1.45.1.45.1.45.1.45.1.45.05.4.1.45.1.45.05.4.1.4.05.45.05.4.05.4.05.4.05.4.05.8.1.75.05.75.05.75.05.7.05h.7.7.65l.7-.05h.6l.65-.05.6-.05.6-.1.6-.05.55-.1.55-.1.55-.1.55-.1.5-.15.5-.15.5-.1.5-.2.5-.15.6-.25.75-.3.4-.2.4-.15.45-.2.45-.2.5-.2.5-.25.55-.25.55-.25.6-.25.6-.25.6-.3.6-.25.65-.3.7-.3.7-.3.7-.3.7-.35.75-.3.75-.35.8-.3.75-.35.4-.15.4-.2.4-.15.45-.2.4-.15.4-.2.45-.15.4-.2.45-.15.4-.2.45-.15.45-.2.4-.2.45-.15.45-.2.45-.15.45-.2.45-.2.45-.15.5-.2.45-.15.45-.2.5-.2.45-.15.45-.2.5-.15.45-.2.5-.2.5-.15.45-.2.5-.15.5-.2.5-.15.5-.2.45-.2.5-.15.5-.2.5-.15.5-.15.5-.2.5-.15.55-.2.5-.15.5-.15.5-.2.5-.15.55-.15.5-.2.5-.15.55-.15.5-.15.5-.15.55-.15.5-.15.55-.2.5-.15.5-.1.55-.15.5-.15.55-.15.5-.15.55-.15.5-.1.55-.15.55-.15.5-.1.55-.15.5-.1.55-.15.5-.1.55-.15.5-.1.55-.1.55-.15-.5.1-.45.05-.55.1-.5.1-.55.1-.55.15-.6.15-.55.15-.65.15-.6.2-.65.2-.65.2-.65.25-.7.2-.65.25-.7.25-.75.3-.7.25-.75.3-.7.3-.75.3-.8.3-.75.3-.75.3-.8.35-.75.35-.8.3-.8.35-.8.35-.8.35-.8.4-.4.15-.4.2-.4.15-.4.2-.4.2-.4.15-.4.2-.4.2-.4.2-.4.15-.4.2-.4.2-.8.35-.8.4-.8.35-.8.4-.75.35-.8.4-.8.35-.75.35-.75.4-.75.35-.75.35-.75.35-.75.4-.7.35-.7.3-.7.35-.7.35-.65.3-.65.35-.65.3-.65.3-.6.3-.65.3-.55.3-.6.25-.55.25-.5.25-.55.25-.5.25-.55.25-.5.2-.5.2-.5.15-.5.2-.5.15-.5.2-.45.1-.5.15-.45.15-.5.1-.45.1-.5.1-.45.1-.45.1-.45.05-.45.05-.45.05-.45.05-.45.05H421l-.45.05h-.45-.4-.45-.45l-.4-.05h-.45l-.4-.05-.45-.05-.4-.05-.45-.05-.4-.05-.4-.05-.45-.05-.4-.1-.45-.1-.4-.05-.4-.1-.45-.1-.4-.1-.4-.15-.45-.1-.4-.1-.4-.15-.4-.1-.45-.15-.4-.1-.45-.15-.4-.15-.4-.15-.45-.15-.4-.15-.45-.15-.4-.15-.45-.15-.4-.2-.45-.15-.4-.15-.45-.2-.45-.15-.4-.2"/></g><g clip-path="url(#M)"><path d="M296.75 424.15l-.45-.05-.45-.05-.4-.05-.45-.05-.4-.05-.45-.05-.4-.1-.4-.05-.4-.05-.4-.05-.8-.15-.8-.1-.75-.15-.8-.2-.75-.15-.8-.2-.75-.25-.8-.25-.75-.3-.8-.3-.4-.2-.4-.2-.45-.2-.4-.2-.4-.25-.45-.2-.4-.25-.4-.25-.45-.25-.4-.25-.4-.25-.45-.25-.4-.25-.4-.25-.45-.25-.4-.3-.4-.25-.4-.3-.45-.3-.4-.25-.4-.3-.4-.3-.8-.6-.75-.65-.8-.6-.75-.65-.7-.7-.7-.7-.65-.6-.65-.7-.6-.75-.6-.75-.55-.8-.3-.4-.25-.4-.25-.45-.3-.4-.25-.45-.25-.4-.25-.45-.2-.45-.25-.45-.25-.45-.2-.45-.2-.45-.25-.45-.2-.45-.2-.45-.2-.45-.15-.45-.2-.45-.15-.45-.15-.45-.2-.45-.1-.45-.35-.7-.25-.75-.25-.75-.2-.75-.2-.75-.1-.7-.15-.75-.1-.7-.05-.75-.05-.7v-.75-.7l.05-.7.05-.75.1-.7.1-.7.1-.7.15-.75.15-.7.15-.7.2-.7.2-.7.2-.7.25-.75.25-.7.25-.7.25-.7.25-.7.25-.75.3-.7.3-.7.3-.75.25-.6.3-.6.35-.6.3-.6.35-.6.3-.6.35-.55.35-.55.35-.55.4-.5.35-.55.4-.5.35-.5.4-.45.4-.5.45-.45.6-.65.65-.6.65-.55.65-.5.65-.45.7-.45.65-.35.7-.35.7-.25.75-.3.75-.2.75-.2.8-.15.4-.05.4-.05.45-.05.4-.05.45-.05.45-.05h.45.45l.45-.05h.5l.45.05h.45l.45.05.45.05.45.05.45.05.45.1.4.1.45.1.45.1.4.1.45.15.4.15.45.15.4.2.4.15.4.2.4.2.8.45.75.5.8.55.7.6.75.65.7.65.75.6.8.5.4.25.4.2.4.2.4.2.45.2.4.2.45.15.45.15.4.15.45.15.45.15.45.1.45.15.4.1.45.15.45.1.45.15.45.1.45.15.4.1.45.15.45.1.4.15.45.15.4.1.45.15.45.2.45.15.45.2.45.25.45.2.4.25.45.25.4.25.45.3.4.25.4.3.4.3.75.65.75.7.75.7.7.75.65.8.3.4.3.4.3.4.3.45.3.4.25.45.3.4.25.45.25.45.25.4.25.55.2.55.2.55.2.55.2.55.15.55.1.55.15.6.1.55.1.6.05.55.1.6.05.55v.6l.05.6v.6.6.6.55.6.6l-.05.6v.6l-.05.65-.05.6v.6l-.05.6-.05.6-.05.6v.6l-.05.6v.55l-.05.45-.05.45-.05.45v.45l-.05.45-.05.5-.1.45-.05.45-.05.5-.1.45-.1.45-.1.5-.1.45-.1.45-.1.5-.15.45-.15.45-.15.45-.15.45-.15.45-.2.45-.15.45-.2.45-.25.4-.2.4-.25.45-.5.75-.55.75-.6.7-.75.8-.7.75-.8.8-.75.75-.8.75-.4.35-.45.3-.4.35-.4.3-.4.25-.4.25-.6.35-.6.25-.55.3-.55.25-.6.2-.55.25-.5.15-.55.2-.5.15-.55.2-.5.1-.5.15-.45.1-.5.1-.45.1-.45.05-.45.1-.45.05-.4.05h-.4l-.75.05h-.7-.65-.6l-.5-.05-.4-.1" fill="#e94625"/></g><g clip-path="url(#N)"><path d="M265.45 403.55l-.35-.65-.35-.7-.3-.7-.3-.7-.25-.7-.3-.7-.2-.75-.25-.7-.2-.7-.15-.7-.15-.75-.15-.7-.15-.75-.1-.7-.05-.75-.05-.75-.05-.7v-.75-.75l.05-.75.05-.7.1-.75.1-.75.1-.75.15-.75.2-.75.2-.75.25-.75.25-.75.3-.75.3-.75.35-.75.15-.4.2-.4.45-.8.5-.75.6-.65.6-.6.65-.55.7-.45.75-.35.8-.3.4-.15.4-.1.45-.1.4-.05.45-.05h.4.45l.45.05.45.05.45.05.5.15.45.1.45.15.5.15.45.25.4.2.45.25.4.3.75.6.75.65.75.65.7.65.8.6.8.5.5.35.55.25.55.3.6.25.55.25.6.25.6.2.6.2.6.2.6.2.6.15.6.2.6.15.6.15.6.15.6.1.5.2.55.15.55.15.55.15.55.15.55.15.55.15.55.2.55.15.55.2.55.2.55.2.55.2.55.2.5.25.55.25.5.25.5.25.5.3.5.3.45.3.45.35.45.35.45.4.4.4.4.4.4.45.35.5.35.5.3.5.3.55.3.55.25.7.25.65.25.7.25.75.2.7.15.75.15.75.15.75.1.75.1.8.1.75.05.8v.8l.05.8v.75l-.05.8v.8l-.1.8-.05.8-.1.8-.1.75-.15.8-.1.75-.2.8-.15.75-.2.75-.2.7-.25.75-.2.7-.25.7-.3.65-.25.65-.3.55-.3.45-.3.45-.3.45-.35.4-.3.4-.75.75-.75.65-.4.3-.4.25-.45.25-.4.25-.45.2-.45.2-.45.2-.45.15-.5.15-.45.15-.5.1-.5.1-.45.05-.5.1-.55.05h-.5l-.5.05h-.5-.55l-.5-.05h-.55l-.5-.05-.55-.1-.5-.05-.55-.1-.5-.1-.55-.1-.55-.1-.5-.15-.55-.15-.5-.15-.5-.15-.55-.15-.5-.2-.5-.2-.5-.2-.5-.2-.5-.2-.5-.2-.5-.25-.45-.25-.5-.2-.45-.25-.45-.3-.45-.25-.45-.25-.45-.25-.4-.3-.4-.25-.4-.3-.8-.6-.7-.6" fill="#ec6044"/></g><g clip-path="url(#O)"><path d="M283 418.85l-.65-.15-.6-.2-.6-.2-.65-.25-.6-.3-.6-.3-.65-.3-.6-.35-.6-.4-.6-.35-.6-.45-.6-.4-.55-.45-.6-.45-.55-.5-.55-.5-.55-.5-.55-.5-.55-.55-.5-.55-.5-.55-.5-.55-.5-.55-.45-.6-.45-.55-.45-.6-.4-.6-.45-.6-.35-.6-.4-.6-.35-.6-.3-.6-.35-.75-.2-.4-.15-.4-.15-.45-.15-.4-.15-.45-.15-.45-.15-.45-.15-.45-.1-.45-.15-.5-.1-.45-.1-.5-.1-.5-.1-.45-.1-.5-.1-.5-.05-.45-.1-.5-.05-.5-.05-.5-.05-.45-.05-.5-.05-.5v-.45l-.05-.5v-.45-.45l.05-.5v-.45l.05-.45v-.4l.05-.4.1-.4.05-.45.1-.4.15-.45.1-.4.15-.45.2-.4.15-.4.4-.75.5-.75.5-.65.6-.55.65-.45.7-.35.75-.25.4-.05.4-.05h.45l.45.05.45.1.45.1.5.2.5.2.6.4.55.45.5.5.45.6.4.6.4.7.35.7.35.75.3.75.35.8.35.75.35.75.35.7.35.7.45.65.45.55.5.5.55.4.65.4.7.3.7.3.75.3.7.25.75.25.45.25.4.25.75.5.65.55.6.6.5.6.55.7.5.75.3.4.3.4.4.7.5.75.55.75.55.8.3.4.3.4.3.4.3.45.3.4.25.45.3.4.25.45.3.45.25.45.25.4.2.45.25.45.2.5.15.45.2.45.15.45.1.45.1.5.05.45.05.45.05.5-.05.45v.45l-.1.5-.1.45-.15.4-.2.4-.4.75-.55.7-.65.6-.75.55-.8.45-.4.2-.45.2-.45.15-.45.15-.45.1-.45.15-.5.05-.45.05-.5.05-.45.05h-.5l-.45-.05h-.5l-.45-.1-.45-.05-.45-.1-.8-.3" fill="#ee6f56"/></g><g clip-path="url(#P)" fill="none" stroke="#000" class="C D E"><path d="M168.65 324.7v.65m0 0v.6m0 0l.05.55m0 0l.05.6m0 0l.05.55m0 0l.05.6m0 0l.1.55m0 0l.1.5m0 0l.1.55m0 0l.15.5m0 0l.1.5m0 0l.15.45m0 0l.15.5m0 0l.15.4m0 0l.2.45m0 0l.2.4m0 0l.35.75m0 0l.45.7m0 0l.45.6m0 0l.45.5m0 0l.5.4m0 0l.55.3m0 0l.5.15m0 0l.6.05m0 0l.55-.05m0 0l.5-.15m0 0l.55-.3m0 0l.5-.4m0 0l.45-.5m0 0l.45-.6m0 0l.4-.7m0 0l.4-.75m0 0l.2-.4m0 0l.15-.45m0 0l.15-.4m0 0l.15-.5m0 0l.15-.45m0 0l.15-.5m0 0l.1-.5m0 0l.1-.55m0 0l.1-.5m0 0l.1-.55m0 0l.05-.6m0 0l.05-.55m0 0l.05-.6m0 0l.05-.55"/><path d="M179.45 325.95v-.6m0 0l.05-.65m0 0l-.05-.6m0 0v-.6m0 0l-.05-.6m0 0l-.05-.55m0 0l-.05-.6m0 0l-.05-.55m0 0l-.1-.55m0 0l-.1-.55m0 0l-.1-.5m0 0l-.1-.55m0 0l-.15-.45m0 0l-.15-.5m0 0l-.15-.45m0 0l-.15-.45m0 0l-.15-.45m0 0l-.2-.4m0 0l-.4-.75m0 0l-.4-.7m0 0l-.45-.6m0 0l-.45-.5m0 0l-.5-.4m0 0l-.55-.3m0 0l-.5-.15m0 0l-.55-.1m0 0l-.6.1m0 0l-.5.15m0 0l-.55.3m0 0l-.5.4m0 0l-.45.5m0 0l-.45.6m0 0l-.45.7m0 0l-.35.75m0 0l-.2.4m0 0l-.2.45m0 0l-.15.45m0 0l-.15.45m0 0l-.15.5m0 0l-.1.45m0 0l-.15.55m0 0l-.1.5m0 0l-.1.55m0 0l-.1.55m0 0l-.05.55m0 0l-.05.6m0 0l-.05.55m0 0l-.05.6m0 0v.6m0 0v.6"/></g><g clip-path="url(#Q)" fill="none" stroke="#000" class="C D E"><path d="M421.75 285.7v.65m0 0l.05.6m0 0l.05.6m0 0l.1.55m0 0l.15.55m0 0l.1.5m0 0l.2.5m0 0l.2.4m0 0l.4.8m0 0l.5.55m0 0l.55.35m0 0l.65.1m0 0l.55-.1m0 0l.55-.35m0 0l.5-.55m0 0l.45-.8m0 0l.2-.4m0 0l.15-.5m0 0l.15-.5m0 0l.15-.55m0 0l.1-.55m0 0l.05-.6m0 0l.05-.6m0 0l.05-.65m0 0l-.05-.6m0 0l-.05-.65m0 0l-.05-.6m0 0l-.1-.55m0 0l-.15-.55m0 0l-.15-.5m0 0l-.15-.5m0 0l-.2-.4m0 0l-.45-.75m0 0l-.5-.6m0 0l-.55-.35m0 0l-.55-.15"/><path d="M424.7 279.5l-.65.15m0 0l-.55.35m0 0l-.5.6m0 0l-.4.75m0 0l-.2.4m0 0l-.2.5m0 0l-.1.5m0 0l-.15.55m0 0l-.1.55m0 0l-.05.6m0 0l-.05.65m0 0v.6"/></g><g clip-path="url(#R)" fill="none" stroke="#000" class="C D E"><path d="M440.2 380.9l.15-.75m0 0l.1-.8m0 0l.05-.4m0 0v-.4m0 0l-.05-.45m0 0l-.05-.4m0 0l-.05-.45m0 0l-.1-.45m0 0l-.1-.4m0 0l-.15-.45m0 0l-.15-.5m0 0l-.2-.45m0 0l-.2-.45m0 0l-.2-.45m0 0l-.25-.5m0 0l-.3-.45m0 0l-.25-.5m0 0l-.35-.5m0 0l-.3-.45m0 0l-.35-.5m0 0l-.4-.5m0 0l-.4-.5m0 0l-.4-.5m0 0l-.45-.45m0 0l-.45-.5m0 0l-.5-.5m0 0l-.5-.5m0 0l-.55-.5m0 0l-.55-.5m0 0l-.55-.55m0 0l-.55-.35m0 0l-.3-.2m0 0l-.1-.1m0 0l-.5-.4m0 0l-.45-.4m0 0l-.5-.4m0 0l-.45-.4m0 0l-.5-.4m0 0l-.45-.35m0 0l-.45-.4m0 0l-.5-.35m0 0l-.45-.35m0 0l-.5-.35m0 0l-.45-.4m0 0l-.45-.35m0 0l-.45-.35m0 0l-.45-.4m0 0l-.45-.35m0 0l-.45-.4m0 0l-.45-.4m0 0l-.4-.4m0 0l-.45-.45m0 0l-.4-.4m0 0l-.4-.45m0 0l-.4-.5m0 0l-.4-.45m0 0l-.4-.55m0 0l-.35-.5m0 0l-.4-.6m0 0l-.35-.55m0 0l-.35-.6m0 0l-.35-.65m0 0l-.3-.7m0 0l-.3-.7m0 0l-.3-.75m0 0l-.15-.4m0 0l-.15-.4m0 0l-.15-.5m0 0l-.2-.5m0 0l-.15-.4m0 0l-.1-.45m0 0l-.2-.5m0 0l-.2-.5m0 0l-.2-.5m0 0l-.15-.5m0 0l-.15-.45m0 0l-.1-.45m0 0l-.15-.45m0 0l-.15-.45m0 0l-.1-.4m0 0l-.1-.45m0 0l-.25-.75m0 0l-.25-.75m0 0l-.25-.7m0 0l-.3-.65m0 0l-.35-.6m0 0l-.4-.6m0 0l-.5-.5m0 0l-.55-.5m0 0l-.65-.45m0 0l-.75-.45m0 0l-.4-.2m0 0l-.45-.2m0 0l-.8-.35m0 0l-.55-.15m0 0l-.6-.15m0 0l-.65-.15m0 0l-.7-.15m0 0l-.75-.15m0 0l-.75-.1m0 0l-.75-.15m0 0l-.75-.1m0 0l-.75-.1m0 0l-.7-.1m0 0l-.65-.1m0 0l-.65-.1m0 0l-.5-.05m0 0l-.45-.1m0 0l-.6-.15m0 0l-.45-.1m0 0l-.5-.1m0 0l-.55-.15m0 0l-.65-.15m0 0l-.75-.15m0 0l-.75-.15m0 0l-.4-.1m0 0l-.45-.1m0 0l-.45-.1m0 0l-.45-.05m0 0l-.45-.1m0 0l-.45-.1m0 0l-.5-.1m0 0l-.45-.1m0 0l-.5-.15m0 0l-.5-.1m0 0l-.55-.1m0 0l-.5-.1m0 0l-.5-.1m0 0l-.55-.1m0 0l-.55-.15m0 0l-.55-.1m0 0l-.5-.1m0 0l-.55-.15m0 0l-.55-.1m0 0l-.55-.1m0 0l-.55-.15m0 0l-.6-.1m0 0l-.55-.1m0 0l-.55-.1m0 0l-.55-.15m0 0l-.55-.1m0 0l-.55-.1m0 0l-.5-.15m0 0l-.55-.1m0 0l-.55-.1m0 0l-.5-.1m0 0l-.55-.15m0 0l-.5-.1m0 0l-.5-.1m0 0l-.55-.1m0 0l-.45-.1m0 0l-.5-.1m0 0l-.5-.1m0 0l-.45-.1m0 0l-.45-.1m0 0l-.45-.1m0 0l-.45-.1m0 0l-.4-.1m0 0l-.4-.1m0 0l-.75-.15m0 0l-.7-.2m0 0l-.45-.05m0 0l-.4-.1m0 0l-.4-.1m0 0l-.4-.1m0 0l-.4-.1m0 0l-.4-.1m0 0l-.8-.15m0 0l-.8-.2m0 0l-.75-.2m0 0l-.8-.15m0 0l-.75-.2m0 0l-.75-.15m0 0l-.75-.15m0 0l-.75-.15m0 0l-.75-.2m0 0l-.75-.1m0 0l-.7-.15m0 0l-.7-.15m0 0l-.7-.15m0 0l-.65-.1m0 0l-.6-.1m0 0l-.6-.1m0 0l-.6-.1m0 0l-.6-.05m0 0l-.6-.1m0 0l-.6-.05m0 0l-.55-.1m0 0l-.6-.05m0 0l-.6-.1m0 0l-.55-.05m0 0l-.6-.05m0 0l-.55-.05m0 0l-.6-.05m0 0h-.55m0 0l-.55-.05m0 0h-.55m0 0l-.6-.05m0 0h-.55m0 0h-.55m0 0h-.55m0 0h-.55m0 0h-.5m0 0H347m0 0h-.55m0 0l-.55.05m0 0h-.5m0 0l-.55.05m0 0l-.5.05m0 0l-.55.05m0 0l-.5.05m0 0l-.55.05m0 0l-.5.05m0 0l-.5.05m0 0l-.55.1m0 0l-.5.05m0 0l-.5.1m0 0l-.5.1m0 0l-.5.1m0 0l-.5.1m0 0l-.5.1m0 0l-.5.1m0 0l-.5.15m0 0l-.5.1m0 0l-.5.15m0 0l-.5.1m0 0l-.5.15m0 0l-.5.15m0 0l-.45.15m0 0l-.5.2m0 0l-.5.15m0 0l-.45.15m0 0l-.5.2m0 0l-.5.2m0 0l-.45.15m0 0l-.5.2m0 0l-.45.2m0 0l-.5.25m0 0l-.45.2m0 0l-.5.2m0 0l-.45.25m0 0l-.5.25m0 0l-.45.25m0 0l-.45.2m0 0l-.5.25m0 0l-.4.2m0 0l-.5.2m0 0l-.55.3m0 0l-.65.25m0 0l-.65.3m0 0l-.65.35m0 0l-.7.3m0 0l-.7.3m0 0l-.65.3m0 0l-.65.25m0 0l-.6.25m0 0l-.5.2m0 0l-.75.2m0 0l-.75.3m0 0l-.45.15m0 0l-.5.2m0 0l-.5.2m0 0l-.55.2m0 0l-.6.2m0 0l-.6.2m0 0l-.65.2m0 0l-.65.25m0 0l-.65.25m0 0l-.7.25m0 0l-.7.2m0 0l-.7.25m0 0l-.7.25m0 0l-.65.25m0 0l-.7.25m0 0l-.7.25m0 0l-.7.25m0 0l-.65.25m0 0l-.6.25m0 0l-.65.25m0 0l-.6.2m0 0l-.55.25m0 0l-.55.2m0 0l-.45.2m0 0l-.45.2m0 0l-.45.15m0 0l-.65.35m0 0l-.45.25m0 0l-.55.4m0 0l-.5.4m0 0l-.45.4m0 0l-.4.4m0 0l-.35.4m0 0l-.3.4m0 0l-.25.4m0 0l-.2.4m0 0l-.15.45m0 0l-.1.4m0 0l-.05.45m0 0v.4m0 0l.05.4m0 0l.1.45m0 0l.15.4m0 0l.2.4m0 0l.25.45m0 0l.3.4m0 0l.35.4m0 0l.45.4m0 0l.45.4m0 0l.5.4m0 0l.6.35m0 0l.6.4m0 0l.7.35m0 0l.75.35m0 0l.8.35m0 0l.4.2m0 0l.45.15m0 0l.45.15m0 0l.45.15m0 0l.5.2m0 0l.45.15m0 0l.5.15m0 0l.55.15m0 0l.55.15m0 0l.55.1m0 0l.5.15m0 0l.5.15m0 0l.5.15m0 0l.5.2m0 0l.5.15m0 0l.5.15m0 0l.5.2m0 0l.5.15m0 0l.5.2m0 0l.5.2m0 0l.5.2m0 0l.5.2m0 0l.45.2m0 0l.5.2m0 0l.5.25m0 0l.45.2m0 0l.5.25m0 0l.45.25m0 0l.5.2m0 0l.45.25m0 0l.45.25m0 0l.45.25m0 0l.5.25m0 0l.45.3m0 0l.45.25m0 0l.45.3m0 0l.4.25m0 0l.45.3m0 0l.45.3m0 0l.45.3m0 0l.4.3m0 0l.45.3m0 0l.4.3m0 0l.45.35m0 0l.4.3m0 0l.4.35m0 0l.4.3m0 0l.4.35m0 0l.8.7m0 0l.8.7m0 0l.75.75m0 0l.75.75m0 0l.75.75m0 0l.7.8m0 0l.35.4m0 0l.3.4m0 0l.35.4m0 0l.35.45m0 0l.3.4m0 0l.35.45m0 0l.3.4m0 0l.3.45m0 0l.3.45m0 0l.3.45m0 0l.3.45m0 0l.3.45m0 0l.3.45m0 0l.3.45m0 0l.25.55m0 0l.25.5m0 0l.25.5m0 0l.25.55m0 0l.2.55m0 0l.25.55m0 0l.2.55m0 0l.15.55m0 0l.2.6m0 0l.15.55m0 0l.15.6m0 0l.15.6m0 0l.15.6m0 0l.1.6m0 0l.1.6m0 0l.1.65m0 0l.1.6m0 0l.05.65m0 0l.05.65m0 0l.05.6m0 0l.05.65m0 0v.65m0 0v.65m0 0v.7m0 0v.65m0 0l-.05.65m0 0v.7m0 0l-.05.65m0 0l-.1.65m0 0l-.05.7m0 0l-.1.65m0 0l-.1.7m0 0l-.1.7m0 0l-.15.65m0 0l-.1.7m0 0l-.15.7m0 0l-.2.65m0 0l-.15.7m0 0l-.2.7m0 0l-.2.65m0 0l-.2.7m0 0l-.2.7m0 0l-.25.65m0 0l-.25.7m0 0l-.25.65m0 0l-.25.7m0 0l-.3.65m0 0l-.3.7m0 0l-.3.65m0 0l-.3.65m0 0l-.35.7m0 0l-.35.65m0 0l-.35.65m0 0l-.35.65m0 0l-.4.65m0 0l-.4.65m0 0l-.4.6m0 0l-.4.65m0 0l-.45.65m0 0l-.45.6m0 0l-.45.6m0 0l-.45.65m0 0l-.5.6m0 0l-.45.55m0 0l-.6.7m0 0l-.65.7m0 0l-.65.65m0 0l-.65.65m0 0l-.65.65m0 0l-.7.65m0 0l-.7.6m0 0l-.75.55m0 0l-.75.6m0 0l-.75.55m0 0l-.8.5m0 0l-.75.55m0 0l-.4.25m0 0l-.45.25m0 0l-.4.25m0 0l-.4.2m0 0l-.4.25m0 0l-.45.25m0 0l-.4.2m0 0l-.45.2m0 0l-.4.25m0 0l-.45.2m0 0l-.45.2m0 0l-.4.2m0 0l-.45.2m0 0l-.45.2m0 0l-.45.2m0 0l-.45.15m0 0l-.45.2m0 0l-.45.15m0 0l-.45.2m0 0l-.45.15m0 0l-.5.15m0 0l-.45.15m0 0l-.45.15m0 0l-.45.15m0 0l-.5.15m0 0l-.45.1m0 0l-.5.15m0 0l-.45.1m0 0l-.5.15m0 0l-.45.1m0 0l-.5.1m0 0l-.5.1m0 0l-.45.1m0 0l-.5.1m0 0l-.5.1m0 0l-.45.05m0 0l-.5.1m0 0l-.5.05m0 0l-.5.1m0 0l-.5.05m0 0l-.5.05m0 0l-.45.05m0 0l-.5.05m0 0h-.5m0 0l-.5.05m0 0l-.5.05m0 0h-.5m0 0h-.5m0 0l-.5.05m0 0h-.5m0 0h-.5m0 0l-.5-.05m0 0h-.5m0 0h-.5m0 0l-.5-.05m0 0h-.5m0 0l-.5-.05m0 0l-.5-.05m0 0l-.5-.05m0 0l-.5-.05m0 0l-.5-.05m0 0l-.5-.05m0 0l-.5-.1m0 0l-.5-.05m0 0l-.5-.1m0 0l-.5-.1m0 0l-.5-.1m0 0l-.45-.1m0 0l-.5-.1m0 0l-.5-.1m0 0l-.5-.15m0 0l-.5-.1m0 0l-.45-.15m0 0l-.5-.15m0 0l-.5-.15m0 0l-.5-.15m0 0l-.45-.15m0 0l-.5-.15m0 0l-.5-.2m0 0l-.45-.15m0 0l-.5-.2m0 0l-.45-.2m0 0l-.5-.2m0 0l-.45-.2m0 0l-.45-.2m0 0l-.5-.2m0 0l-.45-.25m0 0l-.45-.2m0 0l-.5-.25m0 0l-.45-.25m0 0l-.45-.25m0 0l-.45-.25m0 0l-.45-.25m0 0l-.45-.3m0 0l-.45-.25m0 0l-.45-.3m0 0l-.45-.3m0 0l-.4-.3m0 0l-.45-.3m0 0l-.45-.3m0 0l-.4-.35m0 0l-.45-.3m0 0l-.4-.35m0 0l-.4-.35m0 0l-.75-.6m0 0l-.7-.6m0 0l-.7-.65m0 0l-.65-.65m0 0l-.65-.65m0 0l-.7-.7m0 0l-.6-.65m0 0l-.65-.75m0 0l-.6-.7m0 0l-.6-.75m0 0l-.6-.75m0 0l-.55-.75m0 0l-.55-.75m0 0l-.55-.8m0 0l-.5-.8m0 0l-.25-.4m0 0l-.25-.4m0 0l-.25-.45m0 0l-.2-.4m0 0l-.25-.4m0 0l-.2-.45m0 0l-.25-.4m0 0l-.2-.4m0 0l-.2-.45m0 0l-.25-.45m0 0l-.2-.4m0 0l-.15-.45m0 0l-.2-.45m0 0l-.2-.4m0 0l-.15-.45m0 0l-.2-.45m0 0l-.15-.45m0 0l-.2-.45m0 0l-.15-.45m0 0l-.15-.45m0 0l-.15-.45m0 0l-.1-.45m0 0l-.15-.5m0 0l-.1-.45m0 0l-.15-.45m0 0l-.1-.45m0 0l-.1-.5m0 0l-.1-.45m0 0l-.1-.5m0 0l-.1-.45m0 0l-.05-.5m0 0l-.1-.45m0 0l-.05-.5m0 0l-.05-.5m0 0l-.1-.45"/><path d="M256.55 392.4v-.5m0 0l-.05-.5m0 0l-.05-.45m0 0v-.5m0 0l-.05-.5m0 0v-.5m0 0v-.5m0 0v-.5m0 0v-.5m0 0l.05-.5m0 0v-.5m0 0l.05-.5m0 0l.05-.5m0 0l.05-.5m0 0l.05-.5m0 0l.05-.5m0 0l.1-.5m0 0l.05-.55m0 0l.1-.5m0 0l.1-.5m0 0l.1-.5m0 0l.15-.5m0 0l.1-.55m0 0l.15-.5m0 0l.15-.5m0 0l.15-.55m0 0l.15-.5m0 0l.15-.5m0 0l.2-.55m0 0l.2-.5m0 0l.2-.55m0 0l.2-.5m0 0l.2-.5m0 0l.2-.55m0 0l.25-.5m0 0l.25-.55m0 0l.25-.5m0 0l.25-.55m0 0l.25-.5m0 0l.3-.55m0 0l.3-.5m0 0l.3-.55m0 0l.3-.5m0 0l.3-.55m0 0l.35-.5m0 0l.35-.55m0 0l.35-.5m0 0l.35-.55m0 0l.35-.5m0 0l.4-.55m0 0l.4-.55m0 0l.4-.5m0 0l.4-.55m0 0l.45-.5m0 0l.4-.55m0 0l.45-.5m0 0l.45-.55m0 0l.5-.5m0 0l.45-.55m0 0l.5-.5m0 0l.5-.55m0 0l.5-.5m0 0l.55-.55m0 0l.5-.5m0 0l.5-.55m0 0l.45-.5m0 0l.5-.5m0 0l.4-.5m0 0l.45-.5m0 0l.4-.5m0 0l.35-.5m0 0l.4-.45m0 0l.3-.5m0 0l.35-.45m0 0l.3-.45m0 0l.3-.45m0 0l.25-.45m0 0l.25-.45m0 0l.2-.45m0 0l.25-.4m0 0l.15-.45m0 0l.2-.4m0 0l.15-.4m0 0l.1-.45m0 0l.15-.4m0 0l.15-.75m0 0l.1-.75m0 0l.05-.75m0 0l-.05-.75m0 0l-.15-.65m0 0l-.2-.7m0 0l-.25-.65m0 0l-.35-.6m0 0l-.45-.6m0 0l-.45-.6m0 0l-.6-.55m0 0l-.6-.55m0 0l-.7-.5m0 0l-.8-.5m0 0l-.4-.25m0 0l-.4-.25m0 0l-.45-.2m0 0l-.5-.25m0 0l-.45-.2m0 0l-.5-.25m0 0l-.55-.2m0 0l-.5-.2m0 0l-.55-.2m0 0l-.6-.2m0 0l-.55-.2m0 0l-.6-.15m0 0l-.65-.2m0 0l-.6-.2m0 0l-.55-.1m0 0l-.55-.1m0 0l-.5-.15m0 0l-.55-.1m0 0l-.55-.1m0 0l-.55-.1m0 0l-.6-.1m0 0l-.55-.1m0 0l-.55-.1m0 0l-.6-.1m0 0l-.6-.1m0 0l-.6-.1m0 0l-.65-.05m0 0l-.6-.1m0 0l-.65-.1m0 0l-.65-.1m0 0l-.65-.05m0 0l-.7-.1m0 0l-.7-.1m0 0l-.7-.1m0 0l-.7-.05m0 0l-.75-.1m0 0l-.75-.1m0 0l-.8-.05m0 0l-.75-.1m0 0l-.4-.05m0 0l-.45-.05m0 0l-.4-.05m0 0h-.4m0 0l-.4-.05m0 0l-.45-.05m0 0l-.4-.05m0 0l-.45-.05m0 0l-.45-.05m0 0l-.45-.05m0 0L245 335m0 0l-.45-.05m0 0l-.45-.05m0 0l-.45-.05m0 0h-.35m0 0h-.5m0 0h-.7m0 0h-.45m0 0h-.45m0 0l-.45-.05m0 0h-.5m0 0h-.55m0 0h-.55m0 0l-.55-.05m0 0h-.6m0 0h-.55m0 0l-.6-.05m0 0h-.55m0 0h-.6m0 0h-.55m0 0l-.55-.05m0 0h-.5m0 0h-.5m0 0h-.45m0 0l-.45-.05m0 0h-.8m0 0h-.55m0 0l-.5-.05m0 0h-.7m0 0l-.7-.05m0 0l-.75-.05m0 0h-.75m0 0l-.75-.05m0 0l-.8-.05m0 0h-.75m0 0l-.45-.05m0 0h-.4m0 0h-.4m0 0l-.4-.05m0 0h-.45m0 0l-.4-.05m0 0h-.45m0 0h-.4m0 0l-.45-.05m0 0h-.45m0 0h-.4m0 0l-.45-.05m0 0h-.45m0 0h-.45m0 0l-.45-.05m0 0h-.45m0 0h-.45m0 0l-.45-.05m0 0h-.5m0 0h-.45m0 0l-.45-.05m0 0h-.5m0 0h-.45m0 0h-.45m0 0l-.5-.05m0 0h-.45m0 0h-.5m0 0h-.45m0 0l-.5-.05m0 0h-.5m0 0h-.45m0 0h-.5m0 0l-.5-.05m0 0h-.45m0 0h-.5m0 0h-.5m0 0h-.5m0 0l-.45-.05m0 0h-.5m0 0h-.5m0 0h-.5m0 0h-.45m0 0h-.5m0 0h-.5m0 0h-.5m0 0h-.5m0 0h-.45m0 0h-.5m0 0h-.5m0 0l-.5-.05m0 0l-.5.05m0 0h-.45m0 0h-.5m0 0h-.5m0 0h-.5m0 0h-.45m0 0h-.5m0 0h-.5m0 0h-.45m0 0h-.5m0 0h-.45m0 0l-.5.05m0 0h-.45m0 0h-.5m0 0h-.45m0 0l-.5.05m0 0h-.45m0 0h-.45m0 0h-.5m0 0l-.45.05m0 0h-.45m0 0l-.45.05m0 0h-.45m0 0h-.45m0 0l-.45.05m0 0h-.45m0 0l-.45.05m0 0h-.45m0 0l-.45.05m0 0h-.4m0 0l-.45.05m0 0l-.45.05m0 0h-.4m0 0l-.45.05m0 0l-.4.05m0 0h-.4m0 0l-.4.05m0 0l-.4.05m0 0l-.8.05m0 0l-.8.1m0 0l-.75.1m0 0l-.75.1m0 0l-.75.1m0 0l-.7.1m0 0l-.7.1m0 0l-.65.15m0 0l-.65.1m0 0l-.65.15m0 0l-.6.15m0 0l-.55.1m0 0l-.55.15"/><path d="M176.15 335.85l.65-.7m0 0l.35-.45m0 0l.3-.55m0 0l.3-.55m0 0l.3-.6m0 0l.25-.65m0 0l.25-.7m0 0l.2-.75m0 0l.2-.8m0 0l.1-.4m0 0l.1-.4m0 0l.1-.4m0 0l.05-.45m0 0l.05-.4m0 0l.05-.45m0 0l.05-.45m0 0l.05-.45m0 0l.05-.45m0 0v-.45m0 0v-.45m0 0l.05-.5m0 0l-.05-.55m0 0v-.55m0 0v-.55m0 0l-.05-.5m0 0l-.05-.55m0 0l-.05-.5m0 0l-.1-.55m0 0l-.05-.5m0 0l-.1-.5m0 0l-.1-.45m0 0l-.1-.5m0 0l-.1-.45m0 0l-.15-.45m0 0l-.15-.4m0 0l-.1-.45m0 0l-.15-.4m0 0l-.35-.75m0 0l-.35-.7m0 0l-.4-.65m0 0l-.4-.55m0 0l-.45-.5m0 0l-.45-.4m0 0l-.5-.35m0 0l-.5-.25m0 0l.65-.1m0 0l.65-.1m0 0l.7-.15m0 0l.7-.1m0 0l.7-.1m0 0l.7-.1m0 0l.7-.1m0 0l.7-.05m0 0l.75-.1m0 0l.75-.1m0 0l.75-.05m0 0l.75-.1m0 0l.75-.05m0 0l.75-.05m0 0l.8-.1m0 0l.8-.05m0 0l.75-.05m0 0h.4m0 0l.4-.05m0 0h.4m0 0l.45-.05m0 0h.4m0 0l.4-.05m0 0h.4m0 0h.4m0 0l.45-.05m0 0h.4m0 0h.4m0 0l.45-.05m0 0h.4m0 0h.45m0 0l.4-.05m0 0h.45m0 0h.4m0 0h.45m0 0l.4-.05m0 0h.45m0 0h.45m0 0h.4m0 0h.45m0 0h.45m0 0h.45m0 0l.45-.05m0 0h.45m0 0h.4m0 0h.45m0 0h.45m0 0h.45m0 0h.45m0 0h.5m0 0h.45m0 0h.45m0 0h.45m0 0h.45m0 0h.45m0 0h.5m0 0h.45m0 0h.45m0 0l.5.05m0 0h.45m0 0h.5m0 0h.45m0 0h.45m0 0h.5m0 0h.45m0 0l.5.05m0 0h.5m0 0h.45m0 0h.5m0 0h.5m0 0l.45.05m0 0h.5m0 0h.5m0 0h.5m0 0l.45.05m0 0h.5m0 0h.5m0 0h.5m0 0l.5.05m0 0h.5m0 0h.5m0 0l.5.05m0 0h.5m0 0h.5m0 0l.5.05m0 0h.5m0 0h.5m0 0l.5.05m0 0h.55m0 0h.5m0 0l.5.05m0 0h.5m0 0l.55.05m0 0h.5m0 0h.5m0 0l.55.05m0 0h.5m0 0l.5.05m0 0h.55m0 0l.5.05m0 0h.55m0 0h.5m0 0l.55.05m0 0h.5m0 0l.55.05m0 0h.5m0 0l.55.05m0 0h.55m0 0l.5.05m0 0h.55m0 0h.55m0 0l.55.05m0 0l.6.05m0 0h.55m0 0l.55.05m0 0h.5m0 0l.5.05m0 0h.5m0 0l.45.05m0 0h.45m0 0l.45.05m0 0h.45m0 0l.4.05m0 0h.75m0 0l.7.05m0 0l.65.05m0 0h.6m0 0l.55.05m0 0h.5m0 0l.45.05m0 0h.4m0 0l.65.05m0 0h.55m0 0l.4.05m0 0h.45m0 0h.25m0 0h.6m0 0l.45.05m0 0l.5.05m0 0l.5.05m0 0h.5m0 0l.45.05m0 0l.5.05m0 0l.5.05m0 0l.45.05m0 0h.45m0 0l.5.05m0 0l.45.05m0 0l.45.05m0 0l.45.05m0 0l.45.05m0 0l.45.05m0 0l.45.05m0 0l.45.05m0 0l.4.05m0 0l.45.05m0 0l.45.05m0 0l.4.1m0 0l.45.05m0 0l.4.05m0 0l.4.05m0 0l.45.05m0 0l.4.05m0 0l.4.05m0 0l.4.1m0 0l.8.1m0 0l.8.15m0 0l.75.1m0 0l.75.15m0 0l.75.1m0 0l.75.15m0 0l.7.15m0 0l.7.1m0 0l.7.15m0 0l.7.15m0 0l.65.1m0 0l.65.15m0 0l.65.1m0 0l.65.15m0 0l.6.15m0 0l.65.1m0 0l.6.15m0 0l.6.1m0 0l.55.15m0 0l.55.1m0 0l.5.1m0 0l.55.1m0 0l.55.1m0 0l.5.1m0 0l.55.1m0 0l.5.1m0 0l.5.1m0 0l.55.1m0 0l.5.1m0 0l.5.05m0 0l.5.1m0 0l.5.1m0 0l.45.05m0 0l.5.1m0 0l.5.05m0 0l.5.1m0 0l.45.05m0 0l.5.1m0 0l.5.05m0 0l.45.05m0 0l.5.05m0 0l.5.05m0 0l.45.05m0 0l.5.05m0 0l.5.05m0 0h.45m0 0l.5.05m0 0h.5m0 0l.45.05m0 0h.5m0 0h.5m0 0h.5m0 0h.5m0 0h.5m0 0h.5m0 0l.5-.05m0 0h.5m0 0l.55-.05m0 0h.5m0 0l.55-.05m0 0l.5-.05m0 0l.55-.05m0 0l.55-.1m0 0l.55-.05m0 0l.55-.1m0 0l.55-.05m0 0l.55-.1m0 0l.6-.1m0 0l.55-.1m0 0l.6-.1m0 0l.6-.15m0 0l.6-.1m0 0l.6-.15m0 0l.65-.15m0 0l.6-.15m0 0l.65-.15m0 0l.65-.2m0 0l.65-.15m0 0l.65-.2m0 0l.7-.2m0 0l.7-.2m0 0l.7-.25m0 0l.65-.2m0 0l.4-.15m0 0l.45-.2m0 0l.5-.2m0 0l.5-.2m0 0l.6-.2m0 0l.55-.25m0 0l.6-.25m0 0l.65-.25m0 0l.65-.3m0 0l.65-.25m0 0l.65-.3m0 0l.65-.3m0 0l.7-.3m0 0l.65-.3m0 0l.7-.25m0 0l.65-.3m0 0l.65-.3m0 0l.65-.3m0 0l.6-.25m0 0l.6-.3m0 0l.6-.25m0 0l.55-.25m0 0l.5-.25m0 0l.5-.2m0 0l.45-.2m0 0l.4-.2m0 0l.65-.35m0 0l.5-.25m0 0l.75-.3m0 0l.75-.3m0 0l.75-.3m0 0l.8-.25m0 0l.75-.3m0 0l.8-.25m0 0l.75-.25m0 0l.8-.25m0 0l.8-.25m0 0l.75-.25m0 0l.8-.2m0 0l.8-.25m0 0l.8-.2m0 0l.8-.2m0 0l.8-.2m0 0l.4-.05m0 0l.4-.1m0 0l.4-.1m0 0l.4-.05m0 0l.4-.1m0 0l.4-.1m0 0l.4-.05m0 0l.4-.1m0 0l.4-.05m0 0l.45-.05m0 0l.4-.1m0 0l.4-.05m0 0l.4-.05m0 0l.45-.05m0 0l.4-.05m0 0l.4-.05m0 0l.45-.05m0 0l.4-.05m0 0l.4-.05m0 0l.45-.05m0 0l.4-.05m0 0h.45m0 0l.4-.05m0 0l.45-.05m0 0h.4m0 0l.45-.05m0 0h.45m0 0h.4m0 0l.45-.05m0 0h.4m0 0h.45m0 0h.45m0 0h.45m0 0l.45-.05m0 0h.25m0 0h.75m0 0l.5-.05m0 0h.55m0 0l.65-.05m0 0h.65m0 0h.7m0 0l.7-.05m0 0h.7m0 0l.7.05m0 0h.65m0 0h.6m0 0l.55.05m0 0l.45.05m0 0l.4.15m0 0l.4.1m0 0l.8.2m0 0l.75.1m0 0l.8.05m0 0h.4m0 0l.4-.05m0 0l.45-.05m0 0l.4-.1m0 0l.45-.15m0 0l.4-.15m0 0l.45-.2m0 0l.5-.25m0 0l.2-.15m0 0l.65-.4m0 0l.4-.25m0 0l.5-.35m0 0l.5-.3m0 0l.55-.35m0 0l.5-.35m0 0l.5-.3m0 0l.5-.35m0 0l.4-.25m0 0l.65-.4m0 0l.25-.2m0 0l.55-.35m0 0l.6-.35m0 0l.6-.4m0 0l.55-.35m0 0l.6-.4m0 0l.6-.35m0 0l.6-.35m0 0l.6-.35m0 0l.6-.35m0 0l.6-.35m0 0l.65-.35m0 0l.6-.3m0 0l.65-.3m0 0l.65-.3m0 0l.65-.3m0 0l.7-.3m0 0l.7-.25m0 0l.7-.25m0 0l.7-.25m0 0l.75-.25m0 0l.75-.2m0 0l.75-.2m0 0l.8-.15m0 0l.4-.1m0 0l.4-.05m0 0l.45-.1m0 0l.4-.05m0 0l.45-.05m0 0l.4-.05m0 0l.45-.05m0 0l.45-.05m0 0l.45-.05m0 0l.45-.05m0 0h.45m0 0l.45-.05m0 0h.5m0 0l.5-.05m0 0h.45m0 0h.5m0 0h.5m0 0h.55m0 0l.2.05m0 0l.65.1m0 0l.4.05m0 0l.5.05m0 0l.5.05m0 0l.55.05m0 0l.5.1m0 0l.5.05m0 0l.5.05m0 0l.4.05m0 0l.65.1m0 0h.25m0 0l.45.05m0 0l.45.05m0 0h.4m0 0l.45.05m0 0l.75.05m0 0h.8m0 0l.7.05m0 0l.7-.05m0 0h.65m0 0l.65-.05m0 0l.65-.1m0 0l.65-.15m0 0l.65-.2m0 0l.65-.2m0 0l.65-.3m0 0l.75-.3m0 0l.75-.4m0 0l.8-.5m0 0l.45-.35m0 0l.5-.4m0 0l.55-.35m0 0l.55-.4m0 0l.5-.45m0 0l.55-.4m0 0l.5-.5m0 0l.5-.5m0 0l.5-.5m0 0l.55-.5m0 0l.55-.5m0 0l.6-.5m0 0l.6-.5m0 0l.65-.5m0 0l.65-.5m0 0l.7-.45m0 0l.7-.45m0 0l.7-.45m0 0l.75-.45m0 0l.8-.4m0 0l.4-.15m0 0l.4-.2m0 0l.45-.2m0 0l.4-.15m0 0l.45-.15m0 0l.45-.15m0 0l.45-.15m0 0l.5-.15m0 0h.3"/><path d="M423.95 279.5l-.5.35m0 0l-.4.5m0 0l-.35.65m0 0l-.35.75m0 0l-.15.45m0 0l-.1.45m0 0l-.1.45m0 0l-.1.45m0 0l-.1.5m0 0l-.05.5m0 0v.5m0 0v.45m0 0v.7m0 0l.05.65m0 0l.05.6m0 0l.1.6m0 0l.1.55m0 0l.15.55m0 0l.15.45m0 0l.2.45m0 0l.4.8m0 0l.5.55m0 0l.5.35m0 0l.6.1m0 0l-.6.4m0 0l-.6.4m0 0l-.55.4m0 0l-.6.4m0 0l-.6.45m0 0l-.55.5m0 0l-.6.55m0 0l-.55.55m0 0l-.75.65m0 0l-.7.65m0 0l-.7.6m0 0l-.75.6m0 0l-.75.6m0 0l-.75.55m0 0l-.75.55m0 0l-.4.25m0 0l-.4.25m0 0l-.7.45m0 0l-.7.4m0 0l-.7.35m0 0l-.65.35m0 0l-.65.3m0 0l-.65.25m0 0l-.6.25m0 0l-.6.25m0 0l-.65.2m0 0l-.6.2m0 0l-.55.15m0 0l-.6.15m0 0l-.6.15m0 0l-.55.1m0 0l-.55.1m0 0l-.55.05m0 0l-.55.1m0 0l-.55.05m0 0h-.55m0 0l-.5.05m0 0h-.55m0 0h-.5m0 0h-.5m0 0h-.55m0 0h-.5m0 0l-.5-.05m0 0h-.5m0 0l-.5-.05m0 0h-.5m0 0l-.5-.05m0 0l-.5-.05m0 0l-.5-.05m0 0l-.5-.05m0 0l-.45-.05m0 0l-.45-.05m0 0l-.35-.05m0 0l-.75-.1m0 0l-.6-.05m0 0l-.5-.05m0 0l-.45-.05m0 0l-.6-.1m0 0l-.65-.1m0 0h-.65m0 0h-.6m0 0h-.6m0 0h-.6m0 0l-.55.05m0 0l-.55.05m0 0l-.55.05m0 0l-.5.1m0 0l-.5.1m0 0l-.5.1m0 0l-.5.1m0 0l-.45.15m0 0l-.5.1m0 0l-.45.15m0 0l-.45.2m0 0l-.45.15m0 0l-.45.2m0 0l-.45.2m0 0l-.45.2m0 0l-.4.2m0 0l-.45.25m0 0l-.45.2m0 0l-.45.25m0 0l-.4.25m0 0l-.45.25m0 0l-.45.3m0 0l-.45.25m0 0l-.45.3m0 0l-.5.25m0 0l-.45.3m0 0l-.5.3m0 0l-.45.3m0 0l-.8.65m0 0l-.25.5m0 0l.15.5m0 0l.45.4m0 0l.7.35m0 0l.75.25m0 0l.8.25m0 0l.7.1m0 0l.4.1m0 0l.4.1m0 0l.4.1m0 0l.4.1m0 0l.4.1m0 0l.4.1m0 0l.4.1m0 0l.45.1m0 0l.4.1m0 0l.4.15m0 0l.45.1m0 0l.4.1m0 0l.4.1m0 0l.45.1m0 0l.4.1m0 0l.45.1m0 0l.4.15m0 0l.4.1m0 0l.45.1m0 0l.4.1m0 0l.45.15m0 0l.45.1m0 0l.4.1m0 0l.45.1m0 0l.4.15m0 0l.45.1m0 0l.45.1m0 0l.4.1m0 0l.45.15m0 0l.45.1m0 0l.4.1m0 0l.45.1m0 0l.45.15m0 0l.4.1m0 0l.45.1m0 0l.45.1m0 0l.45.1m0 0l.4.15m0 0l.45.1m0 0l.45.1m0 0l.45.1m0 0l.4.1m0 0l.45.1m0 0l.45.1m0 0l.45.1m0 0l.4.15m0 0l.45.1m0 0l.45.1m0 0l.45.05m0 0l.45.1m0 0l.4.1m0 0l.45.1m0 0l.45.1m0 0l.45.1m0 0l.45.1m0 0l.4.1m0 0l.45.05m0 0l.45.1m0 0l.45.1m0 0l.45.05m0 0l.4.1m0 0l.45.05m0 0l.45.1m0 0l.45.05m0 0l.4.1m0 0l.45.05m0 0l.45.1m0 0l.45.05m0 0l.4.05m0 0l.45.05m0 0l.45.05m0 0l.4.05m0 0l.45.1m0 0l.45.05m0 0h.4m0 0l.45.05m0 0l.4.05m0 0l.45.05m0 0l.45.05m0 0h.4m0 0l.45.05m0 0h.4m0 0l.45.05m0 0h.4m0 0l.45.05m0 0h.4m0 0h.45m0 0h.4m0 0h.4m0 0h.45m0 0h.4m0 0h.4m0 0h.45m0 0h.4m0 0l.4-.05m0 0h.4m0 0l.4-.05m0 0h.45m0 0l.4-.05m0 0l.4-.05m0 0l.4-.05m0 0l.4-.05m0 0l.8-.1m0 0l.8-.1m0 0l.8-.15m0 0l.75-.15m0 0l.8-.2m0 0l.75-.2m0 0l.75-.2m0 0l.75-.25m0 0l.75-.25m0 0l.75-.3m0 0l.7-.3m0 0l.7-.35m0 0l.75-.35m0 0h.35m0 0l.65-.3m0 0l.7-.3m0 0l.7-.3m0 0l.7-.35m0 0l.7-.3m0 0l.65-.3m0 0l.7-.3m0 0l.7-.3m0 0l.7-.3m0 0l.65-.3m0 0l.7-.3m0 0l.7-.25m0 0l.65-.3m0 0l.7-.3m0 0l.65-.25m0 0l.7-.3m0 0l.65-.25m0 0l.7-.3m0 0l.65-.25m0 0l.7-.3m0 0l.65-.25m0 0l.7-.25m0 0l.65-.25m0 0l.7-.25m0 0l.65-.25m0 0l.65-.25m0 0l.7-.25m0 0l.65-.25m0 0l.7-.25m0 0l.65-.25m0 0l.65-.2m0 0l.65-.25m0 0l.7-.25m0 0l.65-.2m0 0l.65-.25m0 0l.65-.2m0 0l.7-.2m0 0l.65-.25m0 0l.65-.2m0 0l.65-.2m0 0l.7-.2m0 0l.65-.2m0 0l.65-.2m0 0l.65-.2m0 0l.65-.2m0 0l.65-.2m0 0l.65-.2m0 0l.7-.2m0 0l.65-.15m0 0l.65-.2m0 0l.65-.15m0 0l.65-.2m0 0l.65-.15m0 0l.65-.15m0 0l.65-.2m0 0l.65-.15m0 0l.65-.15m0 0l.65-.15m0 0l.65-.15m0 0l.65-.15m0 0l.7-.15m0 0l.65-.15m0 0l.65-.15m0 0l.65-.15m0 0l.65-.1m0 0l.65-.15m0 0l.65-.1m0 0l.65-.15m0 0l.65-.1m0 0l.65-.15m0 0l.65-.1m0 0l.65-.1m0 0l.65-.1m0 0l.65-.1m0 0l.65-.1m0 0l.65-.1m0 0l.65-.1m0 0l.65-.1m0 0l.65-.1m0 0l.65-.1m0 0l.65-.05m0 0l.65-.1m0 0l.65-.05m0 0l.65-.1m0 0l.7-.05m0 0l.65-.05m0 0l.65-.1m0 0l.65-.05m0 0l.65-.05m0 0l.65-.05m0 0l.65-.05m0 0l.65-.05m0 0l.65-.05m0 0l.65-.05m0 0h.7m0 0l.65-.05m0 0l.65-.05m0 0h.65m0 0l.65-.05m0 0h.65m0 0h.7m0 0l.65-.05m0 0h.65m0 0h.65m0 0h.7m0 0h.65m0 0h.65m0 0h.65m0 0h.7m0 0l.65.05m0 0h.65m0 0h.7m0 0l.65.05m0 0h.65m0 0l.7.05m0 0l.65.05m0 0h.7m0 0l.65.05m0 0l.7.05m0 0l.65.05m0 0l.7.05m0 0l.65.05m0 0l.7.1m0 0l.65.05m0 0l.7.05m0 0l.65.1m0 0l.7.05m0 0l.7.05m0 0l.5.1m0 0l.45.15m0 0l.45.2m0 0l.4.3m0 0l.7.8m0 0l.3.45m0 0l.3.5m0 0l.2.55m0 0l.2.6m0 0l.15.6m0 0l.1.6m0 0l.1.65m0 0v.65m0 0v.65m0 0l-.05.65m0 0l-.05.65m0 0l-.15.65m0 0l-.15.6m0 0l-.25.55m0 0l-.25.55m0 0l-.3.55m0 0l-.35.45m0 0l-.4.4m0 0l-.4.35m0 0l-.5.3m0 0l-.5.25m0 0l-.6.15m0 0l-.6.1m0 0l-.7-.05m0 0l-.7-.1m0 0l-.75-.2m0 0l-.6-.05m0 0l-.6-.05m0 0l-.6-.05m0 0l-.6-.1m0 0l-.6-.05m0 0l-.6-.05m0 0h-.6m0 0l-.6-.05m0 0l-.6-.05m0 0l-.6-.05m0 0h-.6m0 0l-.55-.05m0 0h-.6m0 0l-.6-.05m0 0h-.6m0 0h-.6m0 0h-.55m0 0l-.6-.05m0 0h-.6m0 0l-.6.05m0 0h-.55m0 0h-.6m0 0h-.6m0 0h-.6m0 0l-.55.05m0 0h-.6m0 0l-.6.05m0 0h-.55m0 0l-.6.05m0 0l-.6.05m0 0l-.55.05m0 0l-.6.05m0 0l-.6.05m0 0l-.55.05m0 0l-.6.05m0 0l-.6.05m0 0l-.55.05m0 0l-.6.05m0 0l-.55.1m0 0l-.6.05m0 0l-.6.05m0 0l-.55.1m0 0l-.6.1m0 0l-.6.05m0 0l-.55.1m0 0l-.6.1m0 0l-.55.1m0 0l-.6.1m0 0l-.55.1m0 0l-.6.1m0 0l-.6.1m0 0l-.55.1m0 0l-.6.1m0 0l-.55.1m0 0l-.6.15m0 0l-.6.1m0 0l-.55.15m0 0l-.6.1m0 0l-.55.15m0 0l-.6.1m0 0l-.6.15m0 0l-.55.15m0 0l-.6.15m0 0l-.55.1m0 0l-.6.15m0 0l-.6.15m0 0l-.55.15m0 0l-.6.15m0 0l-.55.2m0 0l-.6.15m0 0l-.6.15m0 0l-.55.15m0 0l-.6.2m0 0l-.6.15m0 0l-.55.15m0 0l-.6.2m0 0l-.6.2m0 0l-.55.15m0 0l-.6.2m0 0l-.6.2m0 0l-.55.15m0 0l-.6.2m0 0l-.6.2m0 0l-.6.2m0 0l-.55.2m0 0l-.6.2m0 0l-.6.2m0 0l-.6.2m0 0l-.55.2m0 0l-.6.2m0 0l-.6.25m0 0l-.6.2m0 0l-.6.2m0 0l-.6.25m0 0l-.55.2m0 0l-.6.25m0 0l-.6.2m0 0l-.6.25m0 0l-.6.2m0 0l-.6.25m0 0l-.6.25m0 0l-.6.25m0 0l-.6.2m0 0l-.6.25m0 0l-.6.25m0 0l-.6.25m0 0l-.6.25m0 0l-.6.25m0 0l-.6.25m0 0l-.6.25m0 0l-.6.25m0 0l-.6.3m0 0l-.6.25m0 0l-.6.25m0 0l-.65.25m0 0l-.6.3m0 0l-.6.25m0 0l-.6.25m0 0l-.6.3m0 0l-.65.25m0 0l-.6.3m0 0l-.6.25m0 0l-.65.3m0 0l-.6.3m0 0l-.6.25m0 0l-.65.3m0 0l-.6.3m0 0l-.6.25m0 0l-.45.2m0 0l-.4.2m0 0l-.4.2m0 0l-.4.15m0 0l-.45.2m0 0l-.4.15m0 0l-.4.2m0 0l-.4.15m0 0l-.45.2m0 0l-.4.15m0 0l-.4.15m0 0l-.4.2m0 0l-.4.15m0 0l-.45.15m0 0l-.4.15m0 0l-.4.15m0 0l-.4.15m0 0l-.4.15m0 0l-.45.15m0 0l-.4.15m0 0l-.4.1m0 0l-.4.15m0 0l-.4.1m0 0l-.45.15m0 0l-.4.1m0 0l-.4.15m0 0l-.4.1m0 0l-.45.1m0 0l-.4.15m0 0l-.4.1m0 0l-.4.1m0 0l-.4.05m0 0l-.6.2m0 0l-.5.25m0 0l-.45.35m0 0l-.3.5m0 0l-.2.6m0 0l-.05.7m0 0l.05.35m0 0l.1.45m0 0l.15.45m0 0l.25.45m0 0l.15.45m0 0l.2.45m0 0l.15.4m0 0l.2.45m0 0l.15.4m0 0l.2.4m0 0l.15.45m0 0l.2.4m0 0l.15.45m0 0l.2.4m0 0l.15.45m0 0l.2.45m0 0l.15.45m0 0l.2.45m0 0l.15.5m0 0l.2.45m0 0l.3.8m0 0l.2.6m0 0l.3.7m0 0l.15.25m0 0l.2.55m0 0l.15.55m0 0l.2.5m0 0l.2.45m0 0l.2.45m0 0l.15.45m0 0l.2.4m0 0l.15.4m0 0l.35.75m0 0l.4.7m0 0l.35.65m0 0l.4.6m0 0l.45.6m0 0l.45.55m0 0l.5.6m0 0l.55.55m0 0l.6.6m0 0l.7.65m0 0l.75.65m0 0l.4.35m0 0l.45.35m0 0l.55.6m0 0l.1.05m0 0l.75.7m0 0l.4.4m0 0l.45.4m0 0l.45.4m0 0l.45.45m0 0l.45.5m0 0l.5.5m0 0l.45.55m0 0l.5.55m0 0l.5.55m0 0l.45.65m0 0l.45.6m0 0l.45.65m0 0l.4.7m0 0l.45.7m0 0l.35.75m0 0l.35.8m0 0l.35.75m0 0l.15.45m0 0l.15.4m0 0l.1.4m0 0l.15.45m0 0l.1.4m0 0l.1.45m0 0l.1.45m0 0l.05.45m0 0l.1.45m0 0l.05.5m0 0l.05.45m0 0v.5m0 0l.05.5m0 0v.45m0 0l-.05.5m0 0v.55m0 0l-.05.5m0 0l-.05.5m0 0l-.1.55m0 0l-.05.55m0 0l-.15.5m0 0l-.1.55m0 0l-.15.55m0 0l-.15.6m0 0l-.2.55m0 0l-.15.55m0 0l-.55.75m0 0l-.6.4m0 0l-.65.1m0 0l-.6-.2m0 0l-.5-.35m0 0l-.3-.6m0 0l-.1-.8"/><path d="M440 381.85l.05-.45m0 0l.15-.5"/></g></g><path d="M-7.611 28.773h56.618v54.573H-7.611zM120.087 2.952h99.424v106.215h-99.424z" fill="#fff"/><text xml:space="preserve" x="76.39" y="33.932" font-size="4.233" fill="#000" class="F"><tspan x="76.39" y="33.932">Aneurysm</tspan></text><text xml:space="preserve" x="17.542" y="71.1" font-size="4.233" fill="#000" class="F"><tspan x="17.542" y="71.1">Blood vessel</tspan></text></g></svg>